<?xml version="1.0" encoding="UTF-8" standalone="no"?><svg xmlns="http://www.w3.org/2000/svg" xmlns:xlink="http://www.w3.org/1999/xlink" contentStyleType="text/css" height="885px" preserveAspectRatio="none" style="width:618px;height:885px;background:#FFFFFF;" version="1.1" viewBox="0 0 618 885" width="618px" zoomAndPan="magnify"><defs/><g><!--MD5=[a96594a83e2ecdc78cbf17c2ddf01934]
class Category--><g id="elem_Category"><rect codeLine="19" fill="#F1F1F1" height="215.9993" id="Category" rx="2.5" ry="2.5" style="stroke:#181818;stroke-width:0.5;" width="304" x="7" y="663"/><ellipse cx="125.75" cy="679" fill="#EB937F" rx="11" ry="11" style="stroke:#181818;stroke-width:1.0;"/><path d="M124.6094,680.0625 L125.9219,680.0625 L125.9219,680.1094 C125.9219,680.5156 125.9375,680.6719 126.0469,680.8281 C126.2188,681.0781 126.5156,681.25 126.8281,681.25 C127.1094,681.25 127.4063,681.1094 127.5781,680.8906 C127.7031,680.7031 127.75,680.5625 127.75,680.1094 L127.75,678.2656 C127.75,677.9375 127.7344,677.8281 127.6719,677.6563 C127.5625,677.3594 127.2031,677.1094 126.8281,677.1094 C126.5313,677.1094 126.2656,677.25 126.0938,677.4688 C125.9531,677.6563 125.9219,677.8281 125.9219,678.2656 L125.9219,678.3281 L124.6094,678.3281 L124.6094,676.1563 L128.4531,676.1563 L128.4531,676.9063 C128.4531,677.2969 128.4844,677.4844 128.5938,677.6406 C128.7656,677.8906 129.0625,678.0625 129.375,678.0625 C129.6719,678.0625 129.9375,677.9375 130.125,677.7031 C130.2656,677.5156 130.2969,677.375 130.2969,676.9063 L130.2969,674.4063 L122.5938,674.4063 C122.1406,674.4063 122.0156,674.4219 121.8438,674.5313 C121.5781,674.7031 121.4063,674.9688 121.4063,675.2813 C121.4063,675.5625 121.5313,675.8281 121.7813,676 C121.9688,676.125 122.1563,676.1563 122.5938,676.1563 L122.7813,676.1563 L122.7813,682.25 L122.5938,682.25 C122.1719,682.25 122.0156,682.2813 121.8438,682.375 C121.5781,682.5313 121.4063,682.8125 121.4063,683.1094 C121.4063,683.6875 121.8125,684 122.5938,684 L130.6719,684 L130.6719,681.4688 C130.6719,681.0625 130.6406,680.8906 130.5313,680.7344 C130.3594,680.4688 130.0781,680.3125 129.75,680.3125 C129.4688,680.3125 129.1875,680.4531 129,680.6719 C128.8594,680.8594 128.8281,681.0156 128.8281,681.4688 L128.8281,682.25 L124.6094,682.25 L124.6094,680.0625 Z " fill="#000000"/><text fill="#000000" font-family="sans-serif" font-size="14" lengthAdjust="spacing" textLength="58" x="146.25" y="683.606">Category</text><line style="stroke:#181818;stroke-width:0.5;" x1="8" x2="310" y1="695" y2="695"/><ellipse cx="18" cy="708.9" fill="none" rx="3" ry="3" style="stroke:#038048;stroke-width:1.0;"/><text fill="#000000" font-family="sans-serif" font-size="14" lengthAdjust="spacing" textLength="278" x="27" y="712.0059">TEXT_BOOKS_EDUCATIONAL_MATERIAL</text><ellipse cx="18" cy="725.6999" fill="none" rx="3" ry="3" style="stroke:#038048;stroke-width:1.0;"/><text fill="#000000" font-family="sans-serif" font-size="14" lengthAdjust="spacing" textLength="127" x="27" y="728.8059">OFFICE_SUPPLIES</text><ellipse cx="18" cy="742.4998" fill="none" rx="3" ry="3" style="stroke:#038048;stroke-width:1.0;"/><text fill="#000000" font-family="sans-serif" font-size="14" lengthAdjust="spacing" textLength="99" x="27" y="745.6058">ELECTRONICS</text><ellipse cx="18" cy="759.2997" fill="none" rx="3" ry="3" style="stroke:#038048;stroke-width:1.0;"/><text fill="#000000" font-family="sans-serif" font-size="14" lengthAdjust="spacing" textLength="219" x="27" y="762.4057">FURNITURE_AND_DECORATION</text><ellipse cx="18" cy="776.0997" fill="none" rx="3" ry="3" style="stroke:#038048;stroke-width:1.0;"/><text fill="#000000" font-family="sans-serif" font-size="14" lengthAdjust="spacing" textLength="73" x="27" y="779.2057">CLOTHING</text><ellipse cx="18" cy="792.8996" fill="none" rx="3" ry="3" style="stroke:#038048;stroke-width:1.0;"/><text fill="#000000" font-family="sans-serif" font-size="14" lengthAdjust="spacing" textLength="173" x="27" y="796.0056">LABORATORY_MATERIAL</text><ellipse cx="18" cy="809.6995" fill="none" rx="3" ry="3" style="stroke:#038048;stroke-width:1.0;"/><text fill="#000000" font-family="sans-serif" font-size="14" lengthAdjust="spacing" textLength="171" x="27" y="812.8055">MUSICAL_INSTRUMENTS</text><ellipse cx="18" cy="826.4995" fill="none" rx="3" ry="3" style="stroke:#038048;stroke-width:1.0;"/><text fill="#000000" font-family="sans-serif" font-size="14" lengthAdjust="spacing" textLength="133" x="27" y="829.6054">SPORTING_GOODS</text><ellipse cx="18" cy="843.2994" fill="none" rx="3" ry="3" style="stroke:#038048;stroke-width:1.0;"/><text fill="#000000" font-family="sans-serif" font-size="14" lengthAdjust="spacing" textLength="144" x="27" y="846.4054">ARTS_HANDICRAFTS</text><ellipse cx="18" cy="860.0993" fill="none" rx="3" ry="3" style="stroke:#038048;stroke-width:1.0;"/><text fill="#000000" font-family="sans-serif" font-size="14" lengthAdjust="spacing" textLength="96" x="27" y="863.2053">TOYS_GAMES</text><line style="stroke:#181818;stroke-width:0.5;" x1="8" x2="310" y1="870.9993" y2="870.9993"/></g><!--MD5=[60d6b92408f98aed8df94d5c6e04aa63]
class State--><g id="elem_State"><rect codeLine="32" fill="#F1F1F1" height="115.1997" id="State" rx="2.5" ry="2.5" style="stroke:#181818;stroke-width:0.5;" width="126" x="346" y="713.4"/><ellipse cx="388.45" cy="729.4" fill="#EB937F" rx="11" ry="11" style="stroke:#181818;stroke-width:1.0;"/><path d="M387.3094,730.4625 L388.6219,730.4625 L388.6219,730.5094 C388.6219,730.9156 388.6375,731.0719 388.7469,731.2281 C388.9188,731.4781 389.2156,731.65 389.5281,731.65 C389.8094,731.65 390.1063,731.5094 390.2781,731.2906 C390.4031,731.1031 390.45,730.9625 390.45,730.5094 L390.45,728.6656 C390.45,728.3375 390.4344,728.2281 390.3719,728.0563 C390.2625,727.7594 389.9031,727.5094 389.5281,727.5094 C389.2313,727.5094 388.9656,727.65 388.7938,727.8688 C388.6531,728.0563 388.6219,728.2281 388.6219,728.6656 L388.6219,728.7281 L387.3094,728.7281 L387.3094,726.5563 L391.1531,726.5563 L391.1531,727.3063 C391.1531,727.6969 391.1844,727.8844 391.2938,728.0406 C391.4656,728.2906 391.7625,728.4625 392.075,728.4625 C392.3719,728.4625 392.6375,728.3375 392.825,728.1031 C392.9656,727.9156 392.9969,727.775 392.9969,727.3063 L392.9969,724.8063 L385.2938,724.8063 C384.8406,724.8063 384.7156,724.8219 384.5438,724.9313 C384.2781,725.1031 384.1063,725.3688 384.1063,725.6813 C384.1063,725.9625 384.2313,726.2281 384.4813,726.4 C384.6688,726.525 384.8563,726.5563 385.2938,726.5563 L385.4813,726.5563 L385.4813,732.65 L385.2938,732.65 C384.8719,732.65 384.7156,732.6813 384.5438,732.775 C384.2781,732.9313 384.1063,733.2125 384.1063,733.5094 C384.1063,734.0875 384.5125,734.4 385.2938,734.4 L393.3719,734.4 L393.3719,731.8688 C393.3719,731.4625 393.3406,731.2906 393.2313,731.1344 C393.0594,730.8688 392.7781,730.7125 392.45,730.7125 C392.1688,730.7125 391.8875,730.8531 391.7,731.0719 C391.5594,731.2594 391.5281,731.4156 391.5281,731.8688 L391.5281,732.65 L387.3094,732.65 L387.3094,730.4625 Z " fill="#000000"/><text fill="#000000" font-family="sans-serif" font-size="14" lengthAdjust="spacing" textLength="33" x="408.55" y="734.006">State</text><line style="stroke:#181818;stroke-width:0.5;" x1="347" x2="471" y1="745.4" y2="745.4"/><ellipse cx="357" cy="759.3" fill="none" rx="3" ry="3" style="stroke:#038048;stroke-width:1.0;"/><text fill="#000000" font-family="sans-serif" font-size="14" lengthAdjust="spacing" textLength="32" x="366" y="762.4059">NEW</text><ellipse cx="357" cy="776.0999" fill="none" rx="3" ry="3" style="stroke:#038048;stroke-width:1.0;"/><text fill="#000000" font-family="sans-serif" font-size="14" lengthAdjust="spacing" textLength="66" x="366" y="779.2059">SEMINEW</text><ellipse cx="357" cy="792.8998" fill="none" rx="3" ry="3" style="stroke:#038048;stroke-width:1.0;"/><text fill="#000000" font-family="sans-serif" font-size="14" lengthAdjust="spacing" textLength="38" x="366" y="796.0058">USED</text><ellipse cx="357" cy="809.6997" fill="none" rx="3" ry="3" style="stroke:#038048;stroke-width:1.0;"/><text fill="#000000" font-family="sans-serif" font-size="14" lengthAdjust="spacing" textLength="100" x="366" y="812.8057">LOW_QUALITY</text><line style="stroke:#181818;stroke-width:0.5;" x1="347" x2="471" y1="820.5997" y2="820.5997"/></g><!--MD5=[add422631c5af2b0405616ed0a5e0935]
class TypeArticle--><g id="elem_TypeArticle"><rect codeLine="39" fill="#F1F1F1" height="81.5999" id="TypeArticle" rx="2.5" ry="2.5" style="stroke:#181818;stroke-width:0.5;" width="104" x="507" y="730.2"/><ellipse cx="522.45" cy="746.2" fill="#EB937F" rx="11" ry="11" style="stroke:#181818;stroke-width:1.0;"/><path d="M521.3094,747.2625 L522.6219,747.2625 L522.6219,747.3094 C522.6219,747.7156 522.6375,747.8719 522.7469,748.0281 C522.9188,748.2781 523.2156,748.45 523.5281,748.45 C523.8094,748.45 524.1063,748.3094 524.2781,748.0906 C524.4031,747.9031 524.45,747.7625 524.45,747.3094 L524.45,745.4656 C524.45,745.1375 524.4344,745.0281 524.3719,744.8563 C524.2625,744.5594 523.9031,744.3094 523.5281,744.3094 C523.2313,744.3094 522.9656,744.45 522.7938,744.6688 C522.6531,744.8563 522.6219,745.0281 522.6219,745.4656 L522.6219,745.5281 L521.3094,745.5281 L521.3094,743.3563 L525.1531,743.3563 L525.1531,744.1063 C525.1531,744.4969 525.1844,744.6844 525.2938,744.8406 C525.4656,745.0906 525.7625,745.2625 526.075,745.2625 C526.3719,745.2625 526.6375,745.1375 526.825,744.9031 C526.9656,744.7156 526.9969,744.575 526.9969,744.1063 L526.9969,741.6063 L519.2938,741.6063 C518.8406,741.6063 518.7156,741.6219 518.5438,741.7313 C518.2781,741.9031 518.1063,742.1688 518.1063,742.4813 C518.1063,742.7625 518.2313,743.0281 518.4813,743.2 C518.6688,743.325 518.8563,743.3563 519.2938,743.3563 L519.4813,743.3563 L519.4813,749.45 L519.2938,749.45 C518.8719,749.45 518.7156,749.4813 518.5438,749.575 C518.2781,749.7313 518.1063,750.0125 518.1063,750.3094 C518.1063,750.8875 518.5125,751.2 519.2938,751.2 L527.3719,751.2 L527.3719,748.6688 C527.3719,748.2625 527.3406,748.0906 527.2313,747.9344 C527.0594,747.6688 526.7781,747.5125 526.45,747.5125 C526.1688,747.5125 525.8875,747.6531 525.7,747.8719 C525.5594,748.0594 525.5281,748.2156 525.5281,748.6688 L525.5281,749.45 L521.3094,749.45 L521.3094,747.2625 Z " fill="#000000"/><text fill="#000000" font-family="sans-serif" font-size="14" lengthAdjust="spacing" textLength="71" x="536.55" y="750.806">TypeArticle</text><line style="stroke:#181818;stroke-width:0.5;" x1="508" x2="610" y1="762.2" y2="762.2"/><ellipse cx="518" cy="776.1" fill="none" rx="3" ry="3" style="stroke:#038048;stroke-width:1.0;"/><text fill="#000000" font-family="sans-serif" font-size="14" lengthAdjust="spacing" textLength="78" x="527" y="779.2059">PUBLISHED</text><ellipse cx="518" cy="792.8999" fill="none" rx="3" ry="3" style="stroke:#038048;stroke-width:1.0;"/><text fill="#000000" font-family="sans-serif" font-size="14" lengthAdjust="spacing" textLength="78" x="527" y="796.0059">PROPOSED</text><line style="stroke:#181818;stroke-width:0.5;" x1="508" x2="610" y1="803.7999" y2="803.7999"/></g><!--MD5=[6f2046564139e9e072de7b49b613890d]
class Unimart--><g id="elem_Unimart"><rect fill="#F1F1F1" height="48" id="Unimart" rx="2.5" ry="2.5" style="stroke:#181818;stroke-width:0.5;" width="82" x="395" y="7"/><ellipse cx="410" cy="23" fill="#ADD1B2" rx="11" ry="11" style="stroke:#181818;stroke-width:1.0;"/><path d="M405,24.1563 C405,26.6563 407.1406,28.4688 410.0625,28.4688 C411.2969,28.4688 412.4688,28.1719 413.2188,27.6563 C413.8281,27.2344 414.1563,26.8125 414.1563,26.4063 C414.1563,25.9375 413.7344,25.5313 413.2344,25.5313 C413,25.5313 412.7813,25.6094 412.5781,25.8125 C412.1406,26.25 412.1406,26.25 411.9688,26.3438 C411.5156,26.5781 410.875,26.7188 410.1094,26.7188 C408.1094,26.7188 406.8281,25.7031 406.8281,24.125 L406.8281,23.0781 C406.8281,21.375 408.0469,20.1719 409.75,20.1719 C410.3281,20.1719 410.9063,20.3125 411.375,20.5625 C411.8438,20.8281 412.0156,21.0156 412.0781,21.375 C412.2031,22.0469 412.4531,22.2969 412.9844,22.2969 C413.2656,22.2969 413.5469,22.1563 413.7344,21.9375 C413.8594,21.7656 413.9063,21.5938 413.9063,21.1563 L413.9063,19.7969 C413.9063,19.375 413.8906,19.2344 413.7656,19.0625 C413.5938,18.8125 413.3125,18.6563 412.9844,18.6563 C412.6719,18.6563 412.4688,18.7656 412.25,19.0313 C411.0781,18.5313 410.6406,18.4219 409.6875,18.4219 C407.0156,18.4219 405,20.4375 405,23.0625 L405,24.1563 Z " fill="#000000"/><text fill="#000000" font-family="sans-serif" font-size="14" lengthAdjust="spacing" textLength="50" x="424" y="27.606">Unimart</text><line style="stroke:#181818;stroke-width:0.5;" x1="396" x2="476" y1="39" y2="39"/><line style="stroke:#181818;stroke-width:0.5;" x1="396" x2="476" y1="47" y2="47"/></g><!--MD5=[13fb849c6dfc9273db4c5b2c7ac96a10]
class Publisher--><g id="elem_Publisher"><rect fill="#F1F1F1" height="48" id="Publisher" rx="2.5" ry="2.5" style="stroke:#181818;stroke-width:0.5;" width="91" x="307.5" y="132"/><ellipse cx="322.5" cy="148" fill="#ADD1B2" rx="11" ry="11" style="stroke:#181818;stroke-width:1.0;"/><path d="M317.5,149.1563 C317.5,151.6563 319.6406,153.4688 322.5625,153.4688 C323.7969,153.4688 324.9688,153.1719 325.7188,152.6563 C326.3281,152.2344 326.6563,151.8125 326.6563,151.4063 C326.6563,150.9375 326.2344,150.5313 325.7344,150.5313 C325.5,150.5313 325.2813,150.6094 325.0781,150.8125 C324.6406,151.25 324.6406,151.25 324.4688,151.3438 C324.0156,151.5781 323.375,151.7188 322.6094,151.7188 C320.6094,151.7188 319.3281,150.7031 319.3281,149.125 L319.3281,148.0781 C319.3281,146.375 320.5469,145.1719 322.25,145.1719 C322.8281,145.1719 323.4063,145.3125 323.875,145.5625 C324.3438,145.8281 324.5156,146.0156 324.5781,146.375 C324.7031,147.0469 324.9531,147.2969 325.4844,147.2969 C325.7656,147.2969 326.0469,147.1563 326.2344,146.9375 C326.3594,146.7656 326.4063,146.5938 326.4063,146.1563 L326.4063,144.7969 C326.4063,144.375 326.3906,144.2344 326.2656,144.0625 C326.0938,143.8125 325.8125,143.6563 325.4844,143.6563 C325.1719,143.6563 324.9688,143.7656 324.75,144.0313 C323.5781,143.5313 323.1406,143.4219 322.1875,143.4219 C319.5156,143.4219 317.5,145.4375 317.5,148.0625 L317.5,149.1563 Z " fill="#000000"/><text fill="#000000" font-family="sans-serif" font-size="14" lengthAdjust="spacing" textLength="59" x="336.5" y="152.606">Publisher</text><line style="stroke:#181818;stroke-width:0.5;" x1="308.5" x2="397.5" y1="164" y2="164"/><line style="stroke:#181818;stroke-width:0.5;" x1="308.5" x2="397.5" y1="172" y2="172"/></g><!--MD5=[d22815ff63be9cac9a63f8d1ea27d033]
class Article--><g id="elem_Article"><rect fill="#F1F1F1" height="48" id="Article" rx="2.5" ry="2.5" style="stroke:#181818;stroke-width:0.5;" width="71" x="373.5" y="538"/><ellipse cx="388.5" cy="554" fill="#ADD1B2" rx="11" ry="11" style="stroke:#181818;stroke-width:1.0;"/><path d="M383.5,555.1563 C383.5,557.6563 385.6406,559.4688 388.5625,559.4688 C389.7969,559.4688 390.9688,559.1719 391.7188,558.6563 C392.3281,558.2344 392.6563,557.8125 392.6563,557.4063 C392.6563,556.9375 392.2344,556.5313 391.7344,556.5313 C391.5,556.5313 391.2813,556.6094 391.0781,556.8125 C390.6406,557.25 390.6406,557.25 390.4688,557.3438 C390.0156,557.5781 389.375,557.7188 388.6094,557.7188 C386.6094,557.7188 385.3281,556.7031 385.3281,555.125 L385.3281,554.0781 C385.3281,552.375 386.5469,551.1719 388.25,551.1719 C388.8281,551.1719 389.4063,551.3125 389.875,551.5625 C390.3438,551.8281 390.5156,552.0156 390.5781,552.375 C390.7031,553.0469 390.9531,553.2969 391.4844,553.2969 C391.7656,553.2969 392.0469,553.1563 392.2344,552.9375 C392.3594,552.7656 392.4063,552.5938 392.4063,552.1563 L392.4063,550.7969 C392.4063,550.375 392.3906,550.2344 392.2656,550.0625 C392.0938,549.8125 391.8125,549.6563 391.4844,549.6563 C391.1719,549.6563 390.9688,549.7656 390.75,550.0313 C389.5781,549.5313 389.1406,549.4219 388.1875,549.4219 C385.5156,549.4219 383.5,551.4375 383.5,554.0625 L383.5,555.1563 Z " fill="#000000"/><text fill="#000000" font-family="sans-serif" font-size="14" lengthAdjust="spacing" textLength="39" x="402.5" y="558.606">Article</text><line style="stroke:#181818;stroke-width:0.5;" x1="374.5" x2="443.5" y1="570" y2="570"/><line style="stroke:#181818;stroke-width:0.5;" x1="374.5" x2="443.5" y1="578" y2="578"/></g><!--MD5=[0a8a9a553ad28d76d3a1fd3918a25a86]
class Rating--><g id="elem_Rating"><rect fill="#F1F1F1" height="48" id="Rating" rx="2.5" ry="2.5" style="stroke:#181818;stroke-width:0.5;" width="73" x="305.5" y="413"/><ellipse cx="320.5" cy="429" fill="#ADD1B2" rx="11" ry="11" style="stroke:#181818;stroke-width:1.0;"/><path d="M315.5,430.1563 C315.5,432.6563 317.6406,434.4688 320.5625,434.4688 C321.7969,434.4688 322.9688,434.1719 323.7188,433.6563 C324.3281,433.2344 324.6563,432.8125 324.6563,432.4063 C324.6563,431.9375 324.2344,431.5313 323.7344,431.5313 C323.5,431.5313 323.2813,431.6094 323.0781,431.8125 C322.6406,432.25 322.6406,432.25 322.4688,432.3438 C322.0156,432.5781 321.375,432.7188 320.6094,432.7188 C318.6094,432.7188 317.3281,431.7031 317.3281,430.125 L317.3281,429.0781 C317.3281,427.375 318.5469,426.1719 320.25,426.1719 C320.8281,426.1719 321.4063,426.3125 321.875,426.5625 C322.3438,426.8281 322.5156,427.0156 322.5781,427.375 C322.7031,428.0469 322.9531,428.2969 323.4844,428.2969 C323.7656,428.2969 324.0469,428.1563 324.2344,427.9375 C324.3594,427.7656 324.4063,427.5938 324.4063,427.1563 L324.4063,425.7969 C324.4063,425.375 324.3906,425.2344 324.2656,425.0625 C324.0938,424.8125 323.8125,424.6563 323.4844,424.6563 C323.1719,424.6563 322.9688,424.7656 322.75,425.0313 C321.5781,424.5313 321.1406,424.4219 320.1875,424.4219 C317.5156,424.4219 315.5,426.4375 315.5,429.0625 L315.5,430.1563 Z " fill="#000000"/><text fill="#000000" font-family="sans-serif" font-size="14" lengthAdjust="spacing" textLength="41" x="334.5" y="433.606">Rating</text><line style="stroke:#181818;stroke-width:0.5;" x1="306.5" x2="377.5" y1="445" y2="445"/><line style="stroke:#181818;stroke-width:0.5;" x1="306.5" x2="377.5" y1="453" y2="453"/></g><!--MD5=[bfaa0cf1c94f172be725c75ad56c3fba]
class Publication--><g id="elem_Publication"><rect fill="#F1F1F1" height="48" id="Publication" rx="2.5" ry="2.5" style="stroke:#181818;stroke-width:0.5;" width="101" x="89.5" y="335"/><ellipse cx="104.5" cy="351" fill="#ADD1B2" rx="11" ry="11" style="stroke:#181818;stroke-width:1.0;"/><path d="M99.5,352.1563 C99.5,354.6563 101.6406,356.4688 104.5625,356.4688 C105.7969,356.4688 106.9688,356.1719 107.7188,355.6563 C108.3281,355.2344 108.6563,354.8125 108.6563,354.4063 C108.6563,353.9375 108.2344,353.5313 107.7344,353.5313 C107.5,353.5313 107.2813,353.6094 107.0781,353.8125 C106.6406,354.25 106.6406,354.25 106.4688,354.3438 C106.0156,354.5781 105.375,354.7188 104.6094,354.7188 C102.6094,354.7188 101.3281,353.7031 101.3281,352.125 L101.3281,351.0781 C101.3281,349.375 102.5469,348.1719 104.25,348.1719 C104.8281,348.1719 105.4063,348.3125 105.875,348.5625 C106.3438,348.8281 106.5156,349.0156 106.5781,349.375 C106.7031,350.0469 106.9531,350.2969 107.4844,350.2969 C107.7656,350.2969 108.0469,350.1563 108.2344,349.9375 C108.3594,349.7656 108.4063,349.5938 108.4063,349.1563 L108.4063,347.7969 C108.4063,347.375 108.3906,347.2344 108.2656,347.0625 C108.0938,346.8125 107.8125,346.6563 107.4844,346.6563 C107.1719,346.6563 106.9688,346.7656 106.75,347.0313 C105.5781,346.5313 105.1406,346.4219 104.1875,346.4219 C101.5156,346.4219 99.5,348.4375 99.5,351.0625 L99.5,352.1563 Z " fill="#000000"/><text fill="#000000" font-family="sans-serif" font-size="14" lengthAdjust="spacing" textLength="69" x="118.5" y="355.606">Publication</text><line style="stroke:#181818;stroke-width:0.5;" x1="90.5" x2="189.5" y1="367" y2="367"/><line style="stroke:#181818;stroke-width:0.5;" x1="90.5" x2="189.5" y1="375" y2="375"/></g><!--MD5=[bf02c7effb67abfc9618efe21901996e]
class Exchange--><g id="elem_Exchange"><rect fill="#F1F1F1" height="48" id="Exchange" rx="2.5" ry="2.5" style="stroke:#181818;stroke-width:0.5;" width="95" x="188.5" y="257"/><ellipse cx="203.5" cy="273" fill="#ADD1B2" rx="11" ry="11" style="stroke:#181818;stroke-width:1.0;"/><path d="M198.5,274.1563 C198.5,276.6563 200.6406,278.4688 203.5625,278.4688 C204.7969,278.4688 205.9688,278.1719 206.7188,277.6563 C207.3281,277.2344 207.6563,276.8125 207.6563,276.4063 C207.6563,275.9375 207.2344,275.5313 206.7344,275.5313 C206.5,275.5313 206.2813,275.6094 206.0781,275.8125 C205.6406,276.25 205.6406,276.25 205.4688,276.3438 C205.0156,276.5781 204.375,276.7188 203.6094,276.7188 C201.6094,276.7188 200.3281,275.7031 200.3281,274.125 L200.3281,273.0781 C200.3281,271.375 201.5469,270.1719 203.25,270.1719 C203.8281,270.1719 204.4063,270.3125 204.875,270.5625 C205.3438,270.8281 205.5156,271.0156 205.5781,271.375 C205.7031,272.0469 205.9531,272.2969 206.4844,272.2969 C206.7656,272.2969 207.0469,272.1563 207.2344,271.9375 C207.3594,271.7656 207.4063,271.5938 207.4063,271.1563 L207.4063,269.7969 C207.4063,269.375 207.3906,269.2344 207.2656,269.0625 C207.0938,268.8125 206.8125,268.6563 206.4844,268.6563 C206.1719,268.6563 205.9688,268.7656 205.75,269.0313 C204.5781,268.5313 204.1406,268.4219 203.1875,268.4219 C200.5156,268.4219 198.5,270.4375 198.5,273.0625 L198.5,274.1563 Z " fill="#000000"/><text fill="#000000" font-family="sans-serif" font-size="14" lengthAdjust="spacing" textLength="63" x="217.5" y="277.606">Exchange</text><line style="stroke:#181818;stroke-width:0.5;" x1="189.5" x2="282.5" y1="289" y2="289"/><line style="stroke:#181818;stroke-width:0.5;" x1="189.5" x2="282.5" y1="297" y2="297"/></g><!--MD5=[0b58f4aea13b5e56396c5386b4c8c4d9]
link Unimart to Publisher--><g id="link_Unimart_Publisher"><path codeLine="44" d="M413.4759,66.3759 C413.4759,66.3759 387.73,103.54 376.48,120.2 " fill="none" id="Unimart-Publisher" style="stroke:#181818;stroke-width:1.0;"/><polygon fill="#181818" points="368.75,130.66,377.1009,125.4386,371.5476,126.5159,370.4703,120.9625,368.75,130.66" style="stroke:#181818;stroke-width:1.0;"/><line style="stroke:#181818;stroke-width:1.0;" x1="371.5476" x2="376.02" y1="126.5159" y2="119.885"/><polygon fill="#181818" points="420.19,56.43,413.5176,59.1649,413.4759,66.3759,420.1482,63.641,420.19,56.43" style="stroke:#181818;stroke-width:1.0;"/><text fill="#000000" font-family="sans-serif" font-size="13" lengthAdjust="spacing" textLength="24" x="400" y="98.077">1..N</text></g><!--MD5=[5263a51c2e5dc5a2b2460947a7609584]
link Unimart to Article--><g id="link_Unimart_Article"><path codeLine="45" d="M474.0236,64.5658 C474.0236,64.5658 520,120.02 520,155 C520,155 520,155 520,438 C520,478.55 486.33,511.75 456.08,533.39 " fill="none" id="Unimart-Article" style="stroke:#181818;stroke-width:1.0;"/><polygon fill="#181818" points="445.73,541.1,455.4216,539.3473,449.8647,538.2886,450.9234,532.7317,445.73,541.1" style="stroke:#181818;stroke-width:1.0;"/><line style="stroke:#181818;stroke-width:1.0;" x1="449.8647" x2="456.48" y1="538.2886" y2="533.795"/><polygon fill="#181818" points="465.44,56.18,466.9365,63.2341,474.0236,64.5658,472.5271,57.5117,465.44,56.18" style="stroke:#181818;stroke-width:1.0;"/><text fill="#000000" font-family="sans-serif" font-size="13" lengthAdjust="spacing" textLength="24" x="521" y="285.577">1..N</text></g><!--MD5=[0deaccf5240827ced211fc81cb353033]
link Publisher to Rating--><g id="link_Publisher_Rating"><path codeLine="46" d="M351.6056,193.3006 C351.6056,193.3006 345.57,345.38 343.47,398.76 " fill="none" id="Publisher-Rating" style="stroke:#181818;stroke-width:1.0;"/><polygon fill="#181818" points="342.92,411.56,347.273,402.7253,343.1179,406.5639,339.2793,402.4088,342.92,411.56" style="stroke:#181818;stroke-width:1.0;"/><line style="stroke:#181818;stroke-width:1.0;" x1="343.1179" x2="343.435" y1="406.5639" y2="398.57"/><polygon fill="none" points="352.08,181.31,347.8459,187.1472,351.6056,193.3006,355.8397,187.4634,352.08,181.31" style="stroke:#181818;stroke-width:1.0;"/><text fill="#000000" font-family="sans-serif" font-size="13" lengthAdjust="spacing" textLength="24" x="349" y="285.577">0..N</text></g><!--MD5=[006f4f963252e0db49c82e199f4c9f0b]
link Publisher to Article--><g id="link_Publisher_Article"><path codeLine="47" d="M369.582,192.5347 C369.582,192.5347 374.46,204.4 376,210 C381.58,230.31 379.73,236.07 382,257 C392.45,353.19 401.73,466.83 406.19,524.08 " fill="none" id="Publisher-Article" style="stroke:#181818;stroke-width:1.0;"/><polygon fill="#181818" points="407.25,536.71,410.5456,527.4289,406.8653,531.7248,402.5693,528.0445,407.25,536.71" style="stroke:#181818;stroke-width:1.0;"/><line style="stroke:#181818;stroke-width:1.0;" x1="406.8653" x2="406.245" y1="531.7248" y2="523.74"/><polygon fill="none" points="364.89,181.49,363.5544,188.5763,369.582,192.5347,370.9176,185.4483,364.89,181.49" style="stroke:#181818;stroke-width:1.0;"/><text fill="#000000" font-family="sans-serif" font-size="13" lengthAdjust="spacing" textLength="24" x="395" y="363.577">0..N</text></g><!--MD5=[8894fd5c6b9c8947ca8c2d924e7bbe3c]
link Rating to Article--><g id="link_Rating_Article"><path codeLine="48" d="M354.76,461.43 C365.8,481.69 381.79,511.04 393.55,532.63 " fill="none" id="Rating-to-Article" style="stroke:#181818;stroke-width:1.0;"/><polygon fill="#181818" points="396.29,536.66,395.5031,526.8426,393.9008,532.2678,388.4756,530.6654,396.29,536.66" style="stroke:#181818;stroke-width:1.0;"/><text fill="#000000" font-family="sans-serif" font-size="13" lengthAdjust="spacing" textLength="4" x="380" y="504.077"> </text></g><!--MD5=[dc12fa9f566c235847c0541154c32b99]
link Article to Category--><g id="link_Article_Category"><path codeLine="49" d="M370.5709,593.9976 C370.5709,593.9976 325.16,632.42 299.01,654.07 " fill="none" id="Article-Category" style="stroke:#181818;stroke-width:1.0;"/><polygon fill="#181818" points="289.56,662.73,299.0441,660.0746,293.4123,659.5426,293.9443,653.9108,289.56,662.73" style="stroke:#181818;stroke-width:1.0;"/><line style="stroke:#181818;stroke-width:1.0;" x1="293.4123" x2="299.57" y1="659.5426" y2="654.435"/><polygon fill="#181818" points="379.81,586.34,372.6379,587.0891,370.5709,593.9976,377.7429,593.2485,379.81,586.34" style="stroke:#181818;stroke-width:1.0;"/><text fill="#000000" font-family="sans-serif" font-size="13" lengthAdjust="spacing" textLength="22" x="342" y="629.077">1..2</text></g><!--MD5=[9e75ce7792125e19ac83890694df328c]
link Article to State--><g id="link_Article_State"><path codeLine="50" d="M409,599.34 C409,599.34 409,666 409,699.3 " fill="none" id="Article-State" style="stroke:#181818;stroke-width:1.0;"/><polygon fill="#181818" points="409,712.22,413,703.22,409,707.22,405,703.22,409,712.22" style="stroke:#181818;stroke-width:1.0;"/><line style="stroke:#181818;stroke-width:1.0;" x1="409" x2="409" y1="707.22" y2="699.22"/><polygon fill="#181818" points="409,587.34,405,593.34,409,599.34,413,593.34,409,587.34" style="stroke:#181818;stroke-width:1.0;"/><text fill="#000000" font-family="sans-serif" font-size="13" lengthAdjust="spacing" textLength="24" x="410" y="629.077">1..N</text></g><!--MD5=[61be412feae72c12eb28c5fd0e4e635d]
link Article to TypeArticle--><g id="link_Article_TypeArticle"><path codeLine="51" d="M436.7723,596.4651 C436.7723,596.4651 473.57,640.31 490,663 C502.75,680.61 515.9,700.49 527.24,718.29 " fill="none" id="Article-TypeArticle" style="stroke:#181818;stroke-width:1.0;"/><polygon fill="#181818" points="534.6,728.93,533.1641,719.1864,531.9249,724.7058,526.4054,723.4666,534.6,728.93" style="stroke:#181818;stroke-width:1.0;"/><line style="stroke:#181818;stroke-width:1.0;" x1="531.9249" x2="527.655" y1="724.7058" y2="717.945"/><polygon fill="#181818" points="429.05,587.28,429.8495,594.4466,436.7723,596.4651,435.9729,589.2984,429.05,587.28" style="stroke:#181818;stroke-width:1.0;"/><text fill="#000000" font-family="sans-serif" font-size="13" lengthAdjust="spacing" textLength="22" x="467" y="629.077">1..1</text></g><!--MD5=[e45c777d81417d4f5b71ba3889c26b22]
link Publisher to Publication--><g id="link_Publisher_Publication"><path codeLine="52" d="M294.8103,175.0834 C294.8103,175.0834 202.51,217.56 171,257 C156.37,275.31 148.63,300.5 144.53,321.14 " fill="none" id="Publisher-Publication" style="stroke:#181818;stroke-width:1.0;"/><polygon fill="#181818" points="142.2,333.88,147.6474,325.6748,143.0354,328.9503,139.7599,324.3382,142.2,333.88" style="stroke:#181818;stroke-width:1.0;"/><line style="stroke:#181818;stroke-width:1.0;" x1="143.0354" x2="144.375" y1="328.9503" y2="321.07"/><polygon fill="none" points="306.05,170.88,299.029,169.2351,294.8103,175.0834,301.8313,176.7283,306.05,170.88" style="stroke:#181818;stroke-width:1.0;"/><text fill="#000000" font-family="sans-serif" font-size="13" lengthAdjust="spacing" textLength="24" x="224" y="223.077">0..N</text></g><!--MD5=[8c92d9ca9822a85341496215faf02c7b]
link Publication to Article--><g id="link_Publication_Article"><path codeLine="53" d="M176.6564,391.0249 C176.6564,391.0249 232.64,438.94 262,461 C294.53,485.45 332.54,511.23 361.76,530.5 " fill="none" id="Publication-Article" style="stroke:#181818;stroke-width:1.0;"/><polygon fill="#181818" points="372.3,538.07,366.9747,529.785,368.1213,535.3244,362.5818,536.471,372.3,538.07" style="stroke:#181818;stroke-width:1.0;"/><line style="stroke:#181818;stroke-width:1.0;" x1="368.1213" x2="361.43" y1="535.3244" y2="530.935"/><polygon fill="none" points="167.55,383.21,169.4982,390.1529,176.6564,391.0249,174.7082,384.082,167.55,383.21" style="stroke:#181818;stroke-width:1.0;"/><text fill="#000000" font-family="sans-serif" font-size="13" lengthAdjust="spacing" textLength="24" x="263" y="441.577">0..N</text></g><!--MD5=[ec0bc6194014de8722040e3d7398696c]
link Publisher to Exchange--><g id="link_Publisher_Exchange"><path codeLine="54" d="M330.72,180.43 C311.2,200.94 282.82,230.78 262.21,252.45 " fill="none" id="Publisher-to-Exchange" style="stroke:#181818;stroke-width:1.0;"/><polygon fill="#181818" points="259.2,255.66,268.3116,251.9211,262.6561,252.0468,262.5304,246.3913,259.2,255.66" style="stroke:#181818;stroke-width:1.0;"/><text fill="#000000" font-family="sans-serif" font-size="13" lengthAdjust="spacing" textLength="4" x="302" y="223.077"> </text></g><!--MD5=[729fdcfc3c123fad5026eb90e74429c7]
link Exchange to Rating--><g id="link_Exchange_Rating"><path codeLine="55" d="M252.1,305.39 C270.99,332.83 302.29,378.31 322.53,407.71 " fill="none" id="Exchange-to-Rating" style="stroke:#181818;stroke-width:1.0;stroke-dasharray:7.0,7.0;"/><polygon fill="#181818" points="325.92,411.64,324.0946,401.9618,323.0777,407.5265,317.513,406.5095,325.92,411.64" style="stroke:#181818;stroke-width:1.0;"/><text fill="#000000" font-family="sans-serif" font-size="13" lengthAdjust="spacing" textLength="4" x="305" y="363.577"> </text></g><!--MD5=[d86ebcfa8ee2f4d2f8f42e7e0ec545ee]
@startuml domain-model

!define ZERO_TO_ONE 0..1
!define ZERO_TO_MANY 0..N
!define ONE_TO_ONE 1..1
!define ONE_TO_TWO 1..2
!define ONE_TO_MANY 1..N
!define EMPTY ""

!define compositionRelation(all, part, cardinality) all *- -> part: cardinality

!define associationRelation(client, server, cardinality) client - -> server: cardinality

!define aggregationRelation(whole, part, cardinality) whole o- -> part: cardinality

!define useRelation(user, used, cardinality) user ..> used: cardinality

!define inheritanceRelation(child, parent, cardinality) child <|- - parent: cardinality

enum Category {
    + TEXT_BOOKS_EDUCATIONAL_MATERIAL
    + OFFICE_SUPPLIES
    + ELECTRONICS
    + FURNITURE_AND_DECORATION
    + CLOTHING
    + LABORATORY_MATERIAL
    + MUSICAL_INSTRUMENTS
    + SPORTING_GOODS
    + ARTS_HANDICRAFTS
    + TOYS_GAMES
}

enum State {
    + NEW
    + SEMINEW
    + USED
    + LOW_QUALITY
}

enum TypeArticle {
    + PUBLISHED
    + PROPOSED
}

compositionRelation(Unimart, Publisher, ONE_TO_MANY)
compositionRelation(Unimart, Article, ONE_TO_MANY)
aggregationRelation(Publisher, Rating,  ZERO_TO_MANY)
aggregationRelation(Publisher, Article, ZERO_TO_MANY)
associationRelation(Rating, Article, EMPTY)
compositionRelation(Article, Category, ONE_TO_TWO)
compositionRelation(Article, State, ONE_TO_MANY)
compositionRelation(Article, TypeArticle, ONE_TO_ONE)
aggregationRelation(Publisher, Publication, ZERO_TO_MANY)
aggregationRelation(Publication, Article, ZERO_TO_MANY)
associationRelation(Publisher, Exchange, EMPTY)
useRelation(Exchange, Rating, EMPTY)
@enduml

@startuml domain-model







enum Category {
    + TEXT_BOOKS_EDUCATIONAL_MATERIAL
    + OFFICE_SUPPLIES
    + ELECTRONICS
    + FURNITURE_AND_DECORATION
    + CLOTHING
    + LABORATORY_MATERIAL
    + MUSICAL_INSTRUMENTS
    + SPORTING_GOODS
    + ARTS_HANDICRAFTS
    + TOYS_GAMES
}

enum State {
    + NEW
    + SEMINEW
    + USED
    + LOW_QUALITY
}

enum TypeArticle {
    + PUBLISHED
    + PROPOSED
}

Unimart *- -> Publisher: 1..N
Unimart *- -> Article: 1..N
Publisher o- -> Rating: 0..N
Publisher o- -> Article: 0..N
Rating - -> Article: ""
Article *- -> Category: 1..2
Article *- -> State: 1..N
Article *- -> TypeArticle: 1..1
Publisher o- -> Publication: 0..N
Publication o- -> Article: 0..N
Publisher - -> Exchange: ""
Exchange ..> Rating: ""
@enduml

PlantUML version 1.2022.7(Mon Aug 22 12:01:30 ECT 2022)
(GPL source distribution)
Java Runtime: OpenJDK Runtime Environment
JVM: OpenJDK 64-Bit Server VM
Default Encoding: UTF-8
Language: en
Country: null
--></g></svg>