<?xml version="1.0" encoding="UTF-8" standalone="no"?><svg xmlns="http://www.w3.org/2000/svg" xmlns:xlink="http://www.w3.org/1999/xlink" contentStyleType="text/css" height="854px" preserveAspectRatio="none" style="width:785px;height:854px;background:#FFFFFF;" version="1.1" viewBox="0 0 785 854" width="785px" zoomAndPan="magnify"><defs/><g><!--MD5=[a96594a83e2ecdc78cbf17c2ddf01934]
class Category--><g id="elem_Category"><rect codeLine="19" fill="#F1F1F1" height="215.9993" id="Category" rx="2.5" ry="2.5" style="stroke:#181818;stroke-width:0.5;" width="304" x="7" y="632"/><ellipse cx="125.75" cy="648" fill="#EB937F" rx="11" ry="11" style="stroke:#181818;stroke-width:1.0;"/><path d="M124.6094,649.0625 L125.9219,649.0625 L125.9219,649.1094 C125.9219,649.5156 125.9375,649.6719 126.0469,649.8281 C126.2188,650.0781 126.5156,650.25 126.8281,650.25 C127.1094,650.25 127.4063,650.1094 127.5781,649.8906 C127.7031,649.7031 127.75,649.5625 127.75,649.1094 L127.75,647.2656 C127.75,646.9375 127.7344,646.8281 127.6719,646.6563 C127.5625,646.3594 127.2031,646.1094 126.8281,646.1094 C126.5313,646.1094 126.2656,646.25 126.0938,646.4688 C125.9531,646.6563 125.9219,646.8281 125.9219,647.2656 L125.9219,647.3281 L124.6094,647.3281 L124.6094,645.1563 L128.4531,645.1563 L128.4531,645.9063 C128.4531,646.2969 128.4844,646.4844 128.5938,646.6406 C128.7656,646.8906 129.0625,647.0625 129.375,647.0625 C129.6719,647.0625 129.9375,646.9375 130.125,646.7031 C130.2656,646.5156 130.2969,646.375 130.2969,645.9063 L130.2969,643.4063 L122.5938,643.4063 C122.1406,643.4063 122.0156,643.4219 121.8438,643.5313 C121.5781,643.7031 121.4063,643.9688 121.4063,644.2813 C121.4063,644.5625 121.5313,644.8281 121.7813,645 C121.9688,645.125 122.1563,645.1563 122.5938,645.1563 L122.7813,645.1563 L122.7813,651.25 L122.5938,651.25 C122.1719,651.25 122.0156,651.2813 121.8438,651.375 C121.5781,651.5313 121.4063,651.8125 121.4063,652.1094 C121.4063,652.6875 121.8125,653 122.5938,653 L130.6719,653 L130.6719,650.4688 C130.6719,650.0625 130.6406,649.8906 130.5313,649.7344 C130.3594,649.4688 130.0781,649.3125 129.75,649.3125 C129.4688,649.3125 129.1875,649.4531 129,649.6719 C128.8594,649.8594 128.8281,650.0156 128.8281,650.4688 L128.8281,651.25 L124.6094,651.25 L124.6094,649.0625 Z " fill="#000000"/><text fill="#000000" font-family="sans-serif" font-size="14" lengthAdjust="spacing" textLength="58" x="146.25" y="652.606">Category</text><line style="stroke:#181818;stroke-width:0.5;" x1="8" x2="310" y1="664" y2="664"/><ellipse cx="18" cy="677.9" fill="none" rx="3" ry="3" style="stroke:#038048;stroke-width:1.0;"/><text fill="#000000" font-family="sans-serif" font-size="14" lengthAdjust="spacing" textLength="278" x="27" y="681.0059">TEXT_BOOKS_EDUCATIONAL_MATERIAL</text><ellipse cx="18" cy="694.6999" fill="none" rx="3" ry="3" style="stroke:#038048;stroke-width:1.0;"/><text fill="#000000" font-family="sans-serif" font-size="14" lengthAdjust="spacing" textLength="127" x="27" y="697.8059">OFFICE_SUPPLIES</text><ellipse cx="18" cy="711.4998" fill="none" rx="3" ry="3" style="stroke:#038048;stroke-width:1.0;"/><text fill="#000000" font-family="sans-serif" font-size="14" lengthAdjust="spacing" textLength="99" x="27" y="714.6058">ELECTRONICS</text><ellipse cx="18" cy="728.2997" fill="none" rx="3" ry="3" style="stroke:#038048;stroke-width:1.0;"/><text fill="#000000" font-family="sans-serif" font-size="14" lengthAdjust="spacing" textLength="219" x="27" y="731.4057">FURNITURE_AND_DECORATION</text><ellipse cx="18" cy="745.0997" fill="none" rx="3" ry="3" style="stroke:#038048;stroke-width:1.0;"/><text fill="#000000" font-family="sans-serif" font-size="14" lengthAdjust="spacing" textLength="73" x="27" y="748.2057">CLOTHING</text><ellipse cx="18" cy="761.8996" fill="none" rx="3" ry="3" style="stroke:#038048;stroke-width:1.0;"/><text fill="#000000" font-family="sans-serif" font-size="14" lengthAdjust="spacing" textLength="173" x="27" y="765.0056">LABORATORY_MATERIAL</text><ellipse cx="18" cy="778.6995" fill="none" rx="3" ry="3" style="stroke:#038048;stroke-width:1.0;"/><text fill="#000000" font-family="sans-serif" font-size="14" lengthAdjust="spacing" textLength="171" x="27" y="781.8055">MUSICAL_INSTRUMENTS</text><ellipse cx="18" cy="795.4995" fill="none" rx="3" ry="3" style="stroke:#038048;stroke-width:1.0;"/><text fill="#000000" font-family="sans-serif" font-size="14" lengthAdjust="spacing" textLength="133" x="27" y="798.6054">SPORTING_GOODS</text><ellipse cx="18" cy="812.2994" fill="none" rx="3" ry="3" style="stroke:#038048;stroke-width:1.0;"/><text fill="#000000" font-family="sans-serif" font-size="14" lengthAdjust="spacing" textLength="144" x="27" y="815.4054">ARTS_HANDICRAFTS</text><ellipse cx="18" cy="829.0993" fill="none" rx="3" ry="3" style="stroke:#038048;stroke-width:1.0;"/><text fill="#000000" font-family="sans-serif" font-size="14" lengthAdjust="spacing" textLength="96" x="27" y="832.2053">TOYS_GAMES</text><line style="stroke:#181818;stroke-width:0.5;" x1="8" x2="310" y1="839.9993" y2="839.9993"/></g><!--MD5=[60d6b92408f98aed8df94d5c6e04aa63]
class State--><g id="elem_State"><rect codeLine="32" fill="#F1F1F1" height="115.1997" id="State" rx="2.5" ry="2.5" style="stroke:#181818;stroke-width:0.5;" width="126" x="346" y="682.4"/><ellipse cx="388.45" cy="698.4" fill="#EB937F" rx="11" ry="11" style="stroke:#181818;stroke-width:1.0;"/><path d="M387.3094,699.4625 L388.6219,699.4625 L388.6219,699.5094 C388.6219,699.9156 388.6375,700.0719 388.7469,700.2281 C388.9188,700.4781 389.2156,700.65 389.5281,700.65 C389.8094,700.65 390.1063,700.5094 390.2781,700.2906 C390.4031,700.1031 390.45,699.9625 390.45,699.5094 L390.45,697.6656 C390.45,697.3375 390.4344,697.2281 390.3719,697.0563 C390.2625,696.7594 389.9031,696.5094 389.5281,696.5094 C389.2313,696.5094 388.9656,696.65 388.7938,696.8688 C388.6531,697.0563 388.6219,697.2281 388.6219,697.6656 L388.6219,697.7281 L387.3094,697.7281 L387.3094,695.5563 L391.1531,695.5563 L391.1531,696.3063 C391.1531,696.6969 391.1844,696.8844 391.2938,697.0406 C391.4656,697.2906 391.7625,697.4625 392.075,697.4625 C392.3719,697.4625 392.6375,697.3375 392.825,697.1031 C392.9656,696.9156 392.9969,696.775 392.9969,696.3063 L392.9969,693.8063 L385.2938,693.8063 C384.8406,693.8063 384.7156,693.8219 384.5438,693.9313 C384.2781,694.1031 384.1063,694.3688 384.1063,694.6813 C384.1063,694.9625 384.2313,695.2281 384.4813,695.4 C384.6688,695.525 384.8563,695.5563 385.2938,695.5563 L385.4813,695.5563 L385.4813,701.65 L385.2938,701.65 C384.8719,701.65 384.7156,701.6813 384.5438,701.775 C384.2781,701.9313 384.1063,702.2125 384.1063,702.5094 C384.1063,703.0875 384.5125,703.4 385.2938,703.4 L393.3719,703.4 L393.3719,700.8688 C393.3719,700.4625 393.3406,700.2906 393.2313,700.1344 C393.0594,699.8688 392.7781,699.7125 392.45,699.7125 C392.1688,699.7125 391.8875,699.8531 391.7,700.0719 C391.5594,700.2594 391.5281,700.4156 391.5281,700.8688 L391.5281,701.65 L387.3094,701.65 L387.3094,699.4625 Z " fill="#000000"/><text fill="#000000" font-family="sans-serif" font-size="14" lengthAdjust="spacing" textLength="33" x="408.55" y="703.006">State</text><line style="stroke:#181818;stroke-width:0.5;" x1="347" x2="471" y1="714.4" y2="714.4"/><ellipse cx="357" cy="728.3" fill="none" rx="3" ry="3" style="stroke:#038048;stroke-width:1.0;"/><text fill="#000000" font-family="sans-serif" font-size="14" lengthAdjust="spacing" textLength="32" x="366" y="731.4059">NEW</text><ellipse cx="357" cy="745.0999" fill="none" rx="3" ry="3" style="stroke:#038048;stroke-width:1.0;"/><text fill="#000000" font-family="sans-serif" font-size="14" lengthAdjust="spacing" textLength="66" x="366" y="748.2059">SEMINEW</text><ellipse cx="357" cy="761.8998" fill="none" rx="3" ry="3" style="stroke:#038048;stroke-width:1.0;"/><text fill="#000000" font-family="sans-serif" font-size="14" lengthAdjust="spacing" textLength="38" x="366" y="765.0058">USED</text><ellipse cx="357" cy="778.6997" fill="none" rx="3" ry="3" style="stroke:#038048;stroke-width:1.0;"/><text fill="#000000" font-family="sans-serif" font-size="14" lengthAdjust="spacing" textLength="100" x="366" y="781.8057">LOW_QUALITY</text><line style="stroke:#181818;stroke-width:0.5;" x1="347" x2="471" y1="789.5997" y2="789.5997"/></g><!--MD5=[add422631c5af2b0405616ed0a5e0935]
class TypeArticle--><g id="elem_TypeArticle"><rect codeLine="39" fill="#F1F1F1" height="81.5999" id="TypeArticle" rx="2.5" ry="2.5" style="stroke:#181818;stroke-width:0.5;" width="104" x="507" y="699.2"/><ellipse cx="522.45" cy="715.2" fill="#EB937F" rx="11" ry="11" style="stroke:#181818;stroke-width:1.0;"/><path d="M521.3094,716.2625 L522.6219,716.2625 L522.6219,716.3094 C522.6219,716.7156 522.6375,716.8719 522.7469,717.0281 C522.9188,717.2781 523.2156,717.45 523.5281,717.45 C523.8094,717.45 524.1063,717.3094 524.2781,717.0906 C524.4031,716.9031 524.45,716.7625 524.45,716.3094 L524.45,714.4656 C524.45,714.1375 524.4344,714.0281 524.3719,713.8563 C524.2625,713.5594 523.9031,713.3094 523.5281,713.3094 C523.2313,713.3094 522.9656,713.45 522.7938,713.6688 C522.6531,713.8563 522.6219,714.0281 522.6219,714.4656 L522.6219,714.5281 L521.3094,714.5281 L521.3094,712.3563 L525.1531,712.3563 L525.1531,713.1063 C525.1531,713.4969 525.1844,713.6844 525.2938,713.8406 C525.4656,714.0906 525.7625,714.2625 526.075,714.2625 C526.3719,714.2625 526.6375,714.1375 526.825,713.9031 C526.9656,713.7156 526.9969,713.575 526.9969,713.1063 L526.9969,710.6063 L519.2938,710.6063 C518.8406,710.6063 518.7156,710.6219 518.5438,710.7313 C518.2781,710.9031 518.1063,711.1688 518.1063,711.4813 C518.1063,711.7625 518.2313,712.0281 518.4813,712.2 C518.6688,712.325 518.8563,712.3563 519.2938,712.3563 L519.4813,712.3563 L519.4813,718.45 L519.2938,718.45 C518.8719,718.45 518.7156,718.4813 518.5438,718.575 C518.2781,718.7313 518.1063,719.0125 518.1063,719.3094 C518.1063,719.8875 518.5125,720.2 519.2938,720.2 L527.3719,720.2 L527.3719,717.6688 C527.3719,717.2625 527.3406,717.0906 527.2313,716.9344 C527.0594,716.6688 526.7781,716.5125 526.45,716.5125 C526.1688,716.5125 525.8875,716.6531 525.7,716.8719 C525.5594,717.0594 525.5281,717.2156 525.5281,717.6688 L525.5281,718.45 L521.3094,718.45 L521.3094,716.2625 Z " fill="#000000"/><text fill="#000000" font-family="sans-serif" font-size="14" lengthAdjust="spacing" textLength="71" x="536.55" y="719.806">TypeArticle</text><line style="stroke:#181818;stroke-width:0.5;" x1="508" x2="610" y1="731.2" y2="731.2"/><ellipse cx="518" cy="745.1" fill="none" rx="3" ry="3" style="stroke:#038048;stroke-width:1.0;"/><text fill="#000000" font-family="sans-serif" font-size="14" lengthAdjust="spacing" textLength="78" x="527" y="748.2059">PUBLISHED</text><ellipse cx="518" cy="761.8999" fill="none" rx="3" ry="3" style="stroke:#038048;stroke-width:1.0;"/><text fill="#000000" font-family="sans-serif" font-size="14" lengthAdjust="spacing" textLength="78" x="527" y="765.0059">PROPOSED</text><line style="stroke:#181818;stroke-width:0.5;" x1="508" x2="610" y1="772.7999" y2="772.7999"/></g><!--MD5=[6f2046564139e9e072de7b49b613890d]
class Unimart--><g id="elem_Unimart"><rect fill="#F1F1F1" height="48" id="Unimart" rx="2.5" ry="2.5" style="stroke:#181818;stroke-width:0.5;" width="82" x="332" y="7"/><ellipse cx="347" cy="23" fill="#ADD1B2" rx="11" ry="11" style="stroke:#181818;stroke-width:1.0;"/><path d="M342,24.1563 C342,26.6563 344.1406,28.4688 347.0625,28.4688 C348.2969,28.4688 349.4688,28.1719 350.2188,27.6563 C350.8281,27.2344 351.1563,26.8125 351.1563,26.4063 C351.1563,25.9375 350.7344,25.5313 350.2344,25.5313 C350,25.5313 349.7813,25.6094 349.5781,25.8125 C349.1406,26.25 349.1406,26.25 348.9688,26.3438 C348.5156,26.5781 347.875,26.7188 347.1094,26.7188 C345.1094,26.7188 343.8281,25.7031 343.8281,24.125 L343.8281,23.0781 C343.8281,21.375 345.0469,20.1719 346.75,20.1719 C347.3281,20.1719 347.9063,20.3125 348.375,20.5625 C348.8438,20.8281 349.0156,21.0156 349.0781,21.375 C349.2031,22.0469 349.4531,22.2969 349.9844,22.2969 C350.2656,22.2969 350.5469,22.1563 350.7344,21.9375 C350.8594,21.7656 350.9063,21.5938 350.9063,21.1563 L350.9063,19.7969 C350.9063,19.375 350.8906,19.2344 350.7656,19.0625 C350.5938,18.8125 350.3125,18.6563 349.9844,18.6563 C349.6719,18.6563 349.4688,18.7656 349.25,19.0313 C348.0781,18.5313 347.6406,18.4219 346.6875,18.4219 C344.0156,18.4219 342,20.4375 342,23.0625 L342,24.1563 Z " fill="#000000"/><text fill="#000000" font-family="sans-serif" font-size="14" lengthAdjust="spacing" textLength="50" x="361" y="27.606">Unimart</text><line style="stroke:#181818;stroke-width:0.5;" x1="333" x2="413" y1="39" y2="39"/><line style="stroke:#181818;stroke-width:0.5;" x1="333" x2="413" y1="47" y2="47"/></g><!--MD5=[3fd616f346a44cd59a91eb10b19e157c]
class User--><g id="elem_User"><rect fill="#F1F1F1" height="48" id="User" rx="2.5" ry="2.5" style="stroke:#181818;stroke-width:0.5;" width="62" x="480" y="132"/><ellipse cx="495" cy="148" fill="#ADD1B2" rx="11" ry="11" style="stroke:#181818;stroke-width:1.0;"/><path d="M490,149.1563 C490,151.6563 492.1406,153.4688 495.0625,153.4688 C496.2969,153.4688 497.4688,153.1719 498.2188,152.6563 C498.8281,152.2344 499.1563,151.8125 499.1563,151.4063 C499.1563,150.9375 498.7344,150.5313 498.2344,150.5313 C498,150.5313 497.7813,150.6094 497.5781,150.8125 C497.1406,151.25 497.1406,151.25 496.9688,151.3438 C496.5156,151.5781 495.875,151.7188 495.1094,151.7188 C493.1094,151.7188 491.8281,150.7031 491.8281,149.125 L491.8281,148.0781 C491.8281,146.375 493.0469,145.1719 494.75,145.1719 C495.3281,145.1719 495.9063,145.3125 496.375,145.5625 C496.8438,145.8281 497.0156,146.0156 497.0781,146.375 C497.2031,147.0469 497.4531,147.2969 497.9844,147.2969 C498.2656,147.2969 498.5469,147.1563 498.7344,146.9375 C498.8594,146.7656 498.9063,146.5938 498.9063,146.1563 L498.9063,144.7969 C498.9063,144.375 498.8906,144.2344 498.7656,144.0625 C498.5938,143.8125 498.3125,143.6563 497.9844,143.6563 C497.6719,143.6563 497.4688,143.7656 497.25,144.0313 C496.0781,143.5313 495.6406,143.4219 494.6875,143.4219 C492.0156,143.4219 490,145.4375 490,148.0625 L490,149.1563 Z " fill="#000000"/><text fill="#000000" font-family="sans-serif" font-size="14" lengthAdjust="spacing" textLength="30" x="509" y="152.606">User</text><line style="stroke:#181818;stroke-width:0.5;" x1="481" x2="541" y1="164" y2="164"/><line style="stroke:#181818;stroke-width:0.5;" x1="481" x2="541" y1="172" y2="172"/></g><!--MD5=[d22815ff63be9cac9a63f8d1ea27d033]
class Article--><g id="elem_Article"><rect fill="#F1F1F1" height="48" id="Article" rx="2.5" ry="2.5" style="stroke:#181818;stroke-width:0.5;" width="71" x="411.5" y="507"/><ellipse cx="426.5" cy="523" fill="#ADD1B2" rx="11" ry="11" style="stroke:#181818;stroke-width:1.0;"/><path d="M421.5,524.1563 C421.5,526.6563 423.6406,528.4688 426.5625,528.4688 C427.7969,528.4688 428.9688,528.1719 429.7188,527.6563 C430.3281,527.2344 430.6563,526.8125 430.6563,526.4063 C430.6563,525.9375 430.2344,525.5313 429.7344,525.5313 C429.5,525.5313 429.2813,525.6094 429.0781,525.8125 C428.6406,526.25 428.6406,526.25 428.4688,526.3438 C428.0156,526.5781 427.375,526.7188 426.6094,526.7188 C424.6094,526.7188 423.3281,525.7031 423.3281,524.125 L423.3281,523.0781 C423.3281,521.375 424.5469,520.1719 426.25,520.1719 C426.8281,520.1719 427.4063,520.3125 427.875,520.5625 C428.3438,520.8281 428.5156,521.0156 428.5781,521.375 C428.7031,522.0469 428.9531,522.2969 429.4844,522.2969 C429.7656,522.2969 430.0469,522.1563 430.2344,521.9375 C430.3594,521.7656 430.4063,521.5938 430.4063,521.1563 L430.4063,519.7969 C430.4063,519.375 430.3906,519.2344 430.2656,519.0625 C430.0938,518.8125 429.8125,518.6563 429.4844,518.6563 C429.1719,518.6563 428.9688,518.7656 428.75,519.0313 C427.5781,518.5313 427.1406,518.4219 426.1875,518.4219 C423.5156,518.4219 421.5,520.4375 421.5,523.0625 L421.5,524.1563 Z " fill="#000000"/><text fill="#000000" font-family="sans-serif" font-size="14" lengthAdjust="spacing" textLength="39" x="440.5" y="527.606">Article</text><line style="stroke:#181818;stroke-width:0.5;" x1="412.5" x2="481.5" y1="539" y2="539"/><line style="stroke:#181818;stroke-width:0.5;" x1="412.5" x2="481.5" y1="547" y2="547"/></g><!--MD5=[0a8a9a553ad28d76d3a1fd3918a25a86]
class Rating--><g id="elem_Rating"><rect fill="#F1F1F1" height="48" id="Rating" rx="2.5" ry="2.5" style="stroke:#181818;stroke-width:0.5;" width="73" x="476.5" y="382"/><ellipse cx="491.5" cy="398" fill="#ADD1B2" rx="11" ry="11" style="stroke:#181818;stroke-width:1.0;"/><path d="M486.5,399.1563 C486.5,401.6563 488.6406,403.4688 491.5625,403.4688 C492.7969,403.4688 493.9688,403.1719 494.7188,402.6563 C495.3281,402.2344 495.6563,401.8125 495.6563,401.4063 C495.6563,400.9375 495.2344,400.5313 494.7344,400.5313 C494.5,400.5313 494.2813,400.6094 494.0781,400.8125 C493.6406,401.25 493.6406,401.25 493.4688,401.3438 C493.0156,401.5781 492.375,401.7188 491.6094,401.7188 C489.6094,401.7188 488.3281,400.7031 488.3281,399.125 L488.3281,398.0781 C488.3281,396.375 489.5469,395.1719 491.25,395.1719 C491.8281,395.1719 492.4063,395.3125 492.875,395.5625 C493.3438,395.8281 493.5156,396.0156 493.5781,396.375 C493.7031,397.0469 493.9531,397.2969 494.4844,397.2969 C494.7656,397.2969 495.0469,397.1563 495.2344,396.9375 C495.3594,396.7656 495.4063,396.5938 495.4063,396.1563 L495.4063,394.7969 C495.4063,394.375 495.3906,394.2344 495.2656,394.0625 C495.0938,393.8125 494.8125,393.6563 494.4844,393.6563 C494.1719,393.6563 493.9688,393.7656 493.75,394.0313 C492.5781,393.5313 492.1406,393.4219 491.1875,393.4219 C488.5156,393.4219 486.5,395.4375 486.5,398.0625 L486.5,399.1563 Z " fill="#000000"/><text fill="#000000" font-family="sans-serif" font-size="14" lengthAdjust="spacing" textLength="41" x="505.5" y="402.606">Rating</text><line style="stroke:#181818;stroke-width:0.5;" x1="477.5" x2="548.5" y1="414" y2="414"/><line style="stroke:#181818;stroke-width:0.5;" x1="477.5" x2="548.5" y1="422" y2="422"/></g><!--MD5=[bfaa0cf1c94f172be725c75ad56c3fba]
class Publication--><g id="elem_Publication"><rect fill="#F1F1F1" height="48" id="Publication" rx="2.5" ry="2.5" style="stroke:#181818;stroke-width:0.5;" width="101" x="661.5" y="382"/><ellipse cx="676.5" cy="398" fill="#ADD1B2" rx="11" ry="11" style="stroke:#181818;stroke-width:1.0;"/><path d="M671.5,399.1563 C671.5,401.6563 673.6406,403.4688 676.5625,403.4688 C677.7969,403.4688 678.9688,403.1719 679.7188,402.6563 C680.3281,402.2344 680.6563,401.8125 680.6563,401.4063 C680.6563,400.9375 680.2344,400.5313 679.7344,400.5313 C679.5,400.5313 679.2813,400.6094 679.0781,400.8125 C678.6406,401.25 678.6406,401.25 678.4688,401.3438 C678.0156,401.5781 677.375,401.7188 676.6094,401.7188 C674.6094,401.7188 673.3281,400.7031 673.3281,399.125 L673.3281,398.0781 C673.3281,396.375 674.5469,395.1719 676.25,395.1719 C676.8281,395.1719 677.4063,395.3125 677.875,395.5625 C678.3438,395.8281 678.5156,396.0156 678.5781,396.375 C678.7031,397.0469 678.9531,397.2969 679.4844,397.2969 C679.7656,397.2969 680.0469,397.1563 680.2344,396.9375 C680.3594,396.7656 680.4063,396.5938 680.4063,396.1563 L680.4063,394.7969 C680.4063,394.375 680.3906,394.2344 680.2656,394.0625 C680.0938,393.8125 679.8125,393.6563 679.4844,393.6563 C679.1719,393.6563 678.9688,393.7656 678.75,394.0313 C677.5781,393.5313 677.1406,393.4219 676.1875,393.4219 C673.5156,393.4219 671.5,395.4375 671.5,398.0625 L671.5,399.1563 Z " fill="#000000"/><text fill="#000000" font-family="sans-serif" font-size="14" lengthAdjust="spacing" textLength="69" x="690.5" y="402.606">Publication</text><line style="stroke:#181818;stroke-width:0.5;" x1="662.5" x2="761.5" y1="414" y2="414"/><line style="stroke:#181818;stroke-width:0.5;" x1="662.5" x2="761.5" y1="422" y2="422"/></g><!--MD5=[bf02c7effb67abfc9618efe21901996e]
class Exchange--><g id="elem_Exchange"><rect fill="#F1F1F1" height="48" id="Exchange" rx="2.5" ry="2.5" style="stroke:#181818;stroke-width:0.5;" width="95" x="571.5" y="257"/><ellipse cx="586.5" cy="273" fill="#ADD1B2" rx="11" ry="11" style="stroke:#181818;stroke-width:1.0;"/><path d="M581.5,274.1563 C581.5,276.6563 583.6406,278.4688 586.5625,278.4688 C587.7969,278.4688 588.9688,278.1719 589.7188,277.6563 C590.3281,277.2344 590.6563,276.8125 590.6563,276.4063 C590.6563,275.9375 590.2344,275.5313 589.7344,275.5313 C589.5,275.5313 589.2813,275.6094 589.0781,275.8125 C588.6406,276.25 588.6406,276.25 588.4688,276.3438 C588.0156,276.5781 587.375,276.7188 586.6094,276.7188 C584.6094,276.7188 583.3281,275.7031 583.3281,274.125 L583.3281,273.0781 C583.3281,271.375 584.5469,270.1719 586.25,270.1719 C586.8281,270.1719 587.4063,270.3125 587.875,270.5625 C588.3438,270.8281 588.5156,271.0156 588.5781,271.375 C588.7031,272.0469 588.9531,272.2969 589.4844,272.2969 C589.7656,272.2969 590.0469,272.1563 590.2344,271.9375 C590.3594,271.7656 590.4063,271.5938 590.4063,271.1563 L590.4063,269.7969 C590.4063,269.375 590.3906,269.2344 590.2656,269.0625 C590.0938,268.8125 589.8125,268.6563 589.4844,268.6563 C589.1719,268.6563 588.9688,268.7656 588.75,269.0313 C587.5781,268.5313 587.1406,268.4219 586.1875,268.4219 C583.5156,268.4219 581.5,270.4375 581.5,273.0625 L581.5,274.1563 Z " fill="#000000"/><text fill="#000000" font-family="sans-serif" font-size="14" lengthAdjust="spacing" textLength="63" x="600.5" y="277.606">Exchange</text><line style="stroke:#181818;stroke-width:0.5;" x1="572.5" x2="665.5" y1="289" y2="289"/><line style="stroke:#181818;stroke-width:0.5;" x1="572.5" x2="665.5" y1="297" y2="297"/></g><!--MD5=[60e5d46d442b247cd90446ba8b950fb1]
class ProposedArticle--><g id="elem_ProposedArticle"><rect fill="#F1F1F1" height="48" id="ProposedArticle" rx="2.5" ry="2.5" style="stroke:#181818;stroke-width:0.5;" width="132" x="646" y="716"/><ellipse cx="661" cy="732" fill="#ADD1B2" rx="11" ry="11" style="stroke:#181818;stroke-width:1.0;"/><path d="M656,733.1563 C656,735.6563 658.1406,737.4688 661.0625,737.4688 C662.2969,737.4688 663.4688,737.1719 664.2188,736.6563 C664.8281,736.2344 665.1563,735.8125 665.1563,735.4063 C665.1563,734.9375 664.7344,734.5313 664.2344,734.5313 C664,734.5313 663.7813,734.6094 663.5781,734.8125 C663.1406,735.25 663.1406,735.25 662.9688,735.3438 C662.5156,735.5781 661.875,735.7188 661.1094,735.7188 C659.1094,735.7188 657.8281,734.7031 657.8281,733.125 L657.8281,732.0781 C657.8281,730.375 659.0469,729.1719 660.75,729.1719 C661.3281,729.1719 661.9063,729.3125 662.375,729.5625 C662.8438,729.8281 663.0156,730.0156 663.0781,730.375 C663.2031,731.0469 663.4531,731.2969 663.9844,731.2969 C664.2656,731.2969 664.5469,731.1563 664.7344,730.9375 C664.8594,730.7656 664.9063,730.5938 664.9063,730.1563 L664.9063,728.7969 C664.9063,728.375 664.8906,728.2344 664.7656,728.0625 C664.5938,727.8125 664.3125,727.6563 663.9844,727.6563 C663.6719,727.6563 663.4688,727.7656 663.25,728.0313 C662.0781,727.5313 661.6406,727.4219 660.6875,727.4219 C658.0156,727.4219 656,729.4375 656,732.0625 L656,733.1563 Z " fill="#000000"/><text fill="#000000" font-family="sans-serif" font-size="14" lengthAdjust="spacing" textLength="100" x="675" y="736.606">ProposedArticle</text><line style="stroke:#181818;stroke-width:0.5;" x1="647" x2="777" y1="748" y2="748"/><line style="stroke:#181818;stroke-width:0.5;" x1="647" x2="777" y1="756" y2="756"/></g><!--MD5=[0e8032a8bf858b2e5950726bb564c8b8]
link Unimart to User--><g id="link_Unimart_User"><path codeLine="44" d="M409.2394,64.413 C409.2394,64.413 454.49,104.63 474.53,122.49 " fill="none" id="Unimart-User" style="stroke:#181818;stroke-width:1.0;"/><polygon fill="#181818" points="483.82,130.66,479.7688,121.6829,480.0896,127.3307,474.4419,127.6515,483.82,130.66" style="stroke:#181818;stroke-width:1.0;"/><line style="stroke:#181818;stroke-width:1.0;" x1="480.0896" x2="474.11" y1="127.3307" y2="122.015"/><polygon fill="#181818" points="400.28,56.43,402.0987,63.408,409.2394,64.413,407.4207,57.435,400.28,56.43" style="stroke:#181818;stroke-width:1.0;"/><text fill="#000000" font-family="sans-serif" font-size="13" lengthAdjust="spacing" textLength="24" x="451" y="98.077">1..N</text></g><!--MD5=[5263a51c2e5dc5a2b2460947a7609584]
link Unimart to Article--><g id="link_Unimart_Article"><path codeLine="45" d="M360.3571,67.5881 C360.3571,67.5881 344,125.29 344,155 C344,155 344,155 344,407 C344,444.82 372.98,477.13 400.2,499.13 " fill="none" id="Unimart-Article" style="stroke:#181818;stroke-width:1.0;"/><polygon fill="#181818" points="410.26,507.62,405.5548,498.9678,406.2932,504.5762,400.6848,505.3146,410.26,507.62" style="stroke:#181818;stroke-width:1.0;"/><line style="stroke:#181818;stroke-width:1.0;" x1="406.2932" x2="399.95" y1="504.5762" y2="499.71"/><polygon fill="#181818" points="364.14,56.2,358.4525,60.6331,360.3571,67.5881,366.0446,63.155,364.14,56.2" style="stroke:#181818;stroke-width:1.0;"/><text fill="#000000" font-family="sans-serif" font-size="13" lengthAdjust="spacing" textLength="24" x="345" y="285.577">1..N</text></g><!--MD5=[6ffaeddf716681d54321ecac38e62c49]
link User to Rating--><g id="link_User_Rating"><path codeLine="46" d="M511.2955,193.3295 C511.2955,193.3295 512.32,320.68 512.7,367.57 " fill="none" id="User-Rating" style="stroke:#181818;stroke-width:1.0;"/><polygon fill="#181818" points="512.81,380.55,516.7307,371.5152,512.766,375.5502,508.731,371.5855,512.81,380.55" style="stroke:#181818;stroke-width:1.0;"/><line style="stroke:#181818;stroke-width:1.0;" x1="512.766" x2="512.71" y1="375.5502" y2="367.55"/><polygon fill="none" points="511.19,181.33,507.2429,187.3649,511.2955,193.3295,515.2426,187.2946,511.19,181.33" style="stroke:#181818;stroke-width:1.0;"/><text fill="#000000" font-family="sans-serif" font-size="13" lengthAdjust="spacing" textLength="24" x="513" y="285.577">0..N</text></g><!--MD5=[a00ece9d0c4cd37035e31785d42481d2]
link User to Article--><g id="link_User_Article"><path codeLine="47" d="M501.2259,193.0053 C501.2259,193.0053 469.41,314.94 459,382 C453.17,419.54 450.08,462.91 448.5,492.96 " fill="none" id="User-Article" style="stroke:#181818;stroke-width:1.0;"/><polygon fill="#181818" points="447.84,505.55,452.2705,496.7539,448.0817,500.5558,444.2798,496.3671,447.84,505.55" style="stroke:#181818;stroke-width:1.0;"/><line style="stroke:#181818;stroke-width:1.0;" x1="448.0817" x2="448.475" y1="500.5558" y2="492.57"/><polygon fill="none" points="504.39,181.43,498.9495,186.163,501.2259,193.0053,506.6664,188.2724,504.39,181.43" style="stroke:#181818;stroke-width:1.0;"/><text fill="#000000" font-family="sans-serif" font-size="13" lengthAdjust="spacing" textLength="24" x="468" y="348.077">0..N</text></g><!--MD5=[23de110018dc2de8b93f8e1b5684f9d4]
link User to Publication--><g id="link_User_Publication"><path codeLine="48" d="M554.7907,170.1501 C554.7907,170.1501 652.79,212.99 684,257 C707.09,289.56 712.6,335.9 713.28,368.02 " fill="none" id="User-Publication" style="stroke:#181818;stroke-width:1.0;"/><polygon fill="#181818" points="713.31,380.67,717.3001,371.6656,713.3045,375.67,709.3001,371.6744,713.31,380.67" style="stroke:#181818;stroke-width:1.0;"/><line style="stroke:#181818;stroke-width:1.0;" x1="713.3045" x2="713.28" y1="375.67" y2="367.675"/><polygon fill="none" points="543.47,166.17,547.8037,171.9336,554.7907,170.1501,550.4571,164.3864,543.47,166.17" style="stroke:#181818;stroke-width:1.0;"/><text fill="#000000" font-family="sans-serif" font-size="13" lengthAdjust="spacing" textLength="24" x="706" y="285.577">0..N</text></g><!--MD5=[caf9c051e1d2a2625ae7985590f3d294]
link User to Exchange--><g id="link_User_Exchange"><path codeLine="49" d="M531.57,180.43 C549.51,200.86 575.57,230.54 594.57,252.17 " fill="none" id="User-to-Exchange" style="stroke:#181818;stroke-width:1.0;"/><polygon fill="#181818" points="598.51,255.66,595.5761,246.2583,595.2104,251.9033,589.5654,251.5376,598.51,255.66" style="stroke:#181818;stroke-width:1.0;"/><text fill="#000000" font-family="sans-serif" font-size="13" lengthAdjust="spacing" textLength="4" x="572" y="223.077"> </text></g><!--MD5=[729fdcfc3c123fad5026eb90e74429c7]
link Exchange to Rating--><g id="link_Exchange_Rating"><path codeLine="50" d="M598.81,305.43 C581.2,325.86 555.63,355.54 536.98,377.17 " fill="none" id="Exchange-to-Rating" style="stroke:#181818;stroke-width:1.0;stroke-dasharray:7.0,7.0;"/><polygon fill="#181818" points="533.11,380.66,542.0211,376.4657,536.3792,376.8768,535.9681,371.235,533.11,380.66" style="stroke:#181818;stroke-width:1.0;"/><text fill="#000000" font-family="sans-serif" font-size="13" lengthAdjust="spacing" textLength="4" x="573" y="348.077"> </text></g><!--MD5=[8894fd5c6b9c8947ca8c2d924e7bbe3c]
link Rating to Article--><g id="link_Rating_Article"><path codeLine="51" d="M500.43,430.43 C489.56,450.69 473.81,480.04 462.22,501.63 " fill="none" id="Rating-to-Article" style="stroke:#181818;stroke-width:1.0;"/><polygon fill="#181818" points="459.52,505.66,467.2878,499.6051,461.8752,501.2494,460.2308,495.8368,459.52,505.66" style="stroke:#181818;stroke-width:1.0;"/><text fill="#000000" font-family="sans-serif" font-size="13" lengthAdjust="spacing" textLength="4" x="484" y="473.077"> </text></g><!--MD5=[dc12fa9f566c235847c0541154c32b99]
link Article to Category--><g id="link_Article_Category"><path codeLine="52" d="M403.7748,562.3423 C403.7748,562.3423 350.21,601.57 319.24,623.83 " fill="none" id="Article-Category" style="stroke:#181818;stroke-width:1.0;"/><polygon fill="#181818" points="309.25,631.73,318.893,629.7267,313.3105,628.8124,314.2248,623.2299,309.25,631.73" style="stroke:#181818;stroke-width:1.0;"/><line style="stroke:#181818;stroke-width:1.0;" x1="313.3105" x2="319.805" y1="628.8124" y2="624.145"/><polygon fill="#181818" points="413.52,555.34,406.3133,555.5927,403.7748,562.3423,410.9815,562.0895,413.52,555.34" style="stroke:#181818;stroke-width:1.0;"/><text fill="#000000" font-family="sans-serif" font-size="13" lengthAdjust="spacing" textLength="22" x="371" y="598.077">1..2</text></g><!--MD5=[9e75ce7792125e19ac83890694df328c]
link Article to State--><g id="link_Article_State"><path codeLine="53" d="M440.5471,568.1435 C440.5471,568.1435 428.07,635.13 421.91,668.69 " fill="none" id="Article-State" style="stroke:#181818;stroke-width:1.0;"/><polygon fill="#181818" points="419.42,681.22,424.9766,673.0884,420.3212,676.3019,417.1077,671.6464,419.42,681.22" style="stroke:#181818;stroke-width:1.0;"/><line style="stroke:#181818;stroke-width:1.0;" x1="420.3212" x2="421.775" y1="676.3019" y2="668.43"/><polygon fill="#181818" points="442.71,556.34,437.6941,561.5208,440.5471,568.1435,445.5631,562.9627,442.71,556.34" style="stroke:#181818;stroke-width:1.0;"/><text fill="#000000" font-family="sans-serif" font-size="13" lengthAdjust="spacing" textLength="22" x="437" y="598.077">1..1</text></g><!--MD5=[61be412feae72c12eb28c5fd0e4e635d]
link Article to TypeArticle--><g id="link_Article_TypeArticle"><path codeLine="54" d="M465.3365,566.8963 C465.3365,566.8963 510.42,649.22 530.62,686.55 " fill="none" id="Article-TypeArticle" style="stroke:#181818;stroke-width:1.0;"/><polygon fill="#181818" points="537.2,697.72,536.4338,687.901,534.82,693.3228,529.3982,691.709,537.2,697.72" style="stroke:#181818;stroke-width:1.0;"/><line style="stroke:#181818;stroke-width:1.0;" x1="534.82" x2="531.02" y1="693.3228" y2="686.285"/><polygon fill="#181818" points="459.63,556.34,458.9645,563.5203,465.3365,566.8963,466.002,559.716,459.63,556.34" style="stroke:#181818;stroke-width:1.0;"/><text fill="#000000" font-family="sans-serif" font-size="13" lengthAdjust="spacing" textLength="22" x="484" y="598.077">1..1</text></g><!--MD5=[361764f21853043c4fad10f99ed86394]
reverse link Article to ProposedArticle--><g id="link_Article_ProposedArticle"><path codeLine="55" d="M502.03,555.3 C539.89,572.95 589.99,599.66 628,632 C656.96,656.64 682.72,692.61 697.85,715.91 " fill="none" id="Article-backto-ProposedArticle" style="stroke:#181818;stroke-width:1.0;"/><polygon fill="none" points="499.3,561.29,483.95,546.68,505.06,548.54,499.3,561.29" style="stroke:#181818;stroke-width:1.0;"/><text fill="#000000" font-family="sans-serif" font-size="13" lengthAdjust="spacing" textLength="4" x="588" y="598.077"> </text></g><!--MD5=[f76d5359097dcf2025006f9d00dfcc70]
link Publication to ProposedArticle--><g id="link_Publication_ProposedArticle"><path codeLine="56" d="M712,443.35 C712,443.35 712,638.25 712,702.04 " fill="none" id="Publication-ProposedArticle" style="stroke:#181818;stroke-width:1.0;"/><polygon fill="#181818" points="712,714.68,716,705.68,712,709.68,708,705.68,712,714.68" style="stroke:#181818;stroke-width:1.0;"/><line style="stroke:#181818;stroke-width:1.0;" x1="712" x2="712" y1="709.68" y2="701.68"/><polygon fill="none" points="712,431.35,708,437.35,712,443.35,716,437.35,712,431.35" style="stroke:#181818;stroke-width:1.0;"/><text fill="#000000" font-family="sans-serif" font-size="13" lengthAdjust="spacing" textLength="24" x="713" y="535.577">0..N</text></g><!--MD5=[8c92d9ca9822a85341496215faf02c7b]
link Publication to Article--><g id="link_Publication_Article"><path codeLine="57" d="M649.6484,435.4888 C649.6484,435.4888 538.45,487.56 495.28,507.59 " fill="none" id="Publication-Article" style="stroke:#181818;stroke-width:1.0;"/><polygon fill="#181818" points="483.85,513.36,493.6976,513.2029,488.3861,511.2567,490.3323,505.9452,483.85,513.36" style="stroke:#181818;stroke-width:1.0;"/><line style="stroke:#181818;stroke-width:1.0;" x1="488.3861" x2="495.635" y1="511.2567" y2="507.89"/><polygon fill="#181818" points="660.53,430.43,653.403,429.3322,649.6484,435.4888,656.7755,436.5866,660.53,430.43" style="stroke:#181818;stroke-width:1.0;"/><text fill="#000000" font-family="sans-serif" font-size="13" lengthAdjust="spacing" textLength="22" x="596" y="473.077">1..1</text></g><!--MD5=[954b89aca6c7e094639f29fa884b9307]
@startuml domain-model

!define ZERO_TO_ONE 0..1
!define ZERO_TO_MANY 0..N
!define ONE_TO_ONE 1..1
!define ONE_TO_TWO 1..2
!define ONE_TO_MANY 1..N
!define EMPTY ""

!define compositionRelation(all, part, cardinality) all *- -> part: cardinality

!define associationRelation(client, server, cardinality) client - -> server: cardinality

!define aggregationRelation(whole, part, cardinality) whole o- -> part: cardinality

!define useRelation(user, used, cardinality) user ..> used: cardinality

!define inheritanceRelation(child, parent, cardinality) child <|- - parent: cardinality

enum Category {
    + TEXT_BOOKS_EDUCATIONAL_MATERIAL
    + OFFICE_SUPPLIES
    + ELECTRONICS
    + FURNITURE_AND_DECORATION
    + CLOTHING
    + LABORATORY_MATERIAL
    + MUSICAL_INSTRUMENTS
    + SPORTING_GOODS
    + ARTS_HANDICRAFTS
    + TOYS_GAMES
}

enum State {
    + NEW
    + SEMINEW
    + USED
    + LOW_QUALITY
}

enum TypeArticle {
    + PUBLISHED
    + PROPOSED
}

compositionRelation(Unimart, User, ONE_TO_MANY)
compositionRelation(Unimart, Article, ONE_TO_MANY)
aggregationRelation(User, Rating,  ZERO_TO_MANY)
aggregationRelation(User, Article, ZERO_TO_MANY)
aggregationRelation(User, Publication, ZERO_TO_MANY)
associationRelation(User, Exchange, EMPTY)
useRelation(Exchange, Rating, EMPTY)
associationRelation(Rating, Article, EMPTY)
compositionRelation(Article, Category, ONE_TO_TWO)
compositionRelation(Article, State, ONE_TO_ONE)
compositionRelation(Article, TypeArticle, ONE_TO_ONE)
inheritanceRelation(Article, ProposedArticle, EMPTY)
aggregationRelation(Publication, ProposedArticle, ZERO_TO_MANY)
compositionRelation(Publication, Article, ONE_TO_ONE)
@enduml

@startuml domain-model







enum Category {
    + TEXT_BOOKS_EDUCATIONAL_MATERIAL
    + OFFICE_SUPPLIES
    + ELECTRONICS
    + FURNITURE_AND_DECORATION
    + CLOTHING
    + LABORATORY_MATERIAL
    + MUSICAL_INSTRUMENTS
    + SPORTING_GOODS
    + ARTS_HANDICRAFTS
    + TOYS_GAMES
}

enum State {
    + NEW
    + SEMINEW
    + USED
    + LOW_QUALITY
}

enum TypeArticle {
    + PUBLISHED
    + PROPOSED
}

Unimart *- -> User: 1..N
Unimart *- -> Article: 1..N
User o- -> Rating: 0..N
User o- -> Article: 0..N
User o- -> Publication: 0..N
User - -> Exchange: ""
Exchange ..> Rating: ""
Rating - -> Article: ""
Article *- -> Category: 1..2
Article *- -> State: 1..1
Article *- -> TypeArticle: 1..1
Article <|- - ProposedArticle: ""
Publication o- -> ProposedArticle: 0..N
Publication *- -> Article: 1..1
@enduml

PlantUML version 1.2022.7(Mon Aug 22 12:01:30 ECT 2022)
(GPL source distribution)
Java Runtime: OpenJDK Runtime Environment
JVM: OpenJDK 64-Bit Server VM
Default Encoding: UTF-8
Language: en
Country: null
--></g></svg>