<?xml version="1.0" encoding="UTF-8" standalone="no"?><svg xmlns="http://www.w3.org/2000/svg" xmlns:xlink="http://www.w3.org/1999/xlink" contentStyleType="text/css" height="951px" preserveAspectRatio="none" style="width:485px;height:951px;background:#FFFFFF;" version="1.1" viewBox="0 0 485 951" width="485px" zoomAndPan="magnify"><defs/><g><g id="AUTENTICACION"><rect fill="#F1F1F1" height="50" rx="12.5" ry="12.5" style="stroke:#181818;stroke-width:0.5;" width="134" x="172.5" y="87"/><line style="stroke:#181818;stroke-width:0.5;" x1="172.5" x2="306.5" y1="113.7999" y2="113.7999"/><text fill="#000000" font-family="sans-serif" font-size="14" lengthAdjust="spacing" textLength="114" x="182.5" y="105.0059">AUTENTICACION</text></g><g id="UNIMART_ABIERTO"><rect fill="#F1F1F1" height="50" rx="12.5" ry="12.5" style="stroke:#181818;stroke-width:0.5;" width="153" x="163" y="814.8"/><line style="stroke:#181818;stroke-width:0.5;" x1="163" x2="316" y1="841.5999" y2="841.5999"/><text fill="#000000" font-family="sans-serif" font-size="14" lengthAdjust="spacing" textLength="133" x="173" y="832.8059">UNIMART_ABIERTO</text></g><ellipse cx="239.5" cy="16" fill="#222222" rx="10" ry="10" style="stroke:none;stroke-width:1.0;"/><ellipse cx="239.5" cy="935.8" fill="none" rx="10" ry="10" style="stroke:#222222;stroke-width:1.0;"/><ellipse cx="240" cy="936.3" fill="#222222" rx="6" ry="6" style="stroke:none;stroke-width:1.0;"/><path d="M19.5,248 L459.5,248 A12.5,12.5 0 0 1 472,260.5 L472,274.7999 L7,274.7999 L7,260.5 A12.5,12.5 0 0 1 19.5,248 " fill="#F1F1F1" style="stroke:#F1F1F1;stroke-width:1.0;"/><rect fill="none" height="505.7999" rx="12.5" ry="12.5" style="stroke:#181818;stroke-width:0.5;" width="465" x="7" y="248"/><line style="stroke:#181818;stroke-width:0.5;" x1="7" x2="472" y1="274.7999" y2="274.7999"/><text fill="#000000" font-family="sans-serif" font-size="14" lengthAdjust="spacing" textLength="107" x="186" y="266.0059">INCIAR_SESION</text><g id="INCIAR_SESION.1"><rect fill="#F1F1F1" height="50" rx="12.5" ry="12.5" style="stroke:#181818;stroke-width:0.5;" width="50" x="102" y="342.7999"/><line style="stroke:#181818;stroke-width:0.5;" x1="102" x2="152" y1="369.5999" y2="369.5999"/><text fill="#000000" font-family="sans-serif" font-size="14" lengthAdjust="spacing" textLength="4" x="125" y="360.8059"> </text></g><g id="elem_conditional"><polygon fill="#F1F1F1" points="127,662.7999,139,674.7999,127,686.7999,115,674.7999,127,662.7999" style="stroke:#181818;stroke-width:0.5;"/></g><g id="INCIAR_SESION.2"><rect fill="#F1F1F1" height="50" rx="12.5" ry="12.5" style="stroke:#181818;stroke-width:0.5;" width="50" x="19" y="502.7999"/><line style="stroke:#181818;stroke-width:0.5;" x1="19" x2="69" y1="529.5999" y2="529.5999"/><text fill="#000000" font-family="sans-serif" font-size="14" lengthAdjust="spacing" textLength="4" x="42" y="520.8059"> </text></g><ellipse cx="127" cy="295.7999" fill="#222222" rx="10" ry="10" style="stroke:none;stroke-width:1.0;"/><ellipse cx="127" cy="733.7999" fill="none" rx="10" ry="10" style="stroke:#222222;stroke-width:1.0;"/><ellipse cx="127.5" cy="734.2999" fill="#222222" rx="6" ry="6" style="stroke:none;stroke-width:1.0;"/><!--MD5=[fac78a5eb36d5d70e9f21a2a2ce733fb]
link *start*INCIAR_SESION to 1--><g id="link_*start*INCIAR_SESION_1"><path d="M127,306.2399 C127,314.0499 127,325.5899 127,336.5099 " fill="none" id="*start*INCIAR_SESION-to-1" style="stroke:#181818;stroke-width:1.0;"/><polygon fill="#181818" points="127,341.4799,131,332.4799,127,336.4799,123,332.4799,127,341.4799" style="stroke:#181818;stroke-width:1.0;"/></g><!--MD5=[0ba0d8a0fd0e641c23f69743a446dfe6]
link 1 to 2--><g id="link_1_2"><path d="M101.78,374.2799 C82.55,379.9099 57.35,390.7899 45,410.7999 C29.13,436.4999 31.52,471.8999 36.21,496.8199 " fill="none" id="1-to-2" style="stroke:#181818;stroke-width:1.0;"/><polygon fill="#181818" points="37.37,501.5999,39.5165,491.9878,36.3839,496.6981,31.6736,493.5655,37.37,501.5999" style="stroke:#181818;stroke-width:1.0;"/><path d="M50,415.7999 L50,471.7999 L192,471.7999 L192,425.7999 L182,415.7999 L50,415.7999 " fill="#FEFFDD" style="stroke:#181818;stroke-width:0.5;"/><path d="M182,415.7999 L182,425.7999 L192,425.7999 L182,415.7999 " fill="#FEFFDD" style="stroke:#181818;stroke-width:0.5;"/><text fill="#000000" font-family="sans-serif" font-size="13" font-weight="bold" lengthAdjust="spacing" textLength="118" x="56" y="432.8769">El sistema solicita:</text><ellipse cx="61.5" cy="444.5" fill="#000000" rx="2.5" ry="2.5" style="stroke:#000000;stroke-width:0.0;"/><text fill="#000000" font-family="sans-serif" font-size="13" lengthAdjust="spacing" textLength="109" x="68" y="448.477">Nombre de usuario</text><ellipse cx="61.5" cy="460.1" fill="#000000" rx="2.5" ry="2.5" style="stroke:#000000;stroke-width:0.0;"/><text fill="#000000" font-family="sans-serif" font-size="13" lengthAdjust="spacing" textLength="66" x="68" y="464.077">Contraseña</text></g><!--MD5=[67cc5fa11e614c2e37a5a979af3caf7f]
link 2 to conditional--><g id="link_2_conditional"><path d="M36.75,553.0199 C30.74,578.3599 25.93,618.0799 45,644.7999 C59.72,665.4299 90.38,671.4699 109.76,673.1899 " fill="none" id="2-to-conditional" style="stroke:#181818;stroke-width:1.0;"/><polygon fill="#181818" points="114.62,673.6099,105.9288,668.9771,109.6328,673.2527,105.3572,676.9567,114.62,673.6099" style="stroke:#181818;stroke-width:1.0;"/><path d="M50,583.7999 L50,639.7999 L192,639.7999 L192,593.7999 L182,583.7999 L50,583.7999 " fill="#FEFFDD" style="stroke:#181818;stroke-width:0.5;"/><path d="M182,583.7999 L182,593.7999 L192,593.7999 L182,583.7999 " fill="#FEFFDD" style="stroke:#181818;stroke-width:0.5;"/><text fill="#000000" font-family="sans-serif" font-size="13" font-weight="bold" lengthAdjust="spacing" textLength="102" x="56" y="600.8769">Usuario ingresa:</text><ellipse cx="61.5" cy="612.5" fill="#000000" rx="2.5" ry="2.5" style="stroke:#000000;stroke-width:0.0;"/><text fill="#000000" font-family="sans-serif" font-size="13" lengthAdjust="spacing" textLength="109" x="68" y="616.477">Nombre de usuario</text><ellipse cx="61.5" cy="628.1" fill="#000000" rx="2.5" ry="2.5" style="stroke:#000000;stroke-width:0.0;"/><text fill="#000000" font-family="sans-serif" font-size="13" lengthAdjust="spacing" textLength="66" x="68" y="632.077">Contraseña</text></g><!--MD5=[5bea8c8e80e703b94ef9f48923061f5a]
link conditional to 1--><g id="link_conditional_1"><path d="M137.57,672.9499 C153.6,671.0299 183.63,664.8199 197,644.7999 C254.78,558.3299 248.24,501.2999 197,410.7999 C188.54,395.8599 172.42,385.6599 157.77,379.0499 " fill="none" id="conditional-to-1" style="stroke:#FF0000;stroke-width:1.0;"/><polygon fill="#FF0000" points="153.46,376.7799,160.1485,384.0093,158.0535,378.7547,163.3081,376.6597,153.46,376.7799" style="stroke:#FF0000;stroke-width:1.0;"/><path d="M242,499.7999 L242,555.7999 L463,555.7999 L463,509.7999 L453,499.7999 L242,499.7999 " fill="#FEFFDD" style="stroke:#181818;stroke-width:0.5;"/><path d="M453,499.7999 L453,509.7999 L463,509.7999 L453,499.7999 " fill="#FEFFDD" style="stroke:#181818;stroke-width:0.5;"/><text fill="#000000" font-family="sans-serif" font-size="13" font-weight="bold" lengthAdjust="spacing" textLength="157" x="248" y="516.8769">El sistema muestra error:</text><ellipse cx="253.5" cy="528.5" fill="#000000" rx="2.5" ry="2.5" style="stroke:#000000;stroke-width:0.0;"/><text fill="#000000" font-family="sans-serif" font-size="13" lengthAdjust="spacing" textLength="188" x="260" y="532.477">Nombre de usuario es incorrecto</text><ellipse cx="253.5" cy="544.1" fill="#000000" rx="2.5" ry="2.5" style="stroke:#000000;stroke-width:0.0;"/><text fill="#000000" font-family="sans-serif" font-size="13" lengthAdjust="spacing" textLength="145" x="260" y="548.077">Contraseña es incorrecta</text></g><!--MD5=[5937620d5a5aff18a307e8875adb6c9c]
link conditional to *end*INCIAR_SESION--><g id="link_conditional_*end*INCIAR_SESION"><path d="M127,687.3299 C127,696.0899 127,708.1999 127,717.7199 " fill="none" id="conditional-to-*end*INCIAR_SESION" style="stroke:#181818;stroke-width:1.0;"/><polygon fill="#181818" points="127,722.5399,131,713.5399,127,717.5399,123,713.5399,127,722.5399" style="stroke:#181818;stroke-width:1.0;"/></g><!--MD5=[3fc6abdfd258461f43c0ef6c9877ce87]
link *start to AUTENTICACION--><g id="link_*start_AUTENTICACION"><path d="M239.5,26.36 C239.5,38.98 239.5,62.07 239.5,80.94 " fill="none" id="*start-to-AUTENTICACION" style="stroke:#181818;stroke-width:1.0;"/><polygon fill="#181818" points="239.5,85.65,243.5,76.65,239.5,80.65,235.5,76.65,239.5,85.65" style="stroke:#181818;stroke-width:1.0;"/></g><!--MD5=[7b2b50647ffbf75be448655c16d51e0a]
link AUTENTICACION to INCIAR_SESION--><g id="link_AUTENTICACION_INCIAR_SESION"><path d="M239.5,137.5 C239.5,160.94 239.5,199.01 239.5,241.85 " fill="none" id="AUTENTICACION-to-INCIAR_SESION" style="stroke:#181818;stroke-width:1.0;"/><polygon fill="#181818" points="239.5,246.65,243.5,237.65,239.5,241.65,235.5,237.65,239.5,246.65" style="stroke:#181818;stroke-width:1.0;"/><path d="M244.5,172 L244.5,213 L366.5,213 L366.5,182 L356.5,172 L244.5,172 " fill="#FEFFDD" style="stroke:#181818;stroke-width:0.5;"/><path d="M356.5,172 L356.5,182 L366.5,182 L356.5,172 " fill="#FEFFDD" style="stroke:#181818;stroke-width:0.5;"/><text fill="#000000" font-family="sans-serif" font-size="13" font-weight="bold" lengthAdjust="spacing" textLength="101" x="250.5" y="189.077">Usuario solicita:</text><ellipse cx="256" cy="200.7" fill="#000000" rx="2.5" ry="2.5" style="stroke:#000000;stroke-width:0.0;"/><text fill="#000000" font-family="sans-serif" font-size="13" lengthAdjust="spacing" textLength="74" x="262.5" y="204.677">Inicar sesión</text></g><!--MD5=[c874d16dcbbc2d2262abcb43f65d0215]
link INCIAR_SESION to UNIMART_ABIERTO--><g id="link_INCIAR_SESION_UNIMART_ABIERTO"><path d="M239.5,754.22 C239.5,775.28 239.5,794 239.5,808.43 " fill="none" id="INCIAR_SESION-to-UNIMART_ABIERTO" style="stroke:#181818;stroke-width:1.0;"/><polygon fill="#181818" points="239.5,813.35,243.5,804.35,239.5,808.35,235.5,804.35,239.5,813.35" style="stroke:#181818;stroke-width:1.0;"/></g><!--MD5=[d50b662183113fad7a97dc3b1442aaa2]
link UNIMART_ABIERTO to *end--><g id="link_UNIMART_ABIERTO_*end"><path d="M239.5,865.01 C239.5,882.33 239.5,905.11 239.5,919.85 " fill="none" id="UNIMART_ABIERTO-to-*end" style="stroke:#181818;stroke-width:1.0;"/><polygon fill="#181818" points="239.5,924.64,243.5,915.64,239.5,919.64,235.5,915.64,239.5,924.64" style="stroke:#181818;stroke-width:1.0;"/></g><!--MD5=[b23b0ece5c1d8abe3f5a9bece08d8a8e]
@startuml authentication
state AUTENTICACION
state INCIAR_SESION
state UNIMART_ABIERTO

[*] - -> AUTENTICACION
AUTENTICACION - -> INCIAR_SESION
note on link
<b>Usuario solicita:</b>
* Inicar sesión
end note

state INCIAR_SESION {

    state 1 as " "
    state conditional <<choice>>
    state 2 as " "

    [*] - -> 1

    1 - -> 2
    note on link
    <b>El sistema solicita:</b>
    * Nombre de usuario
    * Contraseña
    end note

    2 - -> conditional
    note on link
    <b>Usuario ingresa:</b>
    * Nombre de usuario
    * Contraseña
    end note

    conditional -[#red]-> 1
    note on link
    <b>El sistema muestra error:</b>
    * Nombre de usuario es incorrecto
    * Contraseña es incorrecta
    end note                  

    conditional - -> [*]
}

INCIAR_SESION - -> UNIMART_ABIERTO
UNIMART_ABIERTO - -> [*]
@enduml

PlantUML version 1.2022.7(Mon Aug 22 12:01:30 ECT 2022)
(GPL source distribution)
Java Runtime: OpenJDK Runtime Environment
JVM: OpenJDK 64-Bit Server VM
Default Encoding: UTF-8
Language: en
Country: null
--></g></svg>