<?xml version="1.0" encoding="UTF-8" standalone="no"?><svg xmlns="http://www.w3.org/2000/svg" xmlns:xlink="http://www.w3.org/1999/xlink" contentStyleType="text/css" height="2359px" preserveAspectRatio="none" style="width:856px;height:2359px;background:#FFFFFF;" version="1.1" viewBox="0 0 856 2359" width="856px" zoomAndPan="magnify"><defs/><g><ellipse cx="544.18" cy="16" fill="#222222" rx="10" ry="10" style="stroke:none;stroke-width:1.0;"/><g id="INTERACCION_CONTENIDO"><rect fill="#F1F1F1" height="50" rx="12.5" ry="12.5" style="stroke:#181818;stroke-width:0.5;" width="208" x="440.18" y="86"/><line style="stroke:#181818;stroke-width:0.5;" x1="440.18" x2="648.18" y1="112.7999" y2="112.7999"/><text fill="#000000" font-family="sans-serif" font-size="14" lengthAdjust="spacing" textLength="188" x="450.18" y="104.0059">INTERACCION_CONTENIDO</text></g><g id="elem_union"><polygon fill="#F1F1F1" points="264.18,920.2,276.18,932.2,264.18,944.2,252.18,932.2,264.18,920.2" style="stroke:#181818;stroke-width:0.5;"/></g><g id="elem_finished"><polygon fill="#F1F1F1" points="574.18,2249.4,586.18,2261.4,574.18,2273.4,562.18,2261.4,574.18,2249.4" style="stroke:#181818;stroke-width:0.5;"/></g><ellipse cx="574.18" cy="2343.4" fill="none" rx="10" ry="10" style="stroke:#222222;stroke-width:1.0;"/><ellipse cx="574.68" cy="2343.9" fill="#222222" rx="6" ry="6" style="stroke:none;stroke-width:1.0;"/><path d="M69.18,196 L295.18,196 A12.5,12.5 0 0 1 307.68,208.5 L307.68,222.7999 L56.68,222.7999 L56.68,208.5 A12.5,12.5 0 0 1 69.18,196 " fill="#F1F1F1" style="stroke:#F1F1F1;stroke-width:1.0;"/><rect fill="none" height="363.7999" rx="12.5" ry="12.5" style="stroke:#181818;stroke-width:0.5;" width="251" x="56.68" y="196"/><line style="stroke:#181818;stroke-width:0.5;" x1="56.68" x2="307.68" y1="222.7999" y2="222.7999"/><text fill="#000000" font-family="sans-serif" font-size="14" lengthAdjust="spacing" textLength="147" x="108.68" y="214.0059">FILTRAR_ARTICULOS</text><g id="FILTRAR_ARTICULOS.FAS1"><rect fill="#F1F1F1" height="50" rx="12.5" ry="12.5" style="stroke:#181818;stroke-width:0.5;" width="50" x="68.68" y="290.7999"/><line style="stroke:#181818;stroke-width:0.5;" x1="68.68" x2="118.68" y1="317.5999" y2="317.5999"/><text fill="#000000" font-family="sans-serif" font-size="14" lengthAdjust="spacing" textLength="4" x="91.68" y="308.8059"> </text></g><g id="FILTRAR_ARTICULOS.FAS2"><rect fill="#F1F1F1" height="50" rx="12.5" ry="12.5" style="stroke:#181818;stroke-width:0.5;" width="50" x="68.68" y="442.7999"/><line style="stroke:#181818;stroke-width:0.5;" x1="68.68" x2="118.68" y1="469.5999" y2="469.5999"/><text fill="#000000" font-family="sans-serif" font-size="14" lengthAdjust="spacing" textLength="4" x="91.68" y="460.8059"> </text></g><ellipse cx="93.68" cy="243.7999" fill="#222222" rx="10" ry="10" style="stroke:none;stroke-width:1.0;"/><ellipse cx="93.68" cy="539.7999" fill="none" rx="10" ry="10" style="stroke:#222222;stroke-width:1.0;"/><ellipse cx="94.18" cy="540.2999" fill="#222222" rx="6" ry="6" style="stroke:none;stroke-width:1.0;"/><!--MD5=[72ef07b723e68b8391e924caaba7466d]
link *start*FILTRAR_ARTICULOS to FAS1--><g id="link_*start*FILTRAR_ARTICULOS_FAS1"><path d="M93.68,254.2399 C93.68,262.0499 93.68,273.5899 93.68,284.5099 " fill="none" id="*start*FILTRAR_ARTICULOS-to-FAS1" style="stroke:#181818;stroke-width:1.0;"/><polygon fill="#181818" points="93.68,289.4799,97.68,280.4799,93.68,284.4799,89.68,280.4799,93.68,289.4799" style="stroke:#181818;stroke-width:1.0;"/></g><!--MD5=[97cd2d726abaf3677049e1eda7b10f2e]
link FAS1 to FAS2--><g id="link_FAS1_FAS2"><path d="M93.68,341.2299 C93.68,367.2799 93.68,408.5399 93.68,436.5999 " fill="none" id="FAS1-to-FAS2" style="stroke:#181818;stroke-width:1.0;"/><polygon fill="#181818" points="93.68,441.3799,97.68,432.3799,93.68,436.3799,89.68,432.3799,93.68,441.3799" style="stroke:#181818;stroke-width:1.0;"/><path d="M98.68,363.7999 L98.68,419.7999 L298.68,419.7999 L298.68,373.7999 L288.68,363.7999 L98.68,363.7999 " fill="#FEFFDD" style="stroke:#181818;stroke-width:0.5;"/><path d="M288.68,363.7999 L288.68,373.7999 L298.68,373.7999 L288.68,363.7999 " fill="#FEFFDD" style="stroke:#181818;stroke-width:0.5;"/><text fill="#000000" font-family="sans-serif" font-size="13" font-weight="bold" lengthAdjust="spacing" textLength="120" x="108.68" y="380.8769">El sistema permite:</text><ellipse cx="110.18" cy="392.5" fill="#000000" rx="2.5" ry="2.5" style="stroke:#000000;stroke-width:0.0;"/><text fill="#000000" font-family="sans-serif" font-size="13" lengthAdjust="spacing" textLength="167" x="116.68" y="396.477">Filtrar artículos por categoría</text><ellipse cx="110.18" cy="408.1" fill="#000000" rx="2.5" ry="2.5" style="stroke:#000000;stroke-width:0.0;"/><text fill="#000000" font-family="sans-serif" font-size="13" lengthAdjust="spacing" textLength="152" x="116.68" y="412.077">Filtrar artículos por estado</text></g><!--MD5=[55ea214e6b124f3dc709134df740febe]
link FAS2 to *end*FILTRAR_ARTICULOS--><g id="link_FAS2_*end*FILTRAR_ARTICULOS"><path d="M93.68,493.2799 C93.68,503.3099 93.68,514.5999 93.68,523.4299 " fill="none" id="FAS2-to-*end*FILTRAR_ARTICULOS" style="stroke:#181818;stroke-width:1.0;"/><polygon fill="#181818" points="93.68,528.3699,97.68,519.3699,93.68,523.3699,89.68,519.3699,93.68,528.3699" style="stroke:#181818;stroke-width:1.0;"/></g><path d="M354.68,203.5 L563.68,203.5 A12.5,12.5 0 0 1 576.18,216 L576.18,230.2999 L342.18,230.2999 L342.18,216 A12.5,12.5 0 0 1 354.68,203.5 " fill="#F1F1F1" style="stroke:#F1F1F1;stroke-width:1.0;"/><rect fill="none" height="348.7999" rx="12.5" ry="12.5" style="stroke:#181818;stroke-width:0.5;" width="234" x="342.18" y="203.5"/><line style="stroke:#181818;stroke-width:0.5;" x1="342.18" x2="576.18" y1="230.2999" y2="230.2999"/><text fill="#000000" font-family="sans-serif" font-size="14" lengthAdjust="spacing" textLength="136" x="391.18" y="221.5059">BUSCAR_ARTICULO</text><g id="BUSCAR_ARTICULO.S1"><rect fill="#F1F1F1" height="50" rx="12.5" ry="12.5" style="stroke:#181818;stroke-width:0.5;" width="50" x="354.18" y="298.2999"/><line style="stroke:#181818;stroke-width:0.5;" x1="354.18" x2="404.18" y1="325.0999" y2="325.0999"/><text fill="#000000" font-family="sans-serif" font-size="14" lengthAdjust="spacing" textLength="4" x="377.18" y="316.3059"> </text></g><g id="BUSCAR_ARTICULO.S2"><rect fill="#F1F1F1" height="50" rx="12.5" ry="12.5" style="stroke:#181818;stroke-width:0.5;" width="50" x="354.18" y="435.2999"/><line style="stroke:#181818;stroke-width:0.5;" x1="354.18" x2="404.18" y1="462.0999" y2="462.0999"/><text fill="#000000" font-family="sans-serif" font-size="14" lengthAdjust="spacing" textLength="4" x="377.18" y="453.3059"> </text></g><ellipse cx="379.18" cy="251.2999" fill="#222222" rx="10" ry="10" style="stroke:none;stroke-width:1.0;"/><ellipse cx="379.18" cy="532.2999" fill="none" rx="10" ry="10" style="stroke:#222222;stroke-width:1.0;"/><ellipse cx="379.68" cy="532.7999" fill="#222222" rx="6" ry="6" style="stroke:none;stroke-width:1.0;"/><!--MD5=[839ded39f535b68b5aa1dabd6b57955b]
link *start*BUSCAR_ARTICULO to S1--><g id="link_*start*BUSCAR_ARTICULO_S1"><path d="M379.18,261.7399 C379.18,269.5499 379.18,281.0899 379.18,292.0099 " fill="none" id="*start*BUSCAR_ARTICULO-to-S1" style="stroke:#181818;stroke-width:1.0;"/><polygon fill="#181818" points="379.18,296.9799,383.18,287.9799,379.18,291.9799,375.18,287.9799,379.18,296.9799" style="stroke:#181818;stroke-width:1.0;"/></g><!--MD5=[15cb110786dd224ca6a510a3d2a24e20]
link S1 to S2--><g id="link_S1_S2"><path d="M379.18,348.7499 C379.18,371.2999 379.18,404.8599 379.18,429.0899 " fill="none" id="S1-to-S2" style="stroke:#181818;stroke-width:1.0;"/><polygon fill="#181818" points="379.18,434.0299,383.18,425.0299,379.18,429.0299,375.18,425.0299,379.18,434.0299" style="stroke:#181818;stroke-width:1.0;"/><path d="M384.18,371.2999 L384.18,412.2999 L567.18,412.2999 L567.18,381.2999 L557.18,371.2999 L384.18,371.2999 " fill="#FEFFDD" style="stroke:#181818;stroke-width:0.5;"/><path d="M557.18,371.2999 L557.18,381.2999 L567.18,381.2999 L557.18,371.2999 " fill="#FEFFDD" style="stroke:#181818;stroke-width:0.5;"/><text fill="#000000" font-family="sans-serif" font-size="13" font-weight="bold" lengthAdjust="spacing" textLength="120" x="394.18" y="388.3769">El sistema permite:</text><ellipse cx="395.68" cy="400" fill="#000000" rx="2.5" ry="2.5" style="stroke:#000000;stroke-width:0.0;"/><text fill="#000000" font-family="sans-serif" font-size="13" lengthAdjust="spacing" textLength="150" x="402.18" y="403.977">Buscar artículos por título</text></g><!--MD5=[cee37586c7f6dff73a01d3460f55b67e]
link S2 to *end*BUSCAR_ARTICULO--><g id="link_S2_*end*BUSCAR_ARTICULO"><path d="M379.18,485.7799 C379.18,495.8099 379.18,507.0999 379.18,515.9299 " fill="none" id="S2-to-*end*BUSCAR_ARTICULO" style="stroke:#181818;stroke-width:1.0;"/><polygon fill="#181818" points="379.18,520.8699,383.18,511.8699,379.18,515.8699,375.18,511.8699,379.18,520.8699" style="stroke:#181818;stroke-width:1.0;"/></g><path d="M19.5,1304.6 L508.86,1304.6 A12.5,12.5 0 0 1 521.36,1317.1 L521.36,1331.3999 L7,1331.3999 L7,1317.1 A12.5,12.5 0 0 1 19.5,1304.6 " fill="#F1F1F1" style="stroke:#F1F1F1;stroke-width:1.0;"/><rect fill="none" height="884.7999" rx="12.5" ry="12.5" style="stroke:#181818;stroke-width:0.5;" width="514.36" x="7" y="1304.6"/><line style="stroke:#181818;stroke-width:0.5;" x1="7" x2="521.36" y1="1331.3999" y2="1331.3999"/><text fill="#000000" font-family="sans-serif" font-size="14" lengthAdjust="spacing" textLength="107" x="210.68" y="1322.6059">VER_ARTICULO</text><g id="VER_ARTICULO.VAS1"><rect fill="#F1F1F1" height="50" rx="12.5" ry="12.5" style="stroke:#181818;stroke-width:0.5;" width="50" x="301.36" y="1399.3999"/><line style="stroke:#181818;stroke-width:0.5;" x1="301.36" x2="351.36" y1="1426.1999" y2="1426.1999"/><text fill="#000000" font-family="sans-serif" font-size="14" lengthAdjust="spacing" textLength="4" x="324.36" y="1417.4059"> </text></g><g id="VER_ARTICULO.VAS2"><rect fill="#F1F1F1" height="50" rx="12.5" ry="12.5" style="stroke:#181818;stroke-width:0.5;" width="50" x="301.36" y="1645.3999"/><line style="stroke:#181818;stroke-width:0.5;" x1="301.36" x2="351.36" y1="1672.1999" y2="1672.1999"/><text fill="#000000" font-family="sans-serif" font-size="14" lengthAdjust="spacing" textLength="4" x="324.36" y="1663.4059"> </text></g><g id="VER_ARTICULO.VAS3"><rect fill="#F1F1F1" height="50" rx="12.5" ry="12.5" style="stroke:#181818;stroke-width:0.5;" width="50" x="201.36" y="1843.3999"/><line style="stroke:#181818;stroke-width:0.5;" x1="201.36" x2="251.36" y1="1870.1999" y2="1870.1999"/><text fill="#000000" font-family="sans-serif" font-size="14" lengthAdjust="spacing" textLength="4" x="224.36" y="1861.4059"> </text></g><g id="VER_ARTICULO.VAS4"><rect fill="#F1F1F1" height="50" rx="12.5" ry="12.5" style="stroke:#181818;stroke-width:0.5;" width="50" x="75.36" y="2003.3999"/><line style="stroke:#181818;stroke-width:0.5;" x1="75.36" x2="125.36" y1="2030.1999" y2="2030.1999"/><text fill="#000000" font-family="sans-serif" font-size="14" lengthAdjust="spacing" textLength="4" x="98.36" y="2021.4059"> </text></g><ellipse cx="326.36" cy="1352.3999" fill="#222222" rx="10" ry="10" style="stroke:none;stroke-width:1.0;"/><g id="elem_checkPublications"><polygon fill="#F1F1F1" points="226.36,2098.3999,238.36,2110.3999,226.36,2122.3999,214.36,2110.3999,226.36,2098.3999" style="stroke:#181818;stroke-width:0.5;"/></g><g id="elem_addProposedOrNot"><polygon fill="#F1F1F1" points="326.36,1782.3999,338.36,1794.3999,326.36,1806.3999,314.36,1794.3999,326.36,1782.3999" style="stroke:#181818;stroke-width:0.5;"/></g><ellipse cx="326.36" cy="2169.3999" fill="none" rx="10" ry="10" style="stroke:#222222;stroke-width:1.0;"/><ellipse cx="326.86" cy="2169.8999" fill="#222222" rx="6" ry="6" style="stroke:none;stroke-width:1.0;"/><!--MD5=[51c5f30b741a38a24e5ea3f8a0069f87]
link *start*VER_ARTICULO to VAS1--><g id="link_*start*VER_ARTICULO_VAS1"><path d="M326.36,1362.8399 C326.36,1370.6499 326.36,1382.1899 326.36,1393.1099 " fill="none" id="*start*VER_ARTICULO-to-VAS1" style="stroke:#181818;stroke-width:1.0;"/><polygon fill="#181818" points="326.36,1398.0799,330.36,1389.0799,326.36,1393.0799,322.36,1389.0799,326.36,1398.0799" style="stroke:#181818;stroke-width:1.0;"/></g><!--MD5=[111951ded6a91918e8cbb9f4975ec94f]
link VAS1 to VAS2--><g id="link_VAS1_VAS2"><path d="M326.36,1449.6899 C326.36,1494.6299 326.36,1590.6299 326.36,1639.4899 " fill="none" id="VAS1-to-VAS2" style="stroke:#181818;stroke-width:1.0;"/><polygon fill="#181818" points="326.36,1644.2099,330.36,1635.2099,326.36,1639.2099,322.36,1635.2099,326.36,1644.2099" style="stroke:#181818;stroke-width:1.0;"/><path d="M331.36,1472.3999 L331.36,1622.3999 L512.36,1622.3999 L512.36,1482.3999 L502.36,1472.3999 L331.36,1472.3999 " fill="#FEFFDD" style="stroke:#181818;stroke-width:0.5;"/><path d="M502.36,1472.3999 L502.36,1482.3999 L512.36,1482.3999 L502.36,1472.3999 " fill="#FEFFDD" style="stroke:#181818;stroke-width:0.5;"/><text fill="#000000" font-family="sans-serif" font-size="13" font-weight="bold" lengthAdjust="spacing" textLength="123" x="341.36" y="1489.4769">El sistema muestra:</text><ellipse cx="342.86" cy="1501.1" fill="#000000" rx="2.5" ry="2.5" style="stroke:#000000;stroke-width:0.0;"/><text fill="#000000" font-family="sans-serif" font-size="13" lengthAdjust="spacing" textLength="137" x="349.36" y="1505.077">Ver detalles del artículo</text><text fill="#000000" font-family="sans-serif" font-size="13" lengthAdjust="spacing" textLength="38" x="353.36" y="1520.677">* título</text><text fill="#000000" font-family="sans-serif" font-size="13" lengthAdjust="spacing" textLength="75" x="353.36" y="1536.277">* descripción</text><text fill="#000000" font-family="sans-serif" font-size="13" lengthAdjust="spacing" textLength="128" x="353.36" y="1551.877">* fecha de publicación</text><text fill="#000000" font-family="sans-serif" font-size="13" lengthAdjust="spacing" textLength="144" x="353.36" y="1567.477">* cantidad de propuestas</text><text fill="#000000" font-family="sans-serif" font-size="13" lengthAdjust="spacing" textLength="68" x="353.36" y="1583.077">* publicador</text><text fill="#000000" font-family="sans-serif" font-size="13" lengthAdjust="spacing" textLength="48" x="353.36" y="1598.677">* galería</text><text fill="#000000" font-family="sans-serif" font-size="13" lengthAdjust="spacing" textLength="106" x="353.36" y="1614.277">* proponer artículo</text></g><!--MD5=[422b278bead86a0a726f7de80c3a03d0]
link VAS2 to addProposedOrNot--><g id="link_VAS2_addProposedOrNot"><path d="M326.36,1695.7999 C326.36,1719.5899 326.36,1755.1799 326.36,1776.1699 " fill="none" id="VAS2-to-addProposedOrNot" style="stroke:#181818;stroke-width:1.0;"/><polygon fill="#181818" points="326.36,1780.9299,330.36,1771.9299,326.36,1775.9299,322.36,1771.9299,326.36,1780.9299" style="stroke:#181818;stroke-width:1.0;"/><path d="M331.36,1718.3999 L331.36,1759.3999 L476.36,1759.3999 L476.36,1728.3999 L466.36,1718.3999 L331.36,1718.3999 " fill="#FEFFDD" style="stroke:#181818;stroke-width:0.5;"/><path d="M466.36,1718.3999 L466.36,1728.3999 L476.36,1728.3999 L466.36,1718.3999 " fill="#FEFFDD" style="stroke:#181818;stroke-width:0.5;"/><text fill="#000000" font-family="sans-serif" font-size="13" font-weight="bold" lengthAdjust="spacing" textLength="120" x="341.36" y="1735.4769">El sistema permite:</text><ellipse cx="342.86" cy="1747.1" fill="#000000" rx="2.5" ry="2.5" style="stroke:#000000;stroke-width:0.0;"/><text fill="#000000" font-family="sans-serif" font-size="13" lengthAdjust="spacing" textLength="99" x="349.36" y="1751.077">Proponer artículo</text></g><!--MD5=[75eb162e1160e6227194784c3dca2154]
link addProposedOrNot to VAS3--><g id="link_addProposedOrNot_VAS3"><path d="M319.8,1800.1199 C307.15,1809.2399 278.65,1829.7599 256.43,1845.7499 " fill="none" id="addProposedOrNot-to-VAS3" style="stroke:#181818;stroke-width:1.0;"/><polygon fill="#181818" points="252.79,1849.0899,262.4333,1847.0881,256.8509,1846.1729,257.7661,1840.5906,252.79,1849.0899" style="stroke:#181818;stroke-width:1.0;"/></g><!--MD5=[8d4fc3973aaabc636a146740184e9be7]
link VAS3 to VAS4--><g id="link_VAS3_VAS4"><path d="M201.22,1871.1599 C154.4,1875.0199 56.78,1885.9799 36.36,1911.3999 C18,1934.2699 23.51,1951.0399 36.36,1977.3999 C43.46,1991.9399 57.05,2003.4999 69.9,2011.8199 " fill="none" id="VAS3-to-VAS4" style="stroke:#181818;stroke-width:1.0;"/><polygon fill="#181818" points="73.95,2014.9599,68.4134,2006.8146,69.702,2012.3228,64.1939,2013.6114,73.95,2014.9599" style="stroke:#181818;stroke-width:1.0;"/><path d="M41.36,1916.3999 L41.36,1972.3999 L207.36,1972.3999 L207.36,1926.3999 L197.36,1916.3999 L41.36,1916.3999 " fill="#FEFFDD" style="stroke:#181818;stroke-width:0.5;"/><path d="M197.36,1916.3999 L197.36,1926.3999 L207.36,1926.3999 L197.36,1916.3999 " fill="#FEFFDD" style="stroke:#181818;stroke-width:0.5;"/><text fill="#000000" font-family="sans-serif" font-size="13" font-weight="bold" lengthAdjust="spacing" textLength="120" x="51.36" y="1933.4769">El sistema permite:</text><ellipse cx="52.86" cy="1945.1" fill="#000000" rx="2.5" ry="2.5" style="stroke:#000000;stroke-width:0.0;"/><text fill="#000000" font-family="sans-serif" font-size="13" lengthAdjust="spacing" textLength="133" x="59.36" y="1949.077">Seleccionar un artículo</text><text fill="#000000" font-family="sans-serif" font-size="13" lengthAdjust="spacing" textLength="138" x="51.36" y="1964.677">publicado para proponer</text></g><!--MD5=[8d9b01a40a38890737d61fffd15df191]
link VAS4 to checkPublications--><g id="link_VAS4_checkPublications"><path d="M125.86,2045.5899 C152.79,2062.6899 194.1,2088.9199 214.34,2101.7699 " fill="none" id="VAS4-to-checkPublications" style="stroke:#181818;stroke-width:1.0;"/><polygon fill="#181818" points="218.24,2104.8799,212.7999,2096.6698,214.0235,2102.1928,208.5005,2103.4163,218.24,2104.8799" style="stroke:#181818;stroke-width:1.0;"/></g><!--MD5=[93af6a209771d0749734d51af34957b8]
link checkPublications to VAS3--><g id="link_checkPublications_VAS3"><path d="M226.36,2097.7499 C226.36,2062.0099 226.36,1953.1199 226.36,1899.6599 " fill="none" id="checkPublications-to-VAS3" style="stroke:#FF0000;stroke-width:1.0;"/><polygon fill="#FF0000" points="226.36,1894.7299,222.36,1903.7299,226.36,1899.7299,230.36,1903.7299,226.36,1894.7299" style="stroke:#FF0000;stroke-width:1.0;"/><path d="M231.36,2000.3999 L231.36,2056.3999 L394.36,2056.3999 L394.36,2010.3999 L384.36,2000.3999 L231.36,2000.3999 " fill="#FEFFDD" style="stroke:#181818;stroke-width:0.5;"/><path d="M384.36,2000.3999 L384.36,2010.3999 L394.36,2010.3999 L384.36,2000.3999 " fill="#FEFFDD" style="stroke:#181818;stroke-width:0.5;"/><text fill="#000000" font-family="sans-serif" font-size="13" font-weight="bold" lengthAdjust="spacing" textLength="124" x="241.36" y="2017.4769">El sistema requiere:</text><ellipse cx="242.86" cy="2029.1" fill="#000000" rx="2.5" ry="2.5" style="stroke:#000000;stroke-width:0.0;"/><text fill="#000000" font-family="sans-serif" font-size="13" lengthAdjust="spacing" textLength="98" x="249.36" y="2033.077">Tener un artículo</text><text fill="#000000" font-family="sans-serif" font-size="13" lengthAdjust="spacing" textLength="138" x="241.36" y="2048.677">publicado para proponer</text></g><!--MD5=[525ab424af85ff6c5d3828d3ca7538d6]
link checkPublications to *end*VER_ARTICULO--><g id="link_checkPublications_*end*VER_ARTICULO"><path d="M233.56,2115.4999 C250.15,2124.9599 291.35,2148.4399 312.83,2160.6899 " fill="none" id="checkPublications-to-*end*VER_ARTICULO" style="stroke:#181818;stroke-width:1.0;"/><polygon fill="#181818" points="316.85,2163.5399,311.0063,2155.6121,312.5044,2161.0669,307.0495,2162.565,316.85,2163.5399" style="stroke:#181818;stroke-width:1.0;"/></g><!--MD5=[06fff3e091884b5f5d1645356dc81014]
link addProposedOrNot to *end*VER_ARTICULO--><g id="link_addProposedOrNot_*end*VER_ARTICULO"><path d="M336.05,1797.3999 C361.33,1803.2599 427.36,1822.8199 427.36,1867.3999 C427.36,1867.3999 427.36,1867.3999 427.36,2111.3999 C427.36,2149.9599 370.84,2162.7299 342.36,2166.7099 " fill="none" id="addProposedOrNot-to-*end*VER_ARTICULO" style="stroke:#181818;stroke-width:1.0;"/><polygon fill="#181818" points="337.42,2167.4699,346.8517,2170.306,342.3803,2166.841,345.8453,2162.3696,337.42,2167.4699" style="stroke:#181818;stroke-width:1.0;"/></g><path d="M356.33,619.8 L724.02,619.8 A12.5,12.5 0 0 1 736.52,632.3 L736.52,646.5999 L343.83,646.5999 L343.83,632.3 A12.5,12.5 0 0 1 356.33,619.8 " fill="#F1F1F1" style="stroke:#F1F1F1;stroke-width:1.0;"/><rect fill="none" height="624.7999" rx="12.5" ry="12.5" style="stroke:#181818;stroke-width:0.5;" width="392.69" x="343.83" y="619.8"/><line style="stroke:#181818;stroke-width:0.5;" x1="343.83" x2="736.52" y1="646.5999" y2="646.5999"/><text fill="#000000" font-family="sans-serif" font-size="14" lengthAdjust="spacing" textLength="184" x="448.175" y="637.8059">INTERCAMBIAR_ARTICULO</text><g id="INTERCAMBIAR_ARTICULO.EAS1"><rect fill="#F1F1F1" height="50" rx="12.5" ry="12.5" style="stroke:#181818;stroke-width:0.5;" width="50" x="446.52" y="714.5999"/><line style="stroke:#181818;stroke-width:0.5;" x1="446.52" x2="496.52" y1="741.3999" y2="741.3999"/><text fill="#000000" font-family="sans-serif" font-size="14" lengthAdjust="spacing" textLength="4" x="469.52" y="732.6059"> </text></g><g id="INTERCAMBIAR_ARTICULO.EAS2"><rect fill="#F1F1F1" height="50" rx="12.5" ry="12.5" style="stroke:#181818;stroke-width:0.5;" width="50" x="446.52" y="898.5999"/><line style="stroke:#181818;stroke-width:0.5;" x1="446.52" x2="496.52" y1="925.3999" y2="925.3999"/><text fill="#000000" font-family="sans-serif" font-size="14" lengthAdjust="spacing" textLength="4" x="469.52" y="916.6059"> </text></g><g id="INTERCAMBIAR_ARTICULO.EAS3"><rect fill="#F1F1F1" height="50" rx="12.5" ry="12.5" style="stroke:#181818;stroke-width:0.5;" width="50" x="412.52" y="1127.5999"/><line style="stroke:#181818;stroke-width:0.5;" x1="412.52" x2="462.52" y1="1154.3999" y2="1154.3999"/><text fill="#000000" font-family="sans-serif" font-size="14" lengthAdjust="spacing" textLength="4" x="435.52" y="1145.6059"> </text></g><g id="INTERCAMBIAR_ARTICULO.EAS4"><rect fill="#F1F1F1" height="50" rx="12.5" ry="12.5" style="stroke:#181818;stroke-width:0.5;" width="50" x="511.52" y="1127.5999"/><line style="stroke:#181818;stroke-width:0.5;" x1="511.52" x2="561.52" y1="1154.3999" y2="1154.3999"/><text fill="#000000" font-family="sans-serif" font-size="14" lengthAdjust="spacing" textLength="4" x="534.52" y="1145.6059"> </text></g><ellipse cx="471.52" cy="667.5999" fill="#222222" rx="10" ry="10" style="stroke:none;stroke-width:1.0;"/><g id="elem_ratingOrDiscard"><polygon fill="#F1F1F1" points="471.52,985.5999,483.52,997.5999,471.52,1009.5999,459.52,997.5999,471.52,985.5999" style="stroke:#181818;stroke-width:0.5;"/></g><ellipse cx="470.52" cy="1224.5999" fill="none" rx="10" ry="10" style="stroke:#222222;stroke-width:1.0;"/><ellipse cx="471.02" cy="1225.0999" fill="#222222" rx="6" ry="6" style="stroke:none;stroke-width:1.0;"/><!--MD5=[48d1a958468968f23e49ea275a76a166]
link *start*INTERCAMBIAR_ARTICULO to EAS1--><g id="link_*start*INTERCAMBIAR_ARTICULO_EAS1"><path d="M471.52,678.0399 C471.52,685.8499 471.52,697.3899 471.52,708.3099 " fill="none" id="*start*INTERCAMBIAR_ARTICULO-to-EAS1" style="stroke:#181818;stroke-width:1.0;"/><polygon fill="#181818" points="471.52,713.2799,475.52,704.2799,471.52,708.2799,467.52,704.2799,471.52,713.2799" style="stroke:#181818;stroke-width:1.0;"/></g><!--MD5=[d91aafdcaa29025ba6a58f6cb7e88a45]
link EAS1 to EAS2--><g id="link_EAS1_EAS2"><path d="M471.52,764.7699 C471.52,797.6699 471.52,856.5699 471.52,892.3599 " fill="none" id="EAS1-to-EAS2" style="stroke:#181818;stroke-width:1.0;"/><polygon fill="#181818" points="471.52,897.3299,475.52,888.3299,471.52,892.3299,467.52,888.3299,471.52,897.3299" style="stroke:#181818;stroke-width:1.0;"/><path d="M476.52,787.5999 L476.52,875.5999 L647.52,875.5999 L647.52,797.5999 L637.52,787.5999 L476.52,787.5999 " fill="#FEFFDD" style="stroke:#181818;stroke-width:0.5;"/><path d="M637.52,787.5999 L637.52,797.5999 L647.52,797.5999 L637.52,787.5999 " fill="#FEFFDD" style="stroke:#181818;stroke-width:0.5;"/><text fill="#000000" font-family="sans-serif" font-size="13" font-weight="bold" lengthAdjust="spacing" textLength="123" x="486.52" y="804.6769">El sistema muestra:</text><ellipse cx="488.02" cy="816.3" fill="#000000" rx="2.5" ry="2.5" style="stroke:#000000;stroke-width:0.0;"/><text fill="#000000" font-family="sans-serif" font-size="13" lengthAdjust="spacing" textLength="138" x="494.52" y="820.277">Listado de intercambios</text><text fill="#000000" font-family="sans-serif" font-size="13" lengthAdjust="spacing" textLength="60" x="498.52" y="835.877">aceptados</text><ellipse cx="488.02" cy="847.5" fill="#000000" rx="2.5" ry="2.5" style="stroke:#000000;stroke-width:0.0;"/><text fill="#000000" font-family="sans-serif" font-size="13" lengthAdjust="spacing" textLength="118" x="494.52" y="851.477">Calificar intercambio</text><ellipse cx="488.02" cy="863.1" fill="#000000" rx="2.5" ry="2.5" style="stroke:#000000;stroke-width:0.0;"/><text fill="#000000" font-family="sans-serif" font-size="13" lengthAdjust="spacing" textLength="127" x="494.52" y="867.077">Descartar intercambio</text></g><!--MD5=[ffdd7cc3d4fee806c405b4e7e2fc6b19]
link EAS2 to ratingOrDiscard--><g id="link_EAS2_ratingOrDiscard"><path d="M471.52,948.9799 C471.52,958.9199 471.52,970.1899 471.52,979.2699 " fill="none" id="EAS2-to-ratingOrDiscard" style="stroke:#181818;stroke-width:1.0;"/><polygon fill="#181818" points="471.52,984.1599,475.52,975.1599,471.52,979.1599,467.52,975.1599,471.52,984.1599" style="stroke:#181818;stroke-width:1.0;"/></g><!--MD5=[71147ffd87189a928e4dc6762ec665f6]
link ratingOrDiscard to EAS4--><g id="link_ratingOrDiscard_EAS4"><path d="M482.53,999.1599 C499.6,1000.6999 531.99,1006.4099 546.52,1027.5999 C565.44,1055.2099 557.79,1094.8299 548.8,1121.8099 " fill="none" id="ratingOrDiscard-to-EAS4" style="stroke:#181818;stroke-width:1.0;"/><polygon fill="#181818" points="546.87,1126.3599,553.5894,1119.1593,548.5026,1121.634,546.0279,1116.5471,546.87,1126.3599" style="stroke:#181818;stroke-width:1.0;"/><path d="M562.52,1032.5999 L562.52,1104.5999 L727.52,1104.5999 L727.52,1042.5999 L717.52,1032.5999 L562.52,1032.5999 " fill="#FEFFDD" style="stroke:#181818;stroke-width:0.5;"/><path d="M717.52,1032.5999 L717.52,1042.5999 L727.52,1042.5999 L717.52,1032.5999 " fill="#FEFFDD" style="stroke:#181818;stroke-width:0.5;"/><text fill="#000000" font-family="sans-serif" font-size="13" font-weight="bold" lengthAdjust="spacing" textLength="120" x="572.52" y="1049.6769">El sistema permite:</text><ellipse cx="574.02" cy="1061.3" fill="#000000" rx="2.5" ry="2.5" style="stroke:#000000;stroke-width:0.0;"/><text fill="#000000" font-family="sans-serif" font-size="13" lengthAdjust="spacing" textLength="118" x="580.52" y="1065.277">Calificar intercambio</text><text fill="#000000" font-family="sans-serif" font-size="13" lengthAdjust="spacing" textLength="128" x="584.52" y="1080.877">* Puntuación del 1 a 5</text><text fill="#000000" font-family="sans-serif" font-size="13" lengthAdjust="spacing" textLength="75" x="584.52" y="1096.477">* Comentario</text></g><!--MD5=[26dc4420d797938c29d05742525ca5dc]
link ratingOrDiscard to EAS3--><g id="link_ratingOrDiscard_EAS3"><path d="M459.38,998.1399 C438.45,998.0799 395.91,1001.3999 376.52,1027.5999 C354.83,1056.8899 359.56,1077.3399 376.52,1109.5999 C383.11,1122.1499 395.34,1131.6799 407.13,1138.4599 " fill="none" id="ratingOrDiscard-to-EAS3" style="stroke:#181818;stroke-width:1.0;"/><polygon fill="#181818" points="411.13,1141.1999,405.1551,1133.3705,406.7438,1138.7997,401.3146,1140.3884,411.13,1141.1999" style="stroke:#181818;stroke-width:1.0;"/><path d="M381.52,1048.0999 L381.52,1089.0999 L541.52,1089.0999 L541.52,1058.0999 L531.52,1048.0999 L381.52,1048.0999 " fill="#FEFFDD" style="stroke:#181818;stroke-width:0.5;"/><path d="M531.52,1048.0999 L531.52,1058.0999 L541.52,1058.0999 L531.52,1048.0999 " fill="#FEFFDD" style="stroke:#181818;stroke-width:0.5;"/><text fill="#000000" font-family="sans-serif" font-size="13" font-weight="bold" lengthAdjust="spacing" textLength="120" x="391.52" y="1065.1769">El sistema permite:</text><ellipse cx="393.02" cy="1076.8" fill="#000000" rx="2.5" ry="2.5" style="stroke:#000000;stroke-width:0.0;"/><text fill="#000000" font-family="sans-serif" font-size="13" lengthAdjust="spacing" textLength="127" x="399.52" y="1080.777">Descartar intercambio</text></g><!--MD5=[0159751eb81111ea776f098412fc5626]
link EAS3 to *end*INTERCAMBIAR_ARTICULO--><g id="link_EAS3_*end*INTERCAMBIAR_ARTICULO"><path d="M449.06,1178.0799 C454.11,1188.7899 459.84,1200.9499 464.11,1209.9999 " fill="none" id="EAS3-to-*end*INTERCAMBIAR_ARTICULO" style="stroke:#181818;stroke-width:1.0;"/><polygon fill="#181818" points="466.56,1214.1999,466.3516,1204.3533,464.4331,1209.6749,459.1115,1207.7564,466.56,1214.1999" style="stroke:#181818;stroke-width:1.0;"/></g><!--MD5=[685a7441ca55bb82cf0d34254971fee6]
link EAS4 to *end*INTERCAMBIAR_ARTICULO--><g id="link_EAS4_*end*INTERCAMBIAR_ARTICULO"><path d="M513.43,1178.0799 C502.31,1189.8699 489.54,1203.4199 480.84,1212.6499 " fill="none" id="EAS4-to-*end*INTERCAMBIAR_ARTICULO" style="stroke:#181818;stroke-width:1.0;"/><polygon fill="#181818" points="477.92,1215.7999,487.0011,1211.9876,481.3468,1212.1589,481.1755,1206.5047,477.92,1215.7999" style="stroke:#181818;stroke-width:1.0;"/></g><!--MD5=[27b65177a8b4801f0d91c8186dff36b0]
link *start to INTERACCION_CONTENIDO--><g id="link_*start_INTERACCION_CONTENIDO"><path d="M544.18,26.26 C544.18,38.67 544.18,61.28 544.18,79.89 " fill="none" id="*start-to-INTERACCION_CONTENIDO" style="stroke:#181818;stroke-width:1.0;"/><polygon fill="#181818" points="544.18,84.52,548.18,75.52,544.18,79.52,540.18,75.52,544.18,84.52" style="stroke:#181818;stroke-width:1.0;"/></g><!--MD5=[62b64bc3242e125fc087fc6b081b2af8]
link INTERACCION_CONTENIDO to FILTRAR_ARTICULOS--><g id="link_INTERACCION_CONTENIDO_FILTRAR_ARTICULOS"><path d="M447.28,136.5 C406.72,149.8 360.63,169.14 324.18,196 C320.25,198.89 316.38,201.92 312.56,205.07 " fill="none" id="INTERACCION_CONTENIDO-to-FILTRAR_ARTICULOS" style="stroke:#181818;stroke-width:1.0;"/><polygon fill="#181818" points="309.1,208.82,318.5648,206.0966,312.9294,205.605,313.4209,199.9696,309.1,208.82" style="stroke:#181818;stroke-width:1.0;"/></g><!--MD5=[76aaf4781360c2ba0b0d259d5ea919b8]
link INTERACCION_CONTENIDO to BUSCAR_ARTICULO--><g id="link_INTERACCION_CONTENIDO_BUSCAR_ARTICULO"><path d="M536.34,136.45 C531.35,151.99 524.39,173.66 516.68,197.7 " fill="none" id="INTERACCION_CONTENIDO-to-BUSCAR_ARTICULO" style="stroke:#181818;stroke-width:1.0;"/><polygon fill="#181818" points="514.92,202.19,521.4815,194.8451,516.4496,197.4297,513.865,192.3978,514.92,202.19" style="stroke:#181818;stroke-width:1.0;"/></g><!--MD5=[b44d26b6d2a6f44bb0502f588a21e21c]
link INTERACCION_CONTENIDO to INTERCAMBIAR_ARTICULO--><g id="link_INTERACCION_CONTENIDO_INTERCAMBIAR_ARTICULO"><path d="M563.57,136.47 C574.93,152.41 588.19,174.24 594.18,196 C631.02,329.9 626.92,482.38 609.98,613.63 " fill="none" id="INTERACCION_CONTENIDO-to-INTERCAMBIAR_ARTICULO" style="stroke:#181818;stroke-width:1.0;"/><polygon fill="#181818" points="609.21,618.47,614.3342,610.0592,609.853,613.5115,606.4007,609.0303,609.21,618.47" style="stroke:#181818;stroke-width:1.0;"/></g><!--MD5=[68a948fe8dadf577df76560ca1a145c9]
link FILTRAR_ARTICULOS to union--><g id="link_FILTRAR_ARTICULOS_union"><path d="M209.09,560.13 C229.1,694.91 254.21,864.05 261.86,915.59 " fill="none" id="FILTRAR_ARTICULOS-to-union" style="stroke:#181818;stroke-width:1.0;"/><polygon fill="#181818" points="262.71,920.28,265.328,910.7855,261.9669,915.3355,257.4168,911.9744,262.71,920.28" style="stroke:#181818;stroke-width:1.0;"/></g><!--MD5=[7a1459aa608b54260c2e3fbfc724c9d1]
link BUSCAR_ARTICULO to union--><g id="link_BUSCAR_ARTICULO_union"><path d="M355.19,552.57 C344.35,574.73 334.34,597.48 326.18,619.8 C286.51,728.31 270.24,867.87 265.64,914.91 " fill="none" id="BUSCAR_ARTICULO-to-union" style="stroke:#181818;stroke-width:1.0;"/><polygon fill="#181818" points="265.09,919.67,269.9218,911.0878,265.562,914.6923,261.9575,910.3326,265.09,919.67" style="stroke:#181818;stroke-width:1.0;"/></g><!--MD5=[ba9e0c0e6ac845f66ab05520cd73a051]
link union to VER_ARTICULO--><g id="link_union_VER_ARTICULO"><path d="M264.18,944.69 C264.18,986.76 264.18,1138.32 264.18,1298.49 " fill="none" id="union-to-VER_ARTICULO" style="stroke:#181818;stroke-width:1.0;"/><polygon fill="#181818" points="264.18,1303.19,268.18,1294.19,264.18,1298.19,260.18,1294.19,264.18,1303.19" style="stroke:#181818;stroke-width:1.0;"/></g><!--MD5=[3f5f259644f5461364ab0bcc3ca197c2]
link INTERCAMBIAR_ARTICULO to finished--><g id="link_INTERCAMBIAR_ARTICULO_finished"><path d="M548.16,1244.79 C557.23,1598.65 571.11,2140.47 573.74,2243.25 " fill="none" id="INTERCAMBIAR_ARTICULO-to-finished" style="stroke:#181818;stroke-width:1.0;"/><polygon fill="#181818" points="573.89,2248.12,577.6573,2239.0202,573.7615,2243.1217,569.66,2239.2258,573.89,2248.12" style="stroke:#181818;stroke-width:1.0;"/></g><!--MD5=[4fb0195ffb59e65296955fbcca71aa59]
link VER_ARTICULO to finished--><g id="link_VER_ARTICULO_finished"><path d="M521.77,2173.77 C542.03,2207.26 558.05,2233.74 566.81,2248.22 " fill="none" id="VER_ARTICULO-to-finished" style="stroke:#181818;stroke-width:1.0;"/><polygon fill="#181818" points="569.91,2252.34,568.6856,2242.5675,567.327,2248.0588,561.8357,2246.7003,569.91,2252.34" style="stroke:#181818;stroke-width:1.0;"/></g><!--MD5=[f20ab7065c26ebabf49f7b8c32a28769]
link finished to *end--><g id="link_finished_*end"><path d="M574.18,2273.86 C574.18,2287.9 574.18,2311.72 574.18,2327.25 " fill="none" id="finished-to-*end" style="stroke:#181818;stroke-width:1.0;"/><polygon fill="#181818" points="574.18,2331.96,578.18,2322.96,574.18,2326.96,570.18,2322.96,574.18,2331.96" style="stroke:#181818;stroke-width:1.0;"/></g><!--MD5=[40a9fc11f894eb618fab26dc055c7157]
link finished to INTERACCION_CONTENIDO--><g id="link_finished_INTERACCION_CONTENIDO"><path d="M576.85,2251.51 C605.28,2155.69 849.25,1304.5 754.18,619.8 C727.26,425.9 736.15,363.11 634.18,196 C621.04,174.47 600.89,154.94 582.99,140.14 " fill="none" id="finished-to-INTERACCION_CONTENIDO" style="stroke:#181818;stroke-width:1.0;"/><polygon fill="#181818" points="579.49,136.49,583.9527,145.2698,583.3706,139.643,588.9974,139.0609,579.49,136.49" style="stroke:#181818;stroke-width:1.0;"/></g><!--MD5=[8280e0f595b961b586bf7a2726c39389]
@startuml content-interaction
[*] - -> INTERACCION_CONTENIDO

state FILTRAR_ARTICULOS {
    state FAS1 as " "    
    state FAS2 as " "
    [*] - -> FAS1
    FAS1 - -> FAS2    
    note on link
        <b> El sistema permite:</b>
        * Filtrar artículos por categoría
        * Filtrar artículos por estado
    end note
    FAS2 - -> [*]
}

state BUSCAR_ARTICULO {
    state S1 as " "    
    state S2 as " "
    [*] - -> S1
    S1 - -> S2    
    note on link
        <b> El sistema permite:</b>
        * Buscar artículos por título
    end note
    S2 - -> [*]
}

state VER_ARTICULO {
    state VAS1 as " "
    state VAS2 as " "
    state VAS3 as " "
    state VAS4 as " "
    [*] - -> VAS1
    VAS1 - -> VAS2 

    state checkPublications <<choice>>           
    state addProposedOrNot <<choice>>
    note on link
        <b> El sistema muestra:</b>
        * Ver detalles del artículo
            * título
            * descripción
            * fecha de publicación
            * cantidad de propuestas
            * publicador
            * galería
            * proponer artículo
    end note
    VAS2 - -> addProposedOrNot
    note on link
        <b> El sistema permite:</b>
        * Proponer artículo
    end note

    addProposedOrNot - -> VAS3
    
    VAS3 - -> VAS4    
    note on link
        <b> El sistema permite:</b>
        * Seleccionar un artículo
         publicado para proponer
    end note 

    VAS4 - -> checkPublications    
    checkPublications -[#red]-> VAS3
    note on link
        <b> El sistema requiere:</b>
        * Tener un artículo
         publicado para proponer
    end note 
    checkPublications - -> [*]    

    addProposedOrNot - -> [*]
}

state INTERCAMBIAR_ARTICULO {
    state EAS1 as " "    
    state EAS2 as " "
    state EAS3 as " "    
    state EAS4 as " "            
    [*] - -> EAS1
    
    state ratingOrDiscard <<choice>>

    EAS1 - -> EAS2
    note on link
        <b> El sistema muestra:</b>
        * Listado de intercambios 
            aceptados
        * Calificar intercambio
        * Descartar intercambio        
    end note
      
    EAS2 - -> ratingOrDiscard
    ratingOrDiscard - -> EAS4
    note on link
        <b> El sistema permite:</b>
        * Calificar intercambio
            * Puntuación del 1 a 5
            * Comentario            
    end note

    ratingOrDiscard - -> EAS3
    note on link
        <b> El sistema permite:</b>
        * Descartar intercambio
    end note

    EAS3 - -> [*]    
    EAS4 - -> [*]    

}

INTERACCION_CONTENIDO - -> FILTRAR_ARTICULOS
INTERACCION_CONTENIDO - -> BUSCAR_ARTICULO
INTERACCION_CONTENIDO - -> INTERCAMBIAR_ARTICULO

state union <<choice>> 

FILTRAR_ARTICULOS - -> union
BUSCAR_ARTICULO - -> union
union - -> VER_ARTICULO

state finished <<choice>>
INTERCAMBIAR_ARTICULO - -> finished
VER_ARTICULO - -> finished
finished - -> [*]
finished - -> INTERACCION_CONTENIDO

@enduml

PlantUML version 1.2022.7(Mon Aug 22 12:01:30 ECT 2022)
(GPL source distribution)
Java Runtime: OpenJDK Runtime Environment
JVM: OpenJDK 64-Bit Server VM
Default Encoding: UTF-8
Language: en
Country: null
--></g></svg>