<?xml version="1.0" encoding="UTF-8" standalone="no"?><svg xmlns="http://www.w3.org/2000/svg" xmlns:xlink="http://www.w3.org/1999/xlink" contentStyleType="text/css" height="531px" preserveAspectRatio="none" style="width:924px;height:531px;background:#FFFFFF;" version="1.1" viewBox="0 0 924 531" width="924px" zoomAndPan="magnify"><defs/><g><ellipse cx="385" cy="16" fill="#222222" rx="10" ry="10" style="stroke:none;stroke-width:1.0;"/><g id="AUTENTICACION"><rect fill="#F1F1F1" height="50" rx="12.5" ry="12.5" style="stroke:#181818;stroke-width:0.5;" width="134" x="318" y="87"/><line style="stroke:#181818;stroke-width:0.5;" x1="318" x2="452" y1="113.7999" y2="113.7999"/><text fill="#000000" font-family="sans-serif" font-size="14" lengthAdjust="spacing" textLength="114" x="328" y="105.0059">AUTENTICACION</text></g><g id="UNIMART_ABIERTO"><rect fill="#F1F1F1" height="50" rx="12.5" ry="12.5" style="stroke:#181818;stroke-width:0.5;" width="153" x="308.5" y="245.5"/><line style="stroke:#181818;stroke-width:0.5;" x1="308.5" x2="461.5" y1="272.2999" y2="272.2999"/><text fill="#000000" font-family="sans-serif" font-size="14" lengthAdjust="spacing" textLength="133" x="318.5" y="263.5059">UNIMART_ABIERTO</text></g><g id="INTERACCION_CONTENIDO"><rect fill="#F1F1F1" height="50" rx="12.5" ry="12.5" style="stroke:#181818;stroke-width:0.5;" width="208" x="497" y="245.5"/><line style="stroke:#181818;stroke-width:0.5;" x1="497" x2="705" y1="272.2999" y2="272.2999"/><text fill="#000000" font-family="sans-serif" font-size="14" lengthAdjust="spacing" textLength="188" x="507" y="263.5059">INTERACCION_CONTENIDO</text></g><g id="GESTION_PERFIL"><rect fill="#F1F1F1" height="50" rx="12.5" ry="12.5" style="stroke:#181818;stroke-width:0.5;" width="140" x="7" y="245.5"/><line style="stroke:#181818;stroke-width:0.5;" x1="7" x2="147" y1="272.2999" y2="272.2999"/><text fill="#000000" font-family="sans-serif" font-size="14" lengthAdjust="spacing" textLength="120" x="17" y="263.5059">GESTION_PERFIL</text></g><g id="elem_logout"><polygon fill="#F1F1F1" points="349,404,361,416,349,428,337,416,349,404" style="stroke:#181818;stroke-width:0.5;"/></g><ellipse cx="349" cy="515" fill="none" rx="10" ry="10" style="stroke:#222222;stroke-width:1.0;"/><ellipse cx="349.5" cy="515.5" fill="#222222" rx="6" ry="6" style="stroke:none;stroke-width:1.0;"/><!--MD5=[3fc6abdfd258461f43c0ef6c9877ce87]
link *start to AUTENTICACION--><g id="link_*start_AUTENTICACION"><path d="M385,26.36 C385,38.98 385,62.07 385,80.94 " fill="none" id="*start-to-AUTENTICACION" style="stroke:#181818;stroke-width:1.0;"/><polygon fill="#181818" points="385,85.65,389,76.65,385,80.65,381,76.65,385,85.65" style="stroke:#181818;stroke-width:1.0;"/></g><!--MD5=[acce311d8c0f08c532af8208ed79e8ca]
link AUTENTICACION to UNIMART_ABIERTO--><g id="link_AUTENTICACION_UNIMART_ABIERTO"><path d="M385,137.45 C385,165.02 385,209.84 385,239.5 " fill="none" id="AUTENTICACION-to-UNIMART_ABIERTO" style="stroke:#181818;stroke-width:1.0;"/><polygon fill="#181818" points="385,244.22,389,235.22,385,239.22,381,235.22,385,244.22" style="stroke:#181818;stroke-width:1.0;"/><text fill="#000000" font-family="sans-serif" font-size="13" lengthAdjust="spacing" textLength="76" x="386" y="180.077">Inciar Sesión</text></g><!--MD5=[1a6e93b81d48f16cd8b670b5e6da7f8a]
link UNIMART_ABIERTO to INTERACCION_CONTENIDO--><g id="link_UNIMART_ABIERTO_INTERACCION_CONTENIDO"><path d="M461.78,270.5 C471.39,270.5 481,270.5 490.6,270.5 " fill="none" id="UNIMART_ABIERTO-to-INTERACCION_CONTENIDO" style="stroke:#181818;stroke-width:1.0;"/><polygon fill="#181818" points="495.59,270.5,486.59,266.5,490.59,270.5,486.59,274.5,495.59,270.5" style="stroke:#181818;stroke-width:1.0;"/></g><!--MD5=[430f2ef154f9ccf867389817f4429b86]
reverse link GESTION_PERFIL to UNIMART_ABIERTO--><g id="link_GESTION_PERFIL_UNIMART_ABIERTO"><path d="M153.36,270.5 C205.05,270.5 256.74,270.5 308.42,270.5 " fill="none" id="GESTION_PERFIL-backto-UNIMART_ABIERTO" style="stroke:#181818;stroke-width:1.0;"/><polygon fill="#181818" points="148.38,270.5,157.38,274.5,153.38,270.5,157.38,266.5,148.38,270.5" style="stroke:#181818;stroke-width:1.0;"/></g><!--MD5=[c2aedca3efc692d617b58ad30039de2d]
link INTERACCION_CONTENIDO to INTERACCION_CONTENIDO--><g id="link_INTERACCION_CONTENIDO_INTERACCION_CONTENIDO"><path d="M705.26,253.48 C725.58,255.46 740,261.13 740,270.5 C740,278.99 728.15,284.45 710.81,286.87 " fill="none" id="INTERACCION_CONTENIDO-to-INTERACCION_CONTENIDO" style="stroke:#181818;stroke-width:1.0;"/><polygon fill="#181818" points="706.26,287.52,715.6589,290.463,711.2271,286.9474,714.7427,282.5157,706.26,287.52" style="stroke:#181818;stroke-width:1.0;"/><path d="M745,219 L745,322 L917,322 L917,229 L907,219 L745,219 " fill="#FEFFDD" style="stroke:#181818;stroke-width:0.5;"/><path d="M907,219 L907,229 L917,229 L907,219 " fill="#FEFFDD" style="stroke:#181818;stroke-width:0.5;"/><ellipse cx="756.5" cy="232.1" fill="#000000" rx="2.5" ry="2.5" style="stroke:#000000;stroke-width:0.0;"/><text fill="#000000" font-family="sans-serif" font-size="13" lengthAdjust="spacing" textLength="74" x="763" y="236.077">Ver artículos</text><ellipse cx="756.5" cy="247.7" fill="#000000" rx="2.5" ry="2.5" style="stroke:#000000;stroke-width:0.0;"/><text fill="#000000" font-family="sans-serif" font-size="13" lengthAdjust="spacing" textLength="101" x="763" y="251.677">Publicar artículos</text><ellipse cx="756.5" cy="263.3" fill="#000000" rx="2.5" ry="2.5" style="stroke:#000000;stroke-width:0.0;"/><text fill="#000000" font-family="sans-serif" font-size="13" lengthAdjust="spacing" textLength="139" x="763" y="267.277">Buscar y filtrar artículos</text><ellipse cx="756.5" cy="278.9001" fill="#000000" rx="2.5" ry="2.5" style="stroke:#000000;stroke-width:0.0;"/><text fill="#000000" font-family="sans-serif" font-size="13" lengthAdjust="spacing" textLength="106" x="763" y="282.8771">Proponer artículos</text><ellipse cx="756.5" cy="294.5001" fill="#000000" rx="2.5" ry="2.5" style="stroke:#000000;stroke-width:0.0;"/><text fill="#000000" font-family="sans-serif" font-size="13" lengthAdjust="spacing" textLength="99" x="763" y="298.4771">Aceptar artículos</text><ellipse cx="756.5" cy="310.1001" fill="#000000" rx="2.5" ry="2.5" style="stroke:#000000;stroke-width:0.0;"/><text fill="#000000" font-family="sans-serif" font-size="13" lengthAdjust="spacing" textLength="101" x="763" y="314.0771">Calificar artículos</text></g><!--MD5=[de2e6025810329b0c7269d908824743f]
link GESTION_PERFIL to GESTION_PERFIL--><g id="link_GESTION_PERFIL_GESTION_PERFIL"><path d="M147.17,252.78 C166.87,253.55 182,259.46 182,270.5 C182,280.42 169.79,286.2 153.02,287.83 " fill="none" id="GESTION_PERFIL-to-GESTION_PERFIL" style="stroke:#181818;stroke-width:1.0;"/><polygon fill="#181818" points="148.17,288.22,157.4232,291.5931,153.1582,287.877,156.8744,283.612,148.17,288.22" style="stroke:#181818;stroke-width:1.0;"/><path d="M187,258 L187,283 L286,283 L286,268 L276,258 L187,258 " fill="#FEFFDD" style="stroke:#181818;stroke-width:0.5;"/><path d="M276,258 L276,268 L286,268 L276,258 " fill="#FEFFDD" style="stroke:#181818;stroke-width:0.5;"/><ellipse cx="198.5" cy="271.1" fill="#000000" rx="2.5" ry="2.5" style="stroke:#000000;stroke-width:0.0;"/><text fill="#000000" font-family="sans-serif" font-size="13" lengthAdjust="spacing" textLength="66" x="205" y="275.077">Editar perfil</text></g><!--MD5=[450468bb9f494bb0591d4739785c0adb]
link INTERACCION_CONTENIDO to logout--><g id="link_INTERACCION_CONTENIDO_logout"><path d="M573.07,295.88 C546.1,318.47 503.36,351.84 462,374 C428.7,391.83 386.01,404.94 363.85,411.1 " fill="none" id="INTERACCION_CONTENIDO-to-logout" style="stroke:#181818;stroke-width:1.0;"/><polygon fill="#181818" points="359.16,412.64,368.8946,414.1359,363.9845,411.3268,366.7935,406.4167,359.16,412.64" style="stroke:#181818;stroke-width:1.0;"/><text fill="#000000" font-family="sans-serif" font-size="13" lengthAdjust="spacing" textLength="77" x="491" y="370.077">Cerrar sesión</text></g><!--MD5=[5722b3c8b48940e7fc752a9d3b1ee8cd]
link GESTION_PERFIL to logout--><g id="link_GESTION_PERFIL_logout"><path d="M98.34,295.81 C120.14,319.17 156.09,353.83 194,374 C240.8,398.9 303.75,409.44 332.92,413.21 " fill="none" id="GESTION_PERFIL-to-logout" style="stroke:#181818;stroke-width:1.0;"/><polygon fill="#181818" points="337.62,413.91,329.1785,408.8365,332.6577,413.2968,328.1974,416.7761,337.62,413.91" style="stroke:#181818;stroke-width:1.0;"/><text fill="#000000" font-family="sans-serif" font-size="13" lengthAdjust="spacing" textLength="77" x="195" y="370.077">Cerrar sesión</text></g><!--MD5=[a44fa11c6aee961e9b0e0c33966c44c7]
link UNIMART_ABIERTO to logout--><g id="link_UNIMART_ABIERTO_logout"><path d="M340.74,295.9 C319.03,310.5 295.02,331.24 283,357 C270.92,382.89 311.83,401.94 334.67,410.3 " fill="none" id="UNIMART_ABIERTO-to-logout" style="stroke:#181818;stroke-width:1.0;"/><polygon fill="#181818" points="339.31,412.28,332.1394,405.5285,334.5914,410.6263,329.4936,413.0783,339.31,412.28" style="stroke:#181818;stroke-width:1.0;"/><text fill="#000000" font-family="sans-serif" font-size="13" lengthAdjust="spacing" textLength="77" x="284" y="370.077">Cerrar sesión</text></g><!--MD5=[03b342f24be1070495dd5488c0a0c356]
reverse link UNIMART_ABIERTO to logout--><g id="link_UNIMART_ABIERTO_logout"><path d="M383.21,301.53 C381.34,322.28 377.57,350.3 370,374 C365.96,386.65 358.33,400.13 353.46,408.05 " fill="none" id="UNIMART_ABIERTO-backto-logout" style="stroke:#181818;stroke-width:1.0;"/><polygon fill="#181818" points="383.7,296.61,378.9685,305.2479,383.286,301.5928,386.941,305.9103,383.7,296.61" style="stroke:#181818;stroke-width:1.0;"/><text fill="#000000" font-family="sans-serif" font-size="13" lengthAdjust="spacing" textLength="77" x="376" y="370.077">Iniciar sesión</text></g><!--MD5=[7eba9e1f5a505d6e95b4634a0ff1d65b]
link logout to *end--><g id="link_logout_*end"><path d="M349,428.51 C349,445.99 349,479.25 349,498.73 " fill="none" id="logout-to-*end" style="stroke:#181818;stroke-width:1.0;"/><polygon fill="#181818" points="349,503.54,353,494.54,349,498.54,345,494.54,349,503.54" style="stroke:#181818;stroke-width:1.0;"/><text fill="#000000" font-family="sans-serif" font-size="13" lengthAdjust="spacing" textLength="77" x="350" y="471.077">Cerrar sesión</text></g><!--MD5=[f0eb4c4dc1a6f568b14ade1936eae501]
@startuml use-cases-context

[*] - -> AUTENTICACION

AUTENTICACION - -> UNIMART_ABIERTO: Inciar Sesión
UNIMART_ABIERTO -right-> INTERACCION_CONTENIDO
UNIMART_ABIERTO -left-> GESTION_PERFIL

INTERACCION_CONTENIDO - -> INTERACCION_CONTENIDO
note on link
  * Ver artículos
  * Publicar artículos
  * Buscar y filtrar artículos
  * Proponer artículos
  * Aceptar artículos
  * Calificar artículos  
end note

GESTION_PERFIL - -> GESTION_PERFIL
note on link
  * Editar perfil
end note

state logout <<choice>>


INTERACCION_CONTENIDO - -> logout: Cerrar sesión
GESTION_PERFIL - -> logout: Cerrar sesión

UNIMART_ABIERTO - -> logout: Cerrar sesión
logout - -> [*]: Cerrar sesión
logout -left-> UNIMART_ABIERTO: Iniciar sesión
@enduml

PlantUML version 1.2022.7(Mon Aug 22 12:01:30 ECT 2022)
(GPL source distribution)
Java Runtime: OpenJDK Runtime Environment
JVM: OpenJDK 64-Bit Server VM
Default Encoding: UTF-8
Language: en
Country: null
--></g></svg>