<?xml version="1.0" encoding="UTF-8" standalone="no"?><svg xmlns="http://www.w3.org/2000/svg" xmlns:xlink="http://www.w3.org/1999/xlink" contentStyleType="text/css" height="500px" preserveAspectRatio="none" style="width:903px;height:500px;background:#FFFFFF;" version="1.1" viewBox="0 0 903 500" width="903px" zoomAndPan="magnify"><defs/><g><ellipse cx="428" cy="16" fill="#222222" rx="10" ry="10" style="stroke:none;stroke-width:1.0;"/><g id="AUTHENTICATION"><rect fill="#F1F1F1" height="50" rx="12.5" ry="12.5" style="stroke:#181818;stroke-width:0.5;" width="143" x="356.5" y="87"/><line style="stroke:#181818;stroke-width:0.5;" x1="356.5" x2="499.5" y1="113.7999" y2="113.7999"/><text fill="#000000" font-family="sans-serif" font-size="14" lengthAdjust="spacing" textLength="123" x="366.5" y="105.0059">AUTHENTICATION</text></g><g id="OPENED_UNIMART"><rect fill="#F1F1F1" height="50" rx="12.5" ry="12.5" style="stroke:#181818;stroke-width:0.5;" width="150" x="353" y="230"/><line style="stroke:#181818;stroke-width:0.5;" x1="353" x2="503" y1="256.7999" y2="256.7999"/><text fill="#000000" font-family="sans-serif" font-size="14" lengthAdjust="spacing" textLength="130" x="363" y="248.0059">OPENED_UNIMART</text></g><g id="CONTENT_INTERACTION"><rect fill="#F1F1F1" height="50" rx="12.5" ry="12.5" style="stroke:#181818;stroke-width:0.5;" width="191" x="537.5" y="230"/><line style="stroke:#181818;stroke-width:0.5;" x1="537.5" x2="728.5" y1="256.7999" y2="256.7999"/><text fill="#000000" font-family="sans-serif" font-size="14" lengthAdjust="spacing" textLength="171" x="547.5" y="248.0059">CONTENT_INTERACTION</text></g><g id="PROFILE_MANAGEMENT"><rect fill="#F1F1F1" height="50" rx="12.5" ry="12.5" style="stroke:#181818;stroke-width:0.5;" width="188" x="7" y="230"/><line style="stroke:#181818;stroke-width:0.5;" x1="7" x2="195" y1="256.7999" y2="256.7999"/><text fill="#000000" font-family="sans-serif" font-size="14" lengthAdjust="spacing" textLength="168" x="17" y="248.0059">PROFILE_MANAGEMENT</text></g><g id="elem_logout"><polygon fill="#F1F1F1" points="428,373,440,385,428,397,416,385,428,373" style="stroke:#181818;stroke-width:0.5;"/></g><ellipse cx="428" cy="484" fill="none" rx="10" ry="10" style="stroke:#222222;stroke-width:1.0;"/><ellipse cx="428.5" cy="484.5" fill="#222222" rx="6" ry="6" style="stroke:none;stroke-width:1.0;"/><!--MD5=[1e3bdf202a25adfebfa2664c5c686ea2]
link *start to AUTHENTICATION--><g id="link_*start_AUTHENTICATION"><path d="M428,26.36 C428,38.98 428,62.07 428,80.94 " fill="none" id="*start-to-AUTHENTICATION" style="stroke:#181818;stroke-width:1.0;"/><polygon fill="#181818" points="428,85.65,432,76.65,428,80.65,424,76.65,428,85.65" style="stroke:#181818;stroke-width:1.0;"/></g><!--MD5=[ec88cc06e6b44d4f374066e7c5cc0b7e]
link AUTHENTICATION to OPENED_UNIMART--><g id="link_AUTHENTICATION_OPENED_UNIMART"><path d="M428,137.24 C428,161.15 428,197.77 428,223.61 " fill="none" id="AUTHENTICATION-to-OPENED_UNIMART" style="stroke:#181818;stroke-width:1.0;"/><polygon fill="#181818" points="428,228.61,432,219.61,428,223.61,424,219.61,428,228.61" style="stroke:#181818;stroke-width:1.0;"/><text fill="#000000" font-family="sans-serif" font-size="13" lengthAdjust="spacing" textLength="31" x="429" y="180.077">Login</text></g><!--MD5=[8b0d8d93d0395039932fef3d8b41583c]
link OPENED_UNIMART to CONTENT_INTERACTION--><g id="link_OPENED_UNIMART_CONTENT_INTERACTION"><path d="M503.27,255 C512.65,255 522.02,255 531.39,255 " fill="none" id="OPENED_UNIMART-to-CONTENT_INTERACTION" style="stroke:#181818;stroke-width:1.0;"/><polygon fill="#181818" points="536.23,255,527.23,251,531.23,255,527.23,259,536.23,255" style="stroke:#181818;stroke-width:1.0;"/></g><!--MD5=[085ee213e0a1724d80284097fdf96fb1]
reverse link PROFILE_MANAGEMENT to OPENED_UNIMART--><g id="link_PROFILE_MANAGEMENT_OPENED_UNIMART"><path d="M201.04,255 C251.54,255 302.03,255 352.52,255 " fill="none" id="PROFILE_MANAGEMENT-backto-OPENED_UNIMART" style="stroke:#181818;stroke-width:1.0;"/><polygon fill="#181818" points="196.2,255,205.2,259,201.2,255,205.2,251,196.2,255" style="stroke:#181818;stroke-width:1.0;"/></g><!--MD5=[a055305320a23256d70c8e13861e07bf]
link CONTENT_INTERACTION to CONTENT_INTERACTION--><g id="link_CONTENT_INTERACTION_CONTENT_INTERACTION"><path d="M728.89,240.6 C749,242.09 763.5,246.89 763.5,255 C763.5,262.29 751.8,266.9 734.83,268.85 " fill="none" id="CONTENT_INTERACTION-to-CONTENT_INTERACTION" style="stroke:#181818;stroke-width:1.0;"/><polygon fill="#181818" points="729.89,269.4,739.2274,272.5325,734.8677,268.928,738.4722,264.5682,729.89,269.4" style="stroke:#181818;stroke-width:1.0;"/><path d="M768.5,219 L768.5,291 L896.5,291 L896.5,229 L886.5,219 L768.5,219 " fill="#FEFFDD" style="stroke:#181818;stroke-width:0.5;"/><path d="M886.5,219 L886.5,229 L896.5,229 L886.5,219 " fill="#FEFFDD" style="stroke:#181818;stroke-width:0.5;"/><ellipse cx="780" cy="232.1" fill="#000000" rx="2.5" ry="2.5" style="stroke:#000000;stroke-width:0.0;"/><text fill="#000000" font-family="sans-serif" font-size="13" lengthAdjust="spacing" textLength="74" x="786.5" y="236.077">View articles</text><ellipse cx="780" cy="247.7" fill="#000000" rx="2.5" ry="2.5" style="stroke:#000000;stroke-width:0.0;"/><text fill="#000000" font-family="sans-serif" font-size="13" lengthAdjust="spacing" textLength="89" x="786.5" y="251.677">Publish articles</text><ellipse cx="780" cy="263.3" fill="#000000" rx="2.5" ry="2.5" style="stroke:#000000;stroke-width:0.0;"/><text fill="#000000" font-family="sans-serif" font-size="13" lengthAdjust="spacing" textLength="95" x="786.5" y="267.277">Search and filter</text><ellipse cx="780" cy="278.9001" fill="#000000" rx="2.5" ry="2.5" style="stroke:#000000;stroke-width:0.0;"/><text fill="#000000" font-family="sans-serif" font-size="13" lengthAdjust="spacing" textLength="65" x="786.5" y="282.8771">Exchanges</text></g><!--MD5=[7cac6750cc2eeac2222bb54e73301a2c]
link AUTHENTICATION to AUTHENTICATION--><g id="link_AUTHENTICATION_AUTHENTICATION"><path d="M499.93,101.66 C519.54,102.19 534.5,105.63 534.5,112 C534.5,117.72 522.43,121.08 505.75,122.09 " fill="none" id="AUTHENTICATION-to-AUTHENTICATION" style="stroke:#181818;stroke-width:1.0;"/><polygon fill="#181818" points="500.93,122.34,510.093,125.951,505.9254,122.1259,509.7505,117.9583,500.93,122.34" style="stroke:#181818;stroke-width:1.0;"/><path d="M539.5,99.5 L539.5,124.5 L603.5,124.5 L603.5,109.5 L593.5,99.5 L539.5,99.5 " fill="#FEFFDD" style="stroke:#181818;stroke-width:0.5;"/><path d="M593.5,99.5 L593.5,109.5 L603.5,109.5 L593.5,99.5 " fill="#FEFFDD" style="stroke:#181818;stroke-width:0.5;"/><ellipse cx="551" cy="112.6" fill="#000000" rx="2.5" ry="2.5" style="stroke:#000000;stroke-width:0.0;"/><text fill="#000000" font-family="sans-serif" font-size="13" lengthAdjust="spacing" textLength="31" x="557.5" y="116.577">Login</text></g><!--MD5=[b835415b5b60a9dbc50c2cab32413b83]
link PROFILE_MANAGEMENT to PROFILE_MANAGEMENT--><g id="link_PROFILE_MANAGEMENT_PROFILE_MANAGEMENT"><path d="M195.5,240.58 C215.53,242.04 230,246.85 230,255 C230,262.32 218.32,266.95 201.42,268.88 " fill="none" id="PROFILE_MANAGEMENT-to-PROFILE_MANAGEMENT" style="stroke:#181818;stroke-width:1.0;"/><polygon fill="#181818" points="196.5,269.42,205.8366,272.555,201.4778,268.9493,205.0835,264.5905,196.5,269.42" style="stroke:#181818;stroke-width:1.0;"/><path d="M235,242.5 L235,267.5 L330,267.5 L330,252.5 L320,242.5 L235,242.5 " fill="#FEFFDD" style="stroke:#181818;stroke-width:0.5;"/><path d="M320,242.5 L320,252.5 L330,252.5 L320,242.5 " fill="#FEFFDD" style="stroke:#181818;stroke-width:0.5;"/><ellipse cx="246.5" cy="255.6" fill="#000000" rx="2.5" ry="2.5" style="stroke:#000000;stroke-width:0.0;"/><text fill="#000000" font-family="sans-serif" font-size="13" lengthAdjust="spacing" textLength="62" x="253" y="259.577">Edit profile</text></g><!--MD5=[cac4be4de250e31e43952093beaf08c3]
link CONTENT_INTERACTION to logout--><g id="link_CONTENT_INTERACTION_logout"><path d="M593.96,280.38 C546.5,310.01 469.1,358.34 439.77,376.65 " fill="none" id="CONTENT_INTERACTION-to-logout" style="stroke:#181818;stroke-width:1.0;"/><polygon fill="#181818" points="435.87,379.71,445.6241,378.3468,440.114,377.0664,441.3943,371.5564,435.87,379.71" style="stroke:#181818;stroke-width:1.0;"/></g><!--MD5=[6df7ea0a6b43b35df3e5ee88b0dde7a7]
link PROFILE_MANAGEMENT to logout--><g id="link_PROFILE_MANAGEMENT_logout"><path d="M163.28,280.38 C242.05,311.21 372.5,362.28 414.52,378.72 " fill="none" id="PROFILE_MANAGEMENT-to-logout" style="stroke:#181818;stroke-width:1.0;"/><polygon fill="#181818" points="419.06,380.89,412.1445,373.8774,414.4059,379.0626,409.2207,381.324,419.06,380.89" style="stroke:#181818;stroke-width:1.0;"/></g><!--MD5=[21af30fce480790cffacf27830dd0718]
link OPENED_UNIMART to logout--><g id="link_OPENED_UNIMART_logout"><path d="M423.89,280.38 C421.47,297.82 419.21,321.86 421,343 C421.74,351.72 423.35,361.36 424.83,369.11 " fill="none" id="OPENED_UNIMART-to-logout" style="stroke:#181818;stroke-width:1.0;"/><polygon fill="#181818" points="425.93,373.61,428.1034,364.004,424.9577,368.7055,420.2562,365.5597,425.93,373.61" style="stroke:#181818;stroke-width:1.0;"/></g><!--MD5=[9571aa34505285548343a37840bde7c0]
reverse link OPENED_UNIMART to logout--><g id="link_OPENED_UNIMART_logout"><path d="M428,286.07 C428,313.65 428,353.04 428,372.38 " fill="none" id="OPENED_UNIMART-backto-logout" style="stroke:#181818;stroke-width:1.0;"/><polygon fill="#181818" points="428,281.38,424,290.38,428,286.38,432,290.38,428,281.38" style="stroke:#181818;stroke-width:1.0;"/><text fill="#000000" font-family="sans-serif" font-size="13" lengthAdjust="spacing" textLength="31" x="429" y="339.077">Login</text></g><!--MD5=[7eba9e1f5a505d6e95b4634a0ff1d65b]
link logout to *end--><g id="link_logout_*end"><path d="M428,397.51 C428,414.99 428,448.25 428,467.73 " fill="none" id="logout-to-*end" style="stroke:#181818;stroke-width:1.0;"/><polygon fill="#181818" points="428,472.54,432,463.54,428,467.54,424,463.54,428,472.54" style="stroke:#181818;stroke-width:1.0;"/><text fill="#000000" font-family="sans-serif" font-size="13" lengthAdjust="spacing" textLength="39" x="429" y="440.077">Logout</text></g><!--MD5=[390924dff05bc979faa851a47924f03a]
@startuml use-cases-context

[*] - -> AUTHENTICATION

AUTHENTICATION - -> OPENED_UNIMART: Login
OPENED_UNIMART -right-> CONTENT_INTERACTION
OPENED_UNIMART -left-> PROFILE_MANAGEMENT

CONTENT_INTERACTION - -> CONTENT_INTERACTION
note on link
  * View articles    
  * Publish articles
  * Search and filter
  * Exchanges    
end note


AUTHENTICATION - -> AUTHENTICATION
note on link
  * Login  
end note

PROFILE_MANAGEMENT - -> PROFILE_MANAGEMENT
note on link
  * Edit profile  
end note

state logout <<choice>>


CONTENT_INTERACTION - -> logout
PROFILE_MANAGEMENT - -> logout

OPENED_UNIMART - -> logout
logout - -> [*]: Logout
logout -left-> OPENED_UNIMART: Login
@enduml

PlantUML version 1.2022.7(Mon Aug 22 12:01:30 ECT 2022)
(GPL source distribution)
Java Runtime: OpenJDK Runtime Environment
JVM: OpenJDK 64-Bit Server VM
Default Encoding: UTF-8
Language: en
Country: null
--></g></svg>