<?xml version="1.0" encoding="UTF-8" standalone="no"?><svg xmlns="http://www.w3.org/2000/svg" xmlns:xlink="http://www.w3.org/1999/xlink" contentStyleType="text/css" height="727px" preserveAspectRatio="none" style="width:1405px;height:727px;background:#FFFFFF;" version="1.1" viewBox="0 0 1405 727" width="1405px" zoomAndPan="magnify"><defs/><g><!--MD5=[e2a75efa8a0f57c2afae8bf75386f79c]
cluster views--><g id="cluster_views"><path d="M819.5,6.294 L859.5,6.294 A3.75,3.75 0 0 1 862,8.794 L869,29.0939 L1395.5,29.0939 A2.5,2.5 0 0 1 1398,31.5939 L1398,344.194 A2.5,2.5 0 0 1 1395.5,346.694 L819.5,346.694 A2.5,2.5 0 0 1 817,344.194 L817,8.794 A2.5,2.5 0 0 1 819.5,6.294 " fill="none" style="stroke:#000000;stroke-width:1.5;"/><line style="stroke:#000000;stroke-width:1.5;" x1="817" x2="869" y1="29.0939" y2="29.0939"/><text fill="#000000" font-family="sans-serif" font-size="14" font-weight="bold" lengthAdjust="spacing" textLength="39" x="821" y="21.2999">views</text></g><!--MD5=[f4e70ef68289585296b9045165e58692]
cluster controllers--><g id="cluster_controllers"><path d="M8.5,122.094 L83.5,122.094 A3.75,3.75 0 0 1 86,124.594 L93,144.8939 L712.5,144.8939 A2.5,2.5 0 0 1 715,147.3939 L715,499.994 A2.5,2.5 0 0 1 712.5,502.494 L8.5,502.494 A2.5,2.5 0 0 1 6,499.994 L6,124.594 A2.5,2.5 0 0 1 8.5,122.094 " fill="none" style="stroke:#000000;stroke-width:1.5;"/><line style="stroke:#000000;stroke-width:1.5;" x1="6" x2="93" y1="144.8939" y2="144.8939"/><text fill="#000000" font-family="sans-serif" font-size="14" font-weight="bold" lengthAdjust="spacing" textLength="74" x="10" y="137.0999">controllers</text></g><!--MD5=[a60570e4b426f702ccbb0d459e3b9417]
cluster models--><g id="cluster_models"><path d="M790.5,386.694 L841.5,386.694 A3.75,3.75 0 0 1 844,389.194 L851,409.4939 L1051.5,409.4939 A2.5,2.5 0 0 1 1054,411.9939 L1054,717.594 A2.5,2.5 0 0 1 1051.5,720.094 L790.5,720.094 A2.5,2.5 0 0 1 788,717.594 L788,389.194 A2.5,2.5 0 0 1 790.5,386.694 " fill="none" style="stroke:#000000;stroke-width:1.5;"/><line style="stroke:#000000;stroke-width:1.5;" x1="788" x2="851" y1="409.4939" y2="409.4939"/><text fill="#000000" font-family="sans-serif" font-size="14" font-weight="bold" lengthAdjust="spacing" textLength="50" x="792" y="401.6999">models</text></g><!--MD5=[156723f38c68f5a944f1b76a14621b0a]
entity LoginView--><g id="elem_LoginView"><path d="M999.5,53.294 L999.5,77.294 M999.5,65.294 L1016.5,65.294 " fill="none" style="stroke:#181818;stroke-width:0.5;"/><ellipse cx="1028.5" cy="65.294" fill="#F1F1F1" rx="12" ry="12" style="stroke:#181818;stroke-width:0.5;"/><text fill="#000000" font-family="sans-serif" font-size="14" lengthAdjust="spacing" textLength="65" x="987.5" y="94.2999">LoginView</text></g><!--MD5=[dc1bba6e51b0840a7da21b6223d8841d]
entity RegisterView--><g id="elem_RegisterView"><path d="M1108.5,53.294 L1108.5,77.294 M1108.5,65.294 L1125.5,65.294 " fill="none" style="stroke:#181818;stroke-width:0.5;"/><ellipse cx="1137.5" cy="65.294" fill="#F1F1F1" rx="12" ry="12" style="stroke:#181818;stroke-width:0.5;"/><text fill="#000000" font-family="sans-serif" font-size="14" lengthAdjust="spacing" textLength="83" x="1087.5" y="94.2999">RegisterView</text></g><!--MD5=[3b47fefbefdbf11192200c872d8d0f30]
entity EditProfileView--><g id="elem_EditProfileView"><path d="M1232.5,53.294 L1232.5,77.294 M1232.5,65.294 L1249.5,65.294 " fill="none" style="stroke:#181818;stroke-width:0.5;"/><ellipse cx="1261.5" cy="65.294" fill="#F1F1F1" rx="12" ry="12" style="stroke:#181818;stroke-width:0.5;"/><text fill="#000000" font-family="sans-serif" font-size="14" lengthAdjust="spacing" textLength="94" x="1206" y="94.2999">EditProfileView</text></g><!--MD5=[188a3d31ff0f248b89f261e1a7b34eb4]
entity CommentView--><g id="elem_CommentView"><path d="M885.5,53.294 L885.5,77.294 M885.5,65.294 L902.5,65.294 " fill="none" style="stroke:#181818;stroke-width:0.5;"/><ellipse cx="914.5" cy="65.294" fill="#F1F1F1" rx="12" ry="12" style="stroke:#181818;stroke-width:0.5;"/><text fill="#000000" font-family="sans-serif" font-size="14" lengthAdjust="spacing" textLength="92" x="860" y="94.2999">CommentView</text></g><!--MD5=[e994cb3d673e51beec4ed2d33aa9c89b]
entity ReviewView--><g id="elem_ReviewView"><path d="M881.5,169.094 L881.5,193.094 M881.5,181.094 L898.5,181.094 " fill="none" style="stroke:#181818;stroke-width:0.5;"/><ellipse cx="910.5" cy="181.094" fill="#F1F1F1" rx="12" ry="12" style="stroke:#181818;stroke-width:0.5;"/><text fill="#000000" font-family="sans-serif" font-size="14" lengthAdjust="spacing" textLength="76" x="864" y="210.0999">ReviewView</text></g><!--MD5=[5bcb8fd81e29205afcbff9c1ba1bf5f5]
entity ContentView--><g id="elem_ContentView"><path d="M994.5,169.094 L994.5,193.094 M994.5,181.094 L1011.5,181.094 " fill="none" style="stroke:#181818;stroke-width:0.5;"/><ellipse cx="1023.5" cy="181.094" fill="#F1F1F1" rx="12" ry="12" style="stroke:#181818;stroke-width:0.5;"/><text fill="#000000" font-family="sans-serif" font-size="14" lengthAdjust="spacing" textLength="80" x="975" y="210.0999">ContentView</text></g><!--MD5=[1b3c55a1f44f84ab0e15783ac70d6fd7]
entity SearchAndFilterView--><g id="elem_SearchAndFilterView"><path d="M1135.5,169.094 L1135.5,193.094 M1135.5,181.094 L1152.5,181.094 " fill="none" style="stroke:#181818;stroke-width:0.5;"/><ellipse cx="1164.5" cy="181.094" fill="#F1F1F1" rx="12" ry="12" style="stroke:#181818;stroke-width:0.5;"/><text fill="#000000" font-family="sans-serif" font-size="14" lengthAdjust="spacing" textLength="132" x="1090" y="210.0999">SearchAndFilterView</text></g><!--MD5=[2273c469760c2bc496c6b16317b9ccc4]
entity WacthLaterView--><g id="elem_WacthLaterView"><path d="M1288.5,169.094 L1288.5,193.094 M1288.5,181.094 L1305.5,181.094 " fill="none" style="stroke:#181818;stroke-width:0.5;"/><ellipse cx="1317.5" cy="181.094" fill="#F1F1F1" rx="12" ry="12" style="stroke:#181818;stroke-width:0.5;"/><text fill="#000000" font-family="sans-serif" font-size="14" lengthAdjust="spacing" textLength="103" x="1257.5" y="210.0999">WacthLaterView</text></g><!--MD5=[3718b0652f8da0c34d2ec2fd80c212c0]
entity FavoriteView--><g id="elem_FavoriteView"><path d="M869.5,277.894 L869.5,301.894 M869.5,289.894 L886.5,289.894 " fill="none" style="stroke:#181818;stroke-width:0.5;"/><ellipse cx="898.5" cy="289.894" fill="#F1F1F1" rx="12" ry="12" style="stroke:#181818;stroke-width:0.5;"/><text fill="#000000" font-family="sans-serif" font-size="14" lengthAdjust="spacing" textLength="82" x="849" y="318.8999">FavoriteView</text></g><!--MD5=[d2ef6cb77879223e0420c663edf95032]
entity HistoryView--><g id="elem_HistoryView"><path d="M982.5,277.894 L982.5,301.894 M982.5,289.894 L999.5,289.894 " fill="none" style="stroke:#181818;stroke-width:0.5;"/><ellipse cx="1011.5" cy="289.894" fill="#F1F1F1" rx="12" ry="12" style="stroke:#181818;stroke-width:0.5;"/><text fill="#000000" font-family="sans-serif" font-size="14" lengthAdjust="spacing" textLength="74" x="966" y="318.8999">HistoryView</text></g><!--MD5=[7820101f6598c71b1ff0d596efe00e59]
entity NotificationView--><g id="elem_NotificationView"><path d="M1104.5,277.894 L1104.5,301.894 M1104.5,289.894 L1121.5,289.894 " fill="none" style="stroke:#181818;stroke-width:0.5;"/><ellipse cx="1133.5" cy="289.894" fill="#F1F1F1" rx="12" ry="12" style="stroke:#181818;stroke-width:0.5;"/><text fill="#000000" font-family="sans-serif" font-size="14" lengthAdjust="spacing" textLength="100" x="1075" y="318.8999">NotificationView</text></g><!--MD5=[84ecacb12ea416cc98f4761d0537b854]
entity ContentManagementView--><g id="elem_ContentManagementView"><path d="M1271.5,277.894 L1271.5,301.894 M1271.5,289.894 L1288.5,289.894 " fill="none" style="stroke:#181818;stroke-width:0.5;"/><ellipse cx="1300.5" cy="289.894" fill="#F1F1F1" rx="12" ry="12" style="stroke:#181818;stroke-width:0.5;"/><text fill="#000000" font-family="sans-serif" font-size="14" lengthAdjust="spacing" textLength="164" x="1210" y="318.8999">ContentManagementView</text></g><!--MD5=[34617022f1a5ee5399747a3c46871a99]
entity LoginController--><g id="elem_LoginController"><ellipse cx="127" cy="181.094" fill="#F1F1F1" rx="12" ry="12" style="stroke:#181818;stroke-width:0.5;"/><polygon fill="#181818" points="123,169.094,129,164.094,127,169.094,129,174.094,123,169.094" style="stroke:#181818;stroke-width:1.0;"/><text fill="#000000" font-family="sans-serif" font-size="14" lengthAdjust="spacing" textLength="97" x="78.5" y="210.0999">LoginController</text></g><!--MD5=[309edd467eda01668817ab7eeb9b9d37]
entity RegisterController--><g id="elem_RegisterController"><ellipse cx="268" cy="181.094" fill="#F1F1F1" rx="12" ry="12" style="stroke:#181818;stroke-width:0.5;"/><polygon fill="#181818" points="264,169.094,270,164.094,268,169.094,270,174.094,264,169.094" style="stroke:#181818;stroke-width:1.0;"/><text fill="#000000" font-family="sans-serif" font-size="14" lengthAdjust="spacing" textLength="115" x="210.5" y="210.0999">RegisterController</text></g><!--MD5=[df5a43c29c2aca1611376c90a3e1dc40]
entity EditProfileController--><g id="elem_EditProfileController"><ellipse cx="423" cy="181.094" fill="#F1F1F1" rx="12" ry="12" style="stroke:#181818;stroke-width:0.5;"/><polygon fill="#181818" points="419,169.094,425,164.094,423,169.094,425,174.094,419,169.094" style="stroke:#181818;stroke-width:1.0;"/><text fill="#000000" font-family="sans-serif" font-size="14" lengthAdjust="spacing" textLength="126" x="360" y="210.0999">EditProfileController</text></g><!--MD5=[686cb96bfde1132d891ef91bc9d97f30]
entity CommentController--><g id="elem_CommentController"><ellipse cx="583" cy="181.094" fill="#F1F1F1" rx="12" ry="12" style="stroke:#181818;stroke-width:0.5;"/><polygon fill="#181818" points="579,169.094,585,164.094,583,169.094,585,174.094,579,169.094" style="stroke:#181818;stroke-width:1.0;"/><text fill="#000000" font-family="sans-serif" font-size="14" lengthAdjust="spacing" textLength="124" x="521" y="210.0999">CommentController</text></g><!--MD5=[ff0ed4f4140f4ecff321cff69d13e2d8]
entity ReviewController--><g id="elem_ReviewController"><ellipse cx="94" cy="289.894" fill="#F1F1F1" rx="12" ry="12" style="stroke:#181818;stroke-width:0.5;"/><polygon fill="#181818" points="90,277.894,96,272.894,94,277.894,96,282.894,90,277.894" style="stroke:#181818;stroke-width:1.0;"/><text fill="#000000" font-family="sans-serif" font-size="14" lengthAdjust="spacing" textLength="108" x="40" y="318.8999">ReviewController</text></g><!--MD5=[f4b550bc58224f554219d8ed850962c5]
entity ContentController--><g id="elem_ContentController"><ellipse cx="239" cy="289.894" fill="#F1F1F1" rx="12" ry="12" style="stroke:#181818;stroke-width:0.5;"/><polygon fill="#181818" points="235,277.894,241,272.894,239,277.894,241,282.894,235,277.894" style="stroke:#181818;stroke-width:1.0;"/><text fill="#000000" font-family="sans-serif" font-size="14" lengthAdjust="spacing" textLength="112" x="183" y="318.8999">ContentController</text></g><!--MD5=[888f28adfce34a237da9ea633d7a40e7]
entity SearchAndFilterController--><g id="elem_SearchAndFilterController"><ellipse cx="412" cy="289.894" fill="#F1F1F1" rx="12" ry="12" style="stroke:#181818;stroke-width:0.5;"/><polygon fill="#181818" points="408,277.894,414,272.894,412,277.894,414,282.894,408,277.894" style="stroke:#181818;stroke-width:1.0;"/><text fill="#000000" font-family="sans-serif" font-size="14" lengthAdjust="spacing" textLength="164" x="330" y="318.8999">SearchAndFilterController</text></g><!--MD5=[9780421e2c6980761986a82efa2a6c9f]
entity WacthLaterController--><g id="elem_WacthLaterController"><ellipse cx="597" cy="289.894" fill="#F1F1F1" rx="12" ry="12" style="stroke:#181818;stroke-width:0.5;"/><polygon fill="#181818" points="593,277.894,599,272.894,597,277.894,599,282.894,593,277.894" style="stroke:#181818;stroke-width:1.0;"/><text fill="#000000" font-family="sans-serif" font-size="14" lengthAdjust="spacing" textLength="135" x="529.5" y="318.8999">WacthLaterController</text></g><!--MD5=[0ffe6054dc4a5099ec89b98916ff7319]
entity FavoriteController--><g id="elem_FavoriteController"><ellipse cx="87" cy="445.694" fill="#F1F1F1" rx="12" ry="12" style="stroke:#181818;stroke-width:0.5;"/><polygon fill="#181818" points="83,433.694,89,428.694,87,433.694,89,438.694,83,433.694" style="stroke:#181818;stroke-width:1.0;"/><text fill="#000000" font-family="sans-serif" font-size="14" lengthAdjust="spacing" textLength="114" x="30" y="474.6999">FavoriteController</text></g><!--MD5=[6dde748c651952e609a57f7e2059c498]
entity HistoryController--><g id="elem_HistoryController"><ellipse cx="232" cy="445.694" fill="#F1F1F1" rx="12" ry="12" style="stroke:#181818;stroke-width:0.5;"/><polygon fill="#181818" points="228,433.694,234,428.694,232,433.694,234,438.694,228,433.694" style="stroke:#181818;stroke-width:1.0;"/><text fill="#000000" font-family="sans-serif" font-size="14" lengthAdjust="spacing" textLength="106" x="179" y="474.6999">HistoryController</text></g><!--MD5=[6e62666fad6098c66ceac4f1e337719f]
entity NotificationController--><g id="elem_NotificationController"><ellipse cx="386" cy="445.694" fill="#F1F1F1" rx="12" ry="12" style="stroke:#181818;stroke-width:0.5;"/><polygon fill="#181818" points="382,433.694,388,428.694,386,433.694,388,438.694,382,433.694" style="stroke:#181818;stroke-width:1.0;"/><text fill="#000000" font-family="sans-serif" font-size="14" lengthAdjust="spacing" textLength="132" x="320" y="474.6999">NotificationController</text></g><!--MD5=[5259d5d70cae8c220a25960d6c250f99]
entity ContentManagementController--><g id="elem_ContentManagementController"><ellipse cx="585" cy="445.694" fill="#F1F1F1" rx="12" ry="12" style="stroke:#181818;stroke-width:0.5;"/><polygon fill="#181818" points="581,433.694,587,428.694,585,433.694,587,438.694,581,433.694" style="stroke:#181818;stroke-width:1.0;"/><text fill="#000000" font-family="sans-serif" font-size="14" lengthAdjust="spacing" textLength="196" x="487" y="474.6999">ContentManagementController</text></g><!--MD5=[fee662a292a0353a69bd162820bae93b]
entity User--><g id="elem_User"><ellipse cx="851" cy="445.694" fill="#F1F1F1" rx="12" ry="12" style="stroke:#181818;stroke-width:0.5;"/><line style="stroke:#181818;stroke-width:0.5;" x1="839" x2="863" y1="459.694" y2="459.694"/><text fill="#000000" font-family="sans-serif" font-size="14" lengthAdjust="spacing" textLength="30" x="836" y="474.6999">User</text></g><!--MD5=[823f824e164d38a3050348834b6b996c]
entity Content--><g id="elem_Content"><ellipse cx="927" cy="445.694" fill="#F1F1F1" rx="12" ry="12" style="stroke:#181818;stroke-width:0.5;"/><line style="stroke:#181818;stroke-width:0.5;" x1="915" x2="939" y1="459.694" y2="459.694"/><text fill="#000000" font-family="sans-serif" font-size="14" lengthAdjust="spacing" textLength="50" x="902" y="474.6999">Content</text></g><!--MD5=[fa2d3cc3d7939b8bf3469b942028375d]
entity Movie--><g id="elem_Movie"><ellipse cx="1006" cy="445.694" fill="#F1F1F1" rx="12" ry="12" style="stroke:#181818;stroke-width:0.5;"/><line style="stroke:#181818;stroke-width:0.5;" x1="994" x2="1018" y1="459.694" y2="459.694"/><text fill="#000000" font-family="sans-serif" font-size="14" lengthAdjust="spacing" textLength="38" x="987" y="474.6999">Movie</text></g><!--MD5=[4366dd6f71563d7dbfb34bdb51a3dbd0]
entity Serie--><g id="elem_Serie"><ellipse cx="836" cy="554.494" fill="#F1F1F1" rx="12" ry="12" style="stroke:#181818;stroke-width:0.5;"/><line style="stroke:#181818;stroke-width:0.5;" x1="824" x2="848" y1="568.494" y2="568.494"/><text fill="#000000" font-family="sans-serif" font-size="14" lengthAdjust="spacing" textLength="33" x="819.5" y="583.4999">Serie</text></g><!--MD5=[e42bc29aa597275add56e6b7785ba286]
entity Comment--><g id="elem_Comment"><ellipse cx="918" cy="554.494" fill="#F1F1F1" rx="12" ry="12" style="stroke:#181818;stroke-width:0.5;"/><line style="stroke:#181818;stroke-width:0.5;" x1="906" x2="930" y1="568.494" y2="568.494"/><text fill="#000000" font-family="sans-serif" font-size="14" lengthAdjust="spacing" textLength="62" x="887" y="583.4999">Comment</text></g><!--MD5=[900ed3785ab1338f9b56017cf8365651]
entity Review--><g id="elem_Review"><ellipse cx="1007" cy="554.494" fill="#F1F1F1" rx="12" ry="12" style="stroke:#181818;stroke-width:0.5;"/><line style="stroke:#181818;stroke-width:0.5;" x1="995" x2="1019" y1="568.494" y2="568.494"/><text fill="#000000" font-family="sans-serif" font-size="14" lengthAdjust="spacing" textLength="46" x="984" y="583.4999">Review</text></g><!--MD5=[19d16784bb5a3b3b7f2ed42a6c2fedf0]
entity Actor--><g id="elem_Actor"><ellipse cx="836" cy="663.294" fill="#F1F1F1" rx="12" ry="12" style="stroke:#181818;stroke-width:0.5;"/><line style="stroke:#181818;stroke-width:0.5;" x1="824" x2="848" y1="677.294" y2="677.294"/><text fill="#000000" font-family="sans-serif" font-size="14" lengthAdjust="spacing" textLength="33" x="819.5" y="692.2999">Actor</text></g><!--MD5=[625cffe051eb29406305c6ac4e92beab]
link views to models--><g id="link_views_models"><path d="M816.9757,179.3548 C816.5719,184.6246 816.1596,190.0045 815.7406,195.4726 C814.0645,217.3449 812.2803,240.6271 810.4962,263.909 C808.7122,287.1909 806.9282,310.4724 805.2524,332.3435 C804.4145,343.279 803.6036,353.8619 802.8334,363.9159 C802.4482,368.9429 802.0732,373.8377 801.71,378.5782 C801.5284,380.9484 801.3498,383.2801 801.1743,385.5705 C801.1524,385.8568 801.1305,386.1425 801.1087,386.4275 " fill="none" id="views-to-models" style="stroke:#181818;stroke-width:1.0;stroke-dasharray:7.0,7.0;"/><polygon fill="#181818" points="801.1087,386.4275,805.7845,377.7593,801.4906,381.4421,797.8078,377.1482,801.1087,386.4275" style="stroke:#181818;stroke-width:1.0;"/></g><!--MD5=[fd4dadafb7dfafd89665a9151015bafc]
link views to controllers--><g id="link_views_controllers"><path d="M816.9446,78.0545 C816.4526,78.271 815.9425,78.4973 815.4157,78.7332 C814.362,79.205 813.2412,79.7151 812.0636,80.262 C809.7084,81.3557 807.1259,82.5965 804.3988,83.9715 C793.49,89.4715 780.265,97.119 770,106.094 C753.19,120.789 737.8825,140.5815 726.5663,157.0852 C723.7372,161.2112 721.1576,165.1316 718.8663,168.7154 C717.7207,170.5073 716.6471,172.215 715.6505,173.8223 C715.5259,174.0232 715.4026,174.2225 715.2804,174.4202 C715.2193,174.5191 715.1586,174.6176 715.0981,174.7156 " fill="none" id="views-to-controllers" style="stroke:#181818;stroke-width:1.0;stroke-dasharray:7.0,7.0;"/><polygon fill="#181818" points="715.0981,174.7156,723.2269,169.1548,717.7226,170.4598,716.4176,164.9556,715.0981,174.7156" style="stroke:#181818;stroke-width:1.0;"/></g><!--MD5=[6bfde5656e7ece32836aeea1e9e8a819]
link controllers to models--><g id="link_controllers_models"><path d="M715.2996,214.9835 C715.4043,215.2925 715.5098,215.6039 715.6162,215.9177 C717.3176,220.9387 719.2264,226.5712 721.3011,232.693 C729.5997,257.1802 740.5519,289.4952 751.5038,321.809 C762.4556,354.1227 773.4072,386.4352 781.7045,410.9174 C783.7789,417.038 785.6873,422.6691 787.3884,427.6885 C787.4947,428.0023 787.6002,428.3136 787.7049,428.6225 C787.7573,428.7769 787.8094,428.9308 787.8613,429.084 " fill="none" id="controllers-to-models" style="stroke:#181818;stroke-width:1.0;stroke-dasharray:7.0,7.0;"/><polygon fill="#181818" points="787.8613,429.084,788.761,419.2764,786.2565,424.3486,781.1843,421.8441,787.8613,429.084" style="stroke:#181818;stroke-width:1.0;"/></g><!--MD5=[2a9e21bc8d74f3eff1f9b7ec10c6ba89]
@startuml architecture-analysis

package views {
    boundary LoginView
    boundary RegisterView        
    boundary EditProfileView
    boundary CommentView
    boundary ReviewView
    boundary ContentView        
    boundary SearchAndFilterView
    boundary WacthLaterView
    boundary FavoriteView
    boundary HistoryView
    boundary NotificationView
    boundary ContentManagementView    
}
package controllers {
    control LoginController
    control RegisterController        
    control EditProfileController
    control CommentController
    control ReviewController
    control ContentController    
    control SearchAndFilterController
    control WacthLaterController
    control FavoriteController
    control HistoryController
    control NotificationController
    control ContentManagementController    
}

package models {
    entity User
    entity Content
    entity Movie
    entity Serie
    entity Comment
    entity Review
    entity Actor        
}

views ..> models
views ..> controllers
controllers ..> models

@enduml

PlantUML version 1.2022.7(Mon Aug 22 12:01:30 ECT 2022)
(GPL source distribution)
Java Runtime: OpenJDK Runtime Environment
JVM: OpenJDK 64-Bit Server VM
Default Encoding: UTF-8
Language: en
Country: null
--></g></svg>