<?xml version="1.0" encoding="UTF-8" standalone="no"?><svg xmlns="http://www.w3.org/2000/svg" xmlns:xlink="http://www.w3.org/1999/xlink" contentStyleType="text/css" height="236px" preserveAspectRatio="none" style="width:295px;height:236px;background:#FFFFFF;" version="1.1" viewBox="0 0 295 236" width="295px" zoomAndPan="magnify"><defs/><g><!--MD5=[7c4ea47054da62bc0b8a96be21082fef]
cluster Ratings--><g id="cluster_Ratings"><rect fill="none" height="223" rx="2.5" ry="2.5" style="stroke:#181818;stroke-width:1.0;" width="209.94" x="80" y="7"/><text fill="#000000" font-family="sans-serif" font-size="14" font-weight="bold" lengthAdjust="spacing" textLength="53" x="158.47" y="22.0059">Ratings</text></g><g id="elem_View ratings"><ellipse cx="184.9723" cy="58.0005" fill="#F1F1F1" rx="66.2523" ry="15.6505" style="stroke:#181818;stroke-width:0.5;"/><text fill="#000000" font-family="sans-serif" font-size="14" lengthAdjust="spacing" textLength="77" x="143.4723" y="61.7534">View ratings</text></g><g id="elem_Add rating"><ellipse cx="184.9665" cy="124.0037" fill="#F1F1F1" rx="59.3465" ry="15.2937" style="stroke:#181818;stroke-width:0.5;"/><text fill="#000000" font-family="sans-serif" font-size="14" lengthAdjust="spacing" textLength="65" x="149.4665" y="127.7567">Add rating</text></g><g id="elem_Filter ratings by score"><ellipse cx="184.9701" cy="194.004" fill="#F1F1F1" rx="88.9701" ry="20.194" style="stroke:#181818;stroke-width:0.5;"/><text fill="#000000" font-family="sans-serif" font-size="14" lengthAdjust="spacing" textLength="137" x="113.4701" y="197.757">Filter ratings by score</text></g><!--MD5=[fee662a292a0353a69bd162820bae93b]
entity User--><g id="elem_User"><ellipse cx="21" cy="94.1" fill="#F1F1F1" rx="8" ry="8" style="stroke:#181818;stroke-width:0.5;"/><path d="M21,102.1 L21,129.1 M8,110.1 L34,110.1 M21,129.1 L8,144.1 M21,129.1 L34,144.1 " fill="none" style="stroke:#181818;stroke-width:0.5;"/><text fill="#000000" font-family="sans-serif" font-size="14" lengthAdjust="spacing" textLength="30" x="6" y="158.6059">User</text></g><!--MD5=[fd895bc64ff0bf0cc84f82e1fc641d9d]
link User to View ratings--><g id="link_User_View ratings"><path d="M36.2,112.97 C45.86,105.9 59.17,96.96 72,91 C92.12,81.65 115.52,74.26 135.7,68.86 " fill="none" id="User-View ratings" style="stroke:#181818;stroke-width:1.0;"/></g><!--MD5=[3cd963c68aeb9d1a6dc0c4bfbc2be031]
link User to Add rating--><g id="link_User_Add rating"><path d="M36.37,124 C56.27,124 93.38,124 125.41,124 " fill="none" id="User-Add rating" style="stroke:#181818;stroke-width:1.0;"/></g><!--MD5=[11ab0331f3bde0c830b6886b662fc10d]
link User to Filter ratings by score--><g id="link_User_Filter ratings by score"><path d="M36.27,134.89 C45.96,141.9 59.27,150.83 72,157 C89.23,165.35 108.81,172.53 126.72,178.29 " fill="none" id="User-Filter ratings by score" style="stroke:#181818;stroke-width:1.0;"/></g><!--MD5=[691f0b7799d5aef70c7c41e8b38db3a3]
@startuml ratings
left to right direction
actor User
    rectangle "Ratings" {        
        User - - (View ratings)
        User - - (Add rating)
        User - - (Filter ratings by score)
    }
@enduml

PlantUML version 1.2022.7(Mon Aug 22 12:01:30 ECT 2022)
(GPL source distribution)
Java Runtime: OpenJDK Runtime Environment
JVM: OpenJDK 64-Bit Server VM
Default Encoding: UTF-8
Language: en
Country: null
--></g></svg>