<?xml version="1.0" encoding="UTF-8" standalone="no"?><svg xmlns="http://www.w3.org/2000/svg" xmlns:xlink="http://www.w3.org/1999/xlink" contentStyleType="text/css" height="729px" preserveAspectRatio="none" style="width:805px;height:729px;background:#FFFFFF;" version="1.1" viewBox="0 0 805 729" width="805px" zoomAndPan="magnify"><defs/><g><!--MD5=[540be22caa450814a6d6472fad912f6e]
class Categoría--><g id="elem_Categoría"><rect codeLine="18" fill="#F1F1F1" height="215.9993" id="Categoría" rx="2.5" ry="2.5" style="stroke:#181818;stroke-width:0.5;" width="299" x="155" y="507"/><ellipse cx="268.75" cy="523" fill="#EB937F" rx="11" ry="11" style="stroke:#181818;stroke-width:1.0;"/><path d="M267.6094,524.0625 L268.9219,524.0625 L268.9219,524.1094 C268.9219,524.5156 268.9375,524.6719 269.0469,524.8281 C269.2188,525.0781 269.5156,525.25 269.8281,525.25 C270.1094,525.25 270.4063,525.1094 270.5781,524.8906 C270.7031,524.7031 270.75,524.5625 270.75,524.1094 L270.75,522.2656 C270.75,521.9375 270.7344,521.8281 270.6719,521.6563 C270.5625,521.3594 270.2031,521.1094 269.8281,521.1094 C269.5313,521.1094 269.2656,521.25 269.0938,521.4688 C268.9531,521.6563 268.9219,521.8281 268.9219,522.2656 L268.9219,522.3281 L267.6094,522.3281 L267.6094,520.1563 L271.4531,520.1563 L271.4531,520.9063 C271.4531,521.2969 271.4844,521.4844 271.5938,521.6406 C271.7656,521.8906 272.0625,522.0625 272.375,522.0625 C272.6719,522.0625 272.9375,521.9375 273.125,521.7031 C273.2656,521.5156 273.2969,521.375 273.2969,520.9063 L273.2969,518.4063 L265.5938,518.4063 C265.1406,518.4063 265.0156,518.4219 264.8438,518.5313 C264.5781,518.7031 264.4063,518.9688 264.4063,519.2813 C264.4063,519.5625 264.5313,519.8281 264.7813,520 C264.9688,520.125 265.1563,520.1563 265.5938,520.1563 L265.7813,520.1563 L265.7813,526.25 L265.5938,526.25 C265.1719,526.25 265.0156,526.2813 264.8438,526.375 C264.5781,526.5313 264.4063,526.8125 264.4063,527.1094 C264.4063,527.6875 264.8125,528 265.5938,528 L273.6719,528 L273.6719,525.4688 C273.6719,525.0625 273.6406,524.8906 273.5313,524.7344 C273.3594,524.4688 273.0781,524.3125 272.75,524.3125 C272.4688,524.3125 272.1875,524.4531 272,524.6719 C271.8594,524.8594 271.8281,525.0156 271.8281,525.4688 L271.8281,526.25 L267.6094,526.25 L267.6094,524.0625 Z " fill="#000000"/><text fill="#000000" font-family="sans-serif" font-size="14" lengthAdjust="spacing" textLength="63" x="289.25" y="527.606">Categoría</text><line style="stroke:#181818;stroke-width:0.5;" x1="156" x2="453" y1="539" y2="539"/><ellipse cx="166" cy="552.9" fill="none" rx="3" ry="3" style="stroke:#038048;stroke-width:1.0;"/><text fill="#000000" font-family="sans-serif" font-size="14" lengthAdjust="spacing" textLength="273" x="175" y="556.0059">LIBROS_TEXTO_MATERIAL_EDUCATIVO</text><ellipse cx="166" cy="569.6999" fill="none" rx="3" ry="3" style="stroke:#038048;stroke-width:1.0;"/><text fill="#000000" font-family="sans-serif" font-size="14" lengthAdjust="spacing" textLength="162" x="175" y="572.8059">MATERIAL_DE_OFICINA</text><ellipse cx="166" cy="586.4998" fill="none" rx="3" ry="3" style="stroke:#038048;stroke-width:1.0;"/><text fill="#000000" font-family="sans-serif" font-size="14" lengthAdjust="spacing" textLength="99" x="175" y="589.6058">ELECTRÓNICA</text><ellipse cx="166" cy="603.2997" fill="none" rx="3" ry="3" style="stroke:#038048;stroke-width:1.0;"/><text fill="#000000" font-family="sans-serif" font-size="14" lengthAdjust="spacing" textLength="201" x="175" y="606.4057">MOBILIARIO_Y_DECORACIÓN</text><ellipse cx="166" cy="620.0997" fill="none" rx="3" ry="3" style="stroke:#038048;stroke-width:1.0;"/><text fill="#000000" font-family="sans-serif" font-size="14" lengthAdjust="spacing" textLength="106" x="175" y="623.2057">INDUMENTARIA</text><ellipse cx="166" cy="636.8996" fill="none" rx="3" ry="3" style="stroke:#038048;stroke-width:1.0;"/><text fill="#000000" font-family="sans-serif" font-size="14" lengthAdjust="spacing" textLength="206" x="175" y="640.0056">MATERIAL_DE_LABORATORIO</text><ellipse cx="166" cy="653.6995" fill="none" rx="3" ry="3" style="stroke:#038048;stroke-width:1.0;"/><text fill="#000000" font-family="sans-serif" font-size="14" lengthAdjust="spacing" textLength="200" x="175" y="656.8055">INSTRUMENTOS_MUSICALES</text><ellipse cx="166" cy="670.4995" fill="none" rx="3" ry="3" style="stroke:#038048;stroke-width:1.0;"/><text fill="#000000" font-family="sans-serif" font-size="14" lengthAdjust="spacing" textLength="179" x="175" y="673.6054">ARTÍCULOS_DEPORTIVOS</text><ellipse cx="166" cy="687.2994" fill="none" rx="3" ry="3" style="stroke:#038048;stroke-width:1.0;"/><text fill="#000000" font-family="sans-serif" font-size="14" lengthAdjust="spacing" textLength="130" x="175" y="690.4054">ARTES_MANUALES</text><ellipse cx="166" cy="704.0993" fill="none" rx="3" ry="3" style="stroke:#038048;stroke-width:1.0;"/><text fill="#000000" font-family="sans-serif" font-size="14" lengthAdjust="spacing" textLength="139" x="175" y="707.2053">JUEGOS_JUGUETES</text><line style="stroke:#181818;stroke-width:0.5;" x1="156" x2="453" y1="714.9993" y2="714.9993"/></g><!--MD5=[d8933eb2ae217ae3c21bf6e2973c277f]
class Estado--><g id="elem_Estado"><rect codeLine="31" fill="#F1F1F1" height="115.1997" id="Estado" rx="2.5" ry="2.5" style="stroke:#181818;stroke-width:0.5;" width="128" x="489.5" y="557.4"/><ellipse cx="527.9" cy="573.4" fill="#EB937F" rx="11" ry="11" style="stroke:#181818;stroke-width:1.0;"/><path d="M526.7594,574.4625 L528.0719,574.4625 L528.0719,574.5094 C528.0719,574.9156 528.0875,575.0719 528.1969,575.2281 C528.3688,575.4781 528.6656,575.65 528.9781,575.65 C529.2594,575.65 529.5563,575.5094 529.7281,575.2906 C529.8531,575.1031 529.9,574.9625 529.9,574.5094 L529.9,572.6656 C529.9,572.3375 529.8844,572.2281 529.8219,572.0563 C529.7125,571.7594 529.3531,571.5094 528.9781,571.5094 C528.6813,571.5094 528.4156,571.65 528.2438,571.8688 C528.1031,572.0563 528.0719,572.2281 528.0719,572.6656 L528.0719,572.7281 L526.7594,572.7281 L526.7594,570.5563 L530.6031,570.5563 L530.6031,571.3063 C530.6031,571.6969 530.6344,571.8844 530.7438,572.0406 C530.9156,572.2906 531.2125,572.4625 531.525,572.4625 C531.8219,572.4625 532.0875,572.3375 532.275,572.1031 C532.4156,571.9156 532.4469,571.775 532.4469,571.3063 L532.4469,568.8063 L524.7438,568.8063 C524.2906,568.8063 524.1656,568.8219 523.9938,568.9313 C523.7281,569.1031 523.5563,569.3688 523.5563,569.6813 C523.5563,569.9625 523.6813,570.2281 523.9313,570.4 C524.1188,570.525 524.3063,570.5563 524.7438,570.5563 L524.9313,570.5563 L524.9313,576.65 L524.7438,576.65 C524.3219,576.65 524.1656,576.6813 523.9938,576.775 C523.7281,576.9313 523.5563,577.2125 523.5563,577.5094 C523.5563,578.0875 523.9625,578.4 524.7438,578.4 L532.8219,578.4 L532.8219,575.8688 C532.8219,575.4625 532.7906,575.2906 532.6813,575.1344 C532.5094,574.8688 532.2281,574.7125 531.9,574.7125 C531.6188,574.7125 531.3375,574.8531 531.15,575.0719 C531.0094,575.2594 530.9781,575.4156 530.9781,575.8688 L530.9781,576.65 L526.7594,576.65 L526.7594,574.4625 Z " fill="#000000"/><text fill="#000000" font-family="sans-serif" font-size="14" lengthAdjust="spacing" textLength="44" x="547.1" y="578.006">Estado</text><line style="stroke:#181818;stroke-width:0.5;" x1="490.5" x2="616.5" y1="589.4" y2="589.4"/><ellipse cx="500.5" cy="603.3" fill="none" rx="3" ry="3" style="stroke:#038048;stroke-width:1.0;"/><text fill="#000000" font-family="sans-serif" font-size="14" lengthAdjust="spacing" textLength="49" x="509.5" y="606.4059">NUEVO</text><ellipse cx="500.5" cy="620.0999" fill="none" rx="3" ry="3" style="stroke:#038048;stroke-width:1.0;"/><text fill="#000000" font-family="sans-serif" font-size="14" lengthAdjust="spacing" textLength="91" x="509.5" y="623.2059">SEMI_NUEVO</text><ellipse cx="500.5" cy="636.8998" fill="none" rx="3" ry="3" style="stroke:#038048;stroke-width:1.0;"/><text fill="#000000" font-family="sans-serif" font-size="14" lengthAdjust="spacing" textLength="49" x="509.5" y="640.0058">USADO</text><ellipse cx="500.5" cy="653.6997" fill="none" rx="3" ry="3" style="stroke:#038048;stroke-width:1.0;"/><text fill="#000000" font-family="sans-serif" font-size="14" lengthAdjust="spacing" textLength="102" x="509.5" y="656.8057">BAJA_CALIDAD</text><line style="stroke:#181818;stroke-width:0.5;" x1="490.5" x2="616.5" y1="664.5997" y2="664.5997"/></g><!--MD5=[33ce75c1bd50ecbc317a341a10da6d77]
class TipoArtículo--><g id="elem_TipoArtículo"><rect codeLine="38" fill="#F1F1F1" height="81.5999" id="TipoArtículo" rx="2.5" ry="2.5" style="stroke:#181818;stroke-width:0.5;" width="113" x="7" y="574.2"/><ellipse cx="24.25" cy="590.2" fill="#EB937F" rx="11" ry="11" style="stroke:#181818;stroke-width:1.0;"/><path d="M23.1094,591.2625 L24.4219,591.2625 L24.4219,591.3094 C24.4219,591.7156 24.4375,591.8719 24.5469,592.0281 C24.7188,592.2781 25.0156,592.45 25.3281,592.45 C25.6094,592.45 25.9063,592.3094 26.0781,592.0906 C26.2031,591.9031 26.25,591.7625 26.25,591.3094 L26.25,589.4656 C26.25,589.1375 26.2344,589.0281 26.1719,588.8563 C26.0625,588.5594 25.7031,588.3094 25.3281,588.3094 C25.0313,588.3094 24.7656,588.45 24.5938,588.6688 C24.4531,588.8563 24.4219,589.0281 24.4219,589.4656 L24.4219,589.5281 L23.1094,589.5281 L23.1094,587.3563 L26.9531,587.3563 L26.9531,588.1063 C26.9531,588.4969 26.9844,588.6844 27.0938,588.8406 C27.2656,589.0906 27.5625,589.2625 27.875,589.2625 C28.1719,589.2625 28.4375,589.1375 28.625,588.9031 C28.7656,588.7156 28.7969,588.575 28.7969,588.1063 L28.7969,585.6063 L21.0938,585.6063 C20.6406,585.6063 20.5156,585.6219 20.3438,585.7313 C20.0781,585.9031 19.9063,586.1688 19.9063,586.4813 C19.9063,586.7625 20.0313,587.0281 20.2813,587.2 C20.4688,587.325 20.6563,587.3563 21.0938,587.3563 L21.2813,587.3563 L21.2813,593.45 L21.0938,593.45 C20.6719,593.45 20.5156,593.4813 20.3438,593.575 C20.0781,593.7313 19.9063,594.0125 19.9063,594.3094 C19.9063,594.8875 20.3125,595.2 21.0938,595.2 L29.1719,595.2 L29.1719,592.6688 C29.1719,592.2625 29.1406,592.0906 29.0313,591.9344 C28.8594,591.6688 28.5781,591.5125 28.25,591.5125 C27.9688,591.5125 27.6875,591.6531 27.5,591.8719 C27.3594,592.0594 27.3281,592.2156 27.3281,592.6688 L27.3281,593.45 L23.1094,593.45 L23.1094,591.2625 Z " fill="#000000"/><text fill="#000000" font-family="sans-serif" font-size="14" lengthAdjust="spacing" textLength="76" x="38.75" y="594.806">TipoArtículo</text><line style="stroke:#181818;stroke-width:0.5;" x1="8" x2="119" y1="606.2" y2="606.2"/><ellipse cx="18" cy="620.1" fill="none" rx="3" ry="3" style="stroke:#038048;stroke-width:1.0;"/><text fill="#000000" font-family="sans-serif" font-size="14" lengthAdjust="spacing" textLength="80" x="27" y="623.2059">PUBLICADO</text><ellipse cx="18" cy="636.8999" fill="none" rx="3" ry="3" style="stroke:#038048;stroke-width:1.0;"/><text fill="#000000" font-family="sans-serif" font-size="14" lengthAdjust="spacing" textLength="87" x="27" y="640.0059">PROPUESTO</text><line style="stroke:#181818;stroke-width:0.5;" x1="8" x2="119" y1="647.7999" y2="647.7999"/></g><!--MD5=[6f2046564139e9e072de7b49b613890d]
class Unimart--><g id="elem_Unimart"><rect fill="#F1F1F1" height="48" id="Unimart" rx="2.5" ry="2.5" style="stroke:#181818;stroke-width:0.5;" width="82" x="380.5" y="7"/><ellipse cx="395.5" cy="23" fill="#ADD1B2" rx="11" ry="11" style="stroke:#181818;stroke-width:1.0;"/><path d="M390.5,24.1563 C390.5,26.6563 392.6406,28.4688 395.5625,28.4688 C396.7969,28.4688 397.9688,28.1719 398.7188,27.6563 C399.3281,27.2344 399.6563,26.8125 399.6563,26.4063 C399.6563,25.9375 399.2344,25.5313 398.7344,25.5313 C398.5,25.5313 398.2813,25.6094 398.0781,25.8125 C397.6406,26.25 397.6406,26.25 397.4688,26.3438 C397.0156,26.5781 396.375,26.7188 395.6094,26.7188 C393.6094,26.7188 392.3281,25.7031 392.3281,24.125 L392.3281,23.0781 C392.3281,21.375 393.5469,20.1719 395.25,20.1719 C395.8281,20.1719 396.4063,20.3125 396.875,20.5625 C397.3438,20.8281 397.5156,21.0156 397.5781,21.375 C397.7031,22.0469 397.9531,22.2969 398.4844,22.2969 C398.7656,22.2969 399.0469,22.1563 399.2344,21.9375 C399.3594,21.7656 399.4063,21.5938 399.4063,21.1563 L399.4063,19.7969 C399.4063,19.375 399.3906,19.2344 399.2656,19.0625 C399.0938,18.8125 398.8125,18.6563 398.4844,18.6563 C398.1719,18.6563 397.9688,18.7656 397.75,19.0313 C396.5781,18.5313 396.1406,18.4219 395.1875,18.4219 C392.5156,18.4219 390.5,20.4375 390.5,23.0625 L390.5,24.1563 Z " fill="#000000"/><text fill="#000000" font-family="sans-serif" font-size="14" lengthAdjust="spacing" textLength="50" x="409.5" y="27.606">Unimart</text><line style="stroke:#181818;stroke-width:0.5;" x1="381.5" x2="461.5" y1="39" y2="39"/><line style="stroke:#181818;stroke-width:0.5;" x1="381.5" x2="461.5" y1="47" y2="47"/></g><!--MD5=[35a64b983c79880384a2fd9b61f0c24b]
class Usuario--><g id="elem_Usuario"><rect fill="#F1F1F1" height="48" id="Usuario" rx="2.5" ry="2.5" style="stroke:#181818;stroke-width:0.5;" width="81" x="582" y="132"/><ellipse cx="597" cy="148" fill="#ADD1B2" rx="11" ry="11" style="stroke:#181818;stroke-width:1.0;"/><path d="M592,149.1563 C592,151.6563 594.1406,153.4688 597.0625,153.4688 C598.2969,153.4688 599.4688,153.1719 600.2188,152.6563 C600.8281,152.2344 601.1563,151.8125 601.1563,151.4063 C601.1563,150.9375 600.7344,150.5313 600.2344,150.5313 C600,150.5313 599.7813,150.6094 599.5781,150.8125 C599.1406,151.25 599.1406,151.25 598.9688,151.3438 C598.5156,151.5781 597.875,151.7188 597.1094,151.7188 C595.1094,151.7188 593.8281,150.7031 593.8281,149.125 L593.8281,148.0781 C593.8281,146.375 595.0469,145.1719 596.75,145.1719 C597.3281,145.1719 597.9063,145.3125 598.375,145.5625 C598.8438,145.8281 599.0156,146.0156 599.0781,146.375 C599.2031,147.0469 599.4531,147.2969 599.9844,147.2969 C600.2656,147.2969 600.5469,147.1563 600.7344,146.9375 C600.8594,146.7656 600.9063,146.5938 600.9063,146.1563 L600.9063,144.7969 C600.9063,144.375 600.8906,144.2344 600.7656,144.0625 C600.5938,143.8125 600.3125,143.6563 599.9844,143.6563 C599.6719,143.6563 599.4688,143.7656 599.25,144.0313 C598.0781,143.5313 597.6406,143.4219 596.6875,143.4219 C594.0156,143.4219 592,145.4375 592,148.0625 L592,149.1563 Z " fill="#000000"/><text fill="#000000" font-family="sans-serif" font-size="14" lengthAdjust="spacing" textLength="49" x="611" y="152.606">Usuario</text><line style="stroke:#181818;stroke-width:0.5;" x1="583" x2="662" y1="164" y2="164"/><line style="stroke:#181818;stroke-width:0.5;" x1="583" x2="662" y1="172" y2="172"/></g><!--MD5=[6cdf19b50a10ed1c859c6e61f5f942bd]
class Artículo--><g id="elem_Artículo"><rect fill="#F1F1F1" height="48" id="Artículo" rx="2.5" ry="2.5" style="stroke:#181818;stroke-width:0.5;" width="80" x="500.5" y="382"/><ellipse cx="515.5" cy="398" fill="#ADD1B2" rx="11" ry="11" style="stroke:#181818;stroke-width:1.0;"/><path d="M510.5,399.1563 C510.5,401.6563 512.6406,403.4688 515.5625,403.4688 C516.7969,403.4688 517.9688,403.1719 518.7188,402.6563 C519.3281,402.2344 519.6563,401.8125 519.6563,401.4063 C519.6563,400.9375 519.2344,400.5313 518.7344,400.5313 C518.5,400.5313 518.2813,400.6094 518.0781,400.8125 C517.6406,401.25 517.6406,401.25 517.4688,401.3438 C517.0156,401.5781 516.375,401.7188 515.6094,401.7188 C513.6094,401.7188 512.3281,400.7031 512.3281,399.125 L512.3281,398.0781 C512.3281,396.375 513.5469,395.1719 515.25,395.1719 C515.8281,395.1719 516.4063,395.3125 516.875,395.5625 C517.3438,395.8281 517.5156,396.0156 517.5781,396.375 C517.7031,397.0469 517.9531,397.2969 518.4844,397.2969 C518.7656,397.2969 519.0469,397.1563 519.2344,396.9375 C519.3594,396.7656 519.4063,396.5938 519.4063,396.1563 L519.4063,394.7969 C519.4063,394.375 519.3906,394.2344 519.2656,394.0625 C519.0938,393.8125 518.8125,393.6563 518.4844,393.6563 C518.1719,393.6563 517.9688,393.7656 517.75,394.0313 C516.5781,393.5313 516.1406,393.4219 515.1875,393.4219 C512.5156,393.4219 510.5,395.4375 510.5,398.0625 L510.5,399.1563 Z " fill="#000000"/><text fill="#000000" font-family="sans-serif" font-size="14" lengthAdjust="spacing" textLength="48" x="529.5" y="402.606">Artículo</text><line style="stroke:#181818;stroke-width:0.5;" x1="501.5" x2="579.5" y1="414" y2="414"/><line style="stroke:#181818;stroke-width:0.5;" x1="501.5" x2="579.5" y1="422" y2="422"/></g><!--MD5=[0196a8ff4cd5d1b57bea9751646f775e]
class Calificación--><g id="elem_Calificación"><rect fill="#F1F1F1" height="48" id="Calificación" rx="2.5" ry="2.5" style="stroke:#181818;stroke-width:0.5;" width="104" x="450.5" y="257"/><ellipse cx="465.5" cy="273" fill="#ADD1B2" rx="11" ry="11" style="stroke:#181818;stroke-width:1.0;"/><path d="M460.5,274.1563 C460.5,276.6563 462.6406,278.4688 465.5625,278.4688 C466.7969,278.4688 467.9688,278.1719 468.7188,277.6563 C469.3281,277.2344 469.6563,276.8125 469.6563,276.4063 C469.6563,275.9375 469.2344,275.5313 468.7344,275.5313 C468.5,275.5313 468.2813,275.6094 468.0781,275.8125 C467.6406,276.25 467.6406,276.25 467.4688,276.3438 C467.0156,276.5781 466.375,276.7188 465.6094,276.7188 C463.6094,276.7188 462.3281,275.7031 462.3281,274.125 L462.3281,273.0781 C462.3281,271.375 463.5469,270.1719 465.25,270.1719 C465.8281,270.1719 466.4063,270.3125 466.875,270.5625 C467.3438,270.8281 467.5156,271.0156 467.5781,271.375 C467.7031,272.0469 467.9531,272.2969 468.4844,272.2969 C468.7656,272.2969 469.0469,272.1563 469.2344,271.9375 C469.3594,271.7656 469.4063,271.5938 469.4063,271.1563 L469.4063,269.7969 C469.4063,269.375 469.3906,269.2344 469.2656,269.0625 C469.0938,268.8125 468.8125,268.6563 468.4844,268.6563 C468.1719,268.6563 467.9688,268.7656 467.75,269.0313 C466.5781,268.5313 466.1406,268.4219 465.1875,268.4219 C462.5156,268.4219 460.5,270.4375 460.5,273.0625 L460.5,274.1563 Z " fill="#000000"/><text fill="#000000" font-family="sans-serif" font-size="14" lengthAdjust="spacing" textLength="72" x="479.5" y="277.606">Calificación</text><line style="stroke:#181818;stroke-width:0.5;" x1="451.5" x2="553.5" y1="289" y2="289"/><line style="stroke:#181818;stroke-width:0.5;" x1="451.5" x2="553.5" y1="297" y2="297"/></g><!--MD5=[8ea98417a3eb2f0bb92994a7167d94b3]
class Publicación--><g id="elem_Publicación"><rect fill="#F1F1F1" height="48" id="Publicación" rx="2.5" ry="2.5" style="stroke:#181818;stroke-width:0.5;" width="104" x="589.5" y="257"/><ellipse cx="604.5" cy="273" fill="#ADD1B2" rx="11" ry="11" style="stroke:#181818;stroke-width:1.0;"/><path d="M599.5,274.1563 C599.5,276.6563 601.6406,278.4688 604.5625,278.4688 C605.7969,278.4688 606.9688,278.1719 607.7188,277.6563 C608.3281,277.2344 608.6563,276.8125 608.6563,276.4063 C608.6563,275.9375 608.2344,275.5313 607.7344,275.5313 C607.5,275.5313 607.2813,275.6094 607.0781,275.8125 C606.6406,276.25 606.6406,276.25 606.4688,276.3438 C606.0156,276.5781 605.375,276.7188 604.6094,276.7188 C602.6094,276.7188 601.3281,275.7031 601.3281,274.125 L601.3281,273.0781 C601.3281,271.375 602.5469,270.1719 604.25,270.1719 C604.8281,270.1719 605.4063,270.3125 605.875,270.5625 C606.3438,270.8281 606.5156,271.0156 606.5781,271.375 C606.7031,272.0469 606.9531,272.2969 607.4844,272.2969 C607.7656,272.2969 608.0469,272.1563 608.2344,271.9375 C608.3594,271.7656 608.4063,271.5938 608.4063,271.1563 L608.4063,269.7969 C608.4063,269.375 608.3906,269.2344 608.2656,269.0625 C608.0938,268.8125 607.8125,268.6563 607.4844,268.6563 C607.1719,268.6563 606.9688,268.7656 606.75,269.0313 C605.5781,268.5313 605.1406,268.4219 604.1875,268.4219 C601.5156,268.4219 599.5,270.4375 599.5,273.0625 L599.5,274.1563 Z " fill="#000000"/><text fill="#000000" font-family="sans-serif" font-size="14" lengthAdjust="spacing" textLength="72" x="618.5" y="277.606">Publicación</text><line style="stroke:#181818;stroke-width:0.5;" x1="590.5" x2="692.5" y1="289" y2="289"/><line style="stroke:#181818;stroke-width:0.5;" x1="590.5" x2="692.5" y1="297" y2="297"/></g><!--MD5=[452cfc5b9b5eb0cd97ff2ed4a094fb91]
class ArtículoPropuesto--><g id="elem_ArtículoPropuesto"><rect fill="#F1F1F1" height="48" id="ArtículoPropuesto" rx="2.5" ry="2.5" style="stroke:#181818;stroke-width:0.5;" width="145" x="653" y="591"/><ellipse cx="668" cy="607" fill="#ADD1B2" rx="11" ry="11" style="stroke:#181818;stroke-width:1.0;"/><path d="M663,608.1563 C663,610.6563 665.1406,612.4688 668.0625,612.4688 C669.2969,612.4688 670.4688,612.1719 671.2188,611.6563 C671.8281,611.2344 672.1563,610.8125 672.1563,610.4063 C672.1563,609.9375 671.7344,609.5313 671.2344,609.5313 C671,609.5313 670.7813,609.6094 670.5781,609.8125 C670.1406,610.25 670.1406,610.25 669.9688,610.3438 C669.5156,610.5781 668.875,610.7188 668.1094,610.7188 C666.1094,610.7188 664.8281,609.7031 664.8281,608.125 L664.8281,607.0781 C664.8281,605.375 666.0469,604.1719 667.75,604.1719 C668.3281,604.1719 668.9063,604.3125 669.375,604.5625 C669.8438,604.8281 670.0156,605.0156 670.0781,605.375 C670.2031,606.0469 670.4531,606.2969 670.9844,606.2969 C671.2656,606.2969 671.5469,606.1563 671.7344,605.9375 C671.8594,605.7656 671.9063,605.5938 671.9063,605.1563 L671.9063,603.7969 C671.9063,603.375 671.8906,603.2344 671.7656,603.0625 C671.5938,602.8125 671.3125,602.6563 670.9844,602.6563 C670.6719,602.6563 670.4688,602.7656 670.25,603.0313 C669.0781,602.5313 668.6406,602.4219 667.6875,602.4219 C665.0156,602.4219 663,604.4375 663,607.0625 L663,608.1563 Z " fill="#000000"/><text fill="#000000" font-family="sans-serif" font-size="14" lengthAdjust="spacing" textLength="113" x="682" y="611.606">ArtículoPropuesto</text><line style="stroke:#181818;stroke-width:0.5;" x1="654" x2="797" y1="623" y2="623"/><line style="stroke:#181818;stroke-width:0.5;" x1="654" x2="797" y1="631" y2="631"/></g><!--MD5=[5fedf083beaa521e78776610d5173eca]
class Intercambio--><g id="elem_Intercambio"><rect fill="#F1F1F1" height="48" id="Intercambio" rx="2.5" ry="2.5" style="stroke:#181818;stroke-width:0.5;" width="107" x="510" y="7"/><ellipse cx="525" cy="23" fill="#ADD1B2" rx="11" ry="11" style="stroke:#181818;stroke-width:1.0;"/><path d="M520,24.1563 C520,26.6563 522.1406,28.4688 525.0625,28.4688 C526.2969,28.4688 527.4688,28.1719 528.2188,27.6563 C528.8281,27.2344 529.1563,26.8125 529.1563,26.4063 C529.1563,25.9375 528.7344,25.5313 528.2344,25.5313 C528,25.5313 527.7813,25.6094 527.5781,25.8125 C527.1406,26.25 527.1406,26.25 526.9688,26.3438 C526.5156,26.5781 525.875,26.7188 525.1094,26.7188 C523.1094,26.7188 521.8281,25.7031 521.8281,24.125 L521.8281,23.0781 C521.8281,21.375 523.0469,20.1719 524.75,20.1719 C525.3281,20.1719 525.9063,20.3125 526.375,20.5625 C526.8438,20.8281 527.0156,21.0156 527.0781,21.375 C527.2031,22.0469 527.4531,22.2969 527.9844,22.2969 C528.2656,22.2969 528.5469,22.1563 528.7344,21.9375 C528.8594,21.7656 528.9063,21.5938 528.9063,21.1563 L528.9063,19.7969 C528.9063,19.375 528.8906,19.2344 528.7656,19.0625 C528.5938,18.8125 528.3125,18.6563 527.9844,18.6563 C527.6719,18.6563 527.4688,18.7656 527.25,19.0313 C526.0781,18.5313 525.6406,18.4219 524.6875,18.4219 C522.0156,18.4219 520,20.4375 520,23.0625 L520,24.1563 Z " fill="#000000"/><text fill="#000000" font-family="sans-serif" font-size="14" lengthAdjust="spacing" textLength="75" x="539" y="27.606">Intercambio</text><line style="stroke:#181818;stroke-width:0.5;" x1="511" x2="616" y1="39" y2="39"/><line style="stroke:#181818;stroke-width:0.5;" x1="511" x2="616" y1="47" y2="47"/></g><!--MD5=[febd9a6daf343bc19079e0e21eb45881]
link Unimart to Usuario--><g id="link_Unimart_Usuario"><path codeLine="43" d="M471.0148,61.6949 C471.0148,61.6949 541.81,105.62 572.6,124.46 " fill="none" id="Unimart-Usuario" style="stroke:#181818;stroke-width:1.0;"/><polygon fill="#181818" points="583.36,131.66,577.7722,123.5497,579.0955,129.0496,573.5956,130.373,583.36,131.66" style="stroke:#181818;stroke-width:1.0;"/><line style="stroke:#181818;stroke-width:1.0;" x1="579.0955" x2="572.275" y1="129.0496" y2="124.88"/><polygon fill="#181818" points="460.78,55.43,463.8091,61.974,471.0148,61.6949,467.9857,55.1508,460.78,55.43" style="stroke:#181818;stroke-width:1.0;"/><text fill="#000000" font-family="sans-serif" font-size="13" lengthAdjust="spacing" textLength="24" x="534.5" y="98.077">1..N</text></g><!--MD5=[65578eb90ddc36933db4a89542281cfa]
link Unimart to Artículo--><g id="link_Unimart_Artículo"><path codeLine="44" d="M414.9643,68.1345 C414.9643,68.1345 397.69,227.24 433.5,305 C446.15,332.46 470.13,355.99 492.19,373.31 " fill="none" id="Unimart-Artículo" style="stroke:#181818;stroke-width:1.0;"/><polygon fill="#181818" points="502.14,381.55,497.3532,372.9426,498.1446,378.5438,492.5434,379.3352,502.14,381.55" style="stroke:#181818;stroke-width:1.0;"/><line style="stroke:#181818;stroke-width:1.0;" x1="498.1446" x2="491.755" y1="378.5438" y2="373.735"/><polygon fill="#181818" points="416.89,56.29,411.979,61.5703,414.9643,68.1345,419.8753,62.8541,416.89,56.29" style="stroke:#181818;stroke-width:1.0;"/><text fill="#000000" font-family="sans-serif" font-size="13" lengthAdjust="spacing" textLength="24" x="412.5" y="223.077">1..N</text></g><!--MD5=[b7398a6c5ef5c8d1bb20342d968c5b78]
link Usuario to Calificación--><g id="link_Usuario_Calificación"><path codeLine="45" d="M590.2708,190.02 C590.2708,190.02 551.97,229.29 534.85,246.84 " fill="none" id="Usuario-Calificación" style="stroke:#181818;stroke-width:1.0;"/><polygon fill="#181818" points="526.27,255.66,535.4206,252.0176,529.7641,252.0835,529.6982,246.427,526.27,255.66" style="stroke:#181818;stroke-width:1.0;"/><line style="stroke:#181818;stroke-width:1.0;" x1="529.7641" x2="535.345" y1="252.0835" y2="246.36"/><polygon fill="none" points="598.65,181.43,591.597,182.9319,590.2708,190.02,597.3237,188.5181,598.65,181.43" style="stroke:#181818;stroke-width:1.0;"/><text fill="#000000" font-family="sans-serif" font-size="13" lengthAdjust="spacing" textLength="24" x="570.5" y="223.077">0..N</text></g><!--MD5=[961034ca48675d63d91f98c5e9ba59e3]
link Usuario to Artículo--><g id="link_Usuario_Artículo"><path codeLine="46" d="M663.5934,188.3393 C663.5934,188.3393 733.4,264.96 710.5,305 C685.68,348.4 633.88,374.82 593.94,389.51 " fill="none" id="Usuario-Artículo" style="stroke:#181818;stroke-width:1.0;"/><polygon fill="#181818" points="581.91,394.06,591.7247,394.8791,586.6321,392.4163,589.0949,387.3237,581.91,394.06" style="stroke:#181818;stroke-width:1.0;"/><line style="stroke:#181818;stroke-width:1.0;" x1="586.6321" x2="594.185" y1="392.4163" y2="389.775"/><polygon fill="none" points="654.56,180.44,656.4436,187.4008,663.5934,188.3393,661.7098,181.3785,654.56,180.44" style="stroke:#181818;stroke-width:1.0;"/><text fill="#000000" font-family="sans-serif" font-size="13" lengthAdjust="spacing" textLength="24" x="718.5" y="285.577">0..N</text></g><!--MD5=[a4aea790f065cbbfdb07593c9213ff54]
link Usuario to Publicación--><g id="link_Usuario_Publicación"><path codeLine="47" d="M627.9536,193.2891 C627.9536,193.2891 633.42,227.68 635.82,243.23 " fill="none" id="Usuario-Publicación" style="stroke:#181818;stroke-width:1.0;"/><polygon fill="#181818" points="637.89,255.66,640.4694,246.1549,637.1268,250.7186,632.5632,247.376,637.89,255.66" style="stroke:#181818;stroke-width:1.0;"/><line style="stroke:#181818;stroke-width:1.0;" x1="637.1268" x2="635.91" y1="250.7186" y2="242.815"/><polygon fill="none" points="626.12,181.43,623.0838,187.9707,627.9536,193.2891,630.9898,186.7483,626.12,181.43" style="stroke:#181818;stroke-width:1.0;"/><text fill="#000000" font-family="sans-serif" font-size="13" lengthAdjust="spacing" textLength="24" x="633.5" y="223.077">0..N</text></g><!--MD5=[d6d76e1638be67171465ddcddb9ecc5f]
link Usuario to ArtículoPropuesto--><g id="link_Usuario_ArtículoPropuesto"><path codeLine="48" d="M675.1706,178.7309 C675.1706,178.7309 739.95,221.34 751.5,257 C787.88,369.36 755.91,511.65 737.03,577.5 " fill="none" id="Usuario-ArtículoPropuesto" style="stroke:#181818;stroke-width:1.0;"/><polygon fill="#181818" points="733.12,589.72,739.5067,582.2227,734.5371,584.925,731.8347,579.9554,733.12,589.72" style="stroke:#181818;stroke-width:1.0;"/><line style="stroke:#181818;stroke-width:1.0;" x1="734.5371" x2="736.805" y1="584.925" y2="577.26"/><polygon fill="none" points="664.48,173.28,668.0083,179.569,675.1706,178.7309,671.6422,172.4419,664.48,173.28" style="stroke:#181818;stroke-width:1.0;"/><text fill="#000000" font-family="sans-serif" font-size="13" lengthAdjust="spacing" textLength="22" x="767.5" y="348.077">1..1</text></g><!--MD5=[00c7670eb112550422f92f68df93f304]
link Intercambio to Usuario--><g id="link_Intercambio_Usuario"><path codeLine="49" d="M574.74,55.43 C584.41,75.6 598.42,104.79 608.76,126.36 " fill="none" id="Intercambio-to-Usuario" style="stroke:#181818;stroke-width:1.0;"/><polygon fill="#181818" points="611.31,130.66,611.0266,120.8152,609.1487,126.1513,603.8126,124.2733,611.31,130.66" style="stroke:#181818;stroke-width:1.0;"/><text fill="#000000" font-family="sans-serif" font-size="13" lengthAdjust="spacing" textLength="24" x="597.5" y="98.077">1..N</text></g><!--MD5=[2ea1e472ac96653c5685c00276c3c9d6]
link Intercambio to Calificación--><g id="link_Intercambio_Calificación"><path codeLine="50" d="M557.76,55.33 C546.59,100.75 521.94,200.95 509.7,250.74 " fill="none" id="Intercambio-to-Calificación" style="stroke:#181818;stroke-width:1.0;stroke-dasharray:7.0,7.0;"/><polygon fill="#181818" points="508.27,255.55,514.2903,247.7554,509.4558,250.6926,506.5185,245.8581,508.27,255.55" style="stroke:#181818;stroke-width:1.0;"/><text fill="#000000" font-family="sans-serif" font-size="13" lengthAdjust="spacing" textLength="22" x="538.5" y="160.577">1..1</text></g><!--MD5=[b2979ff72115d6662a9d409352912ccd]
link Calificación to Artículo--><g id="link_Calificación_Artículo"><path codeLine="51" d="M509.74,305.43 C515.94,325.52 524.91,354.55 531.57,376.08 " fill="none" id="Calificación-to-Artículo" style="stroke:#181818;stroke-width:1.0;stroke-dasharray:7.0,7.0;"/><polygon fill="#181818" points="533.29,380.66,534.4684,370.8819,531.8206,375.8808,526.8217,373.233,533.29,380.66" style="stroke:#181818;stroke-width:1.0;"/><text fill="#000000" font-family="sans-serif" font-size="13" lengthAdjust="spacing" textLength="22" x="524.5" y="348.077">1..1</text></g><!--MD5=[6f9bc1977c57e7898ebd8b307ba9bc2e]
link Artículo to Categoría--><g id="link_Artículo_Categoría"><path codeLine="52" d="M503.8689,438.2533 C503.8689,438.2533 461.62,476.19 437.28,497.54 " fill="none" id="Artículo-Categoría" style="stroke:#181818;stroke-width:1.0;"/><polygon fill="#181818" points="427.8,506.73,437.2036,503.8021,431.5588,503.4328,431.9281,497.788,427.8,506.73" style="stroke:#181818;stroke-width:1.0;"/><line style="stroke:#181818;stroke-width:1.0;" x1="431.5588" x2="437.57" y1="503.4328" y2="498.16"/><polygon fill="#181818" points="512.89,430.34,505.7417,431.2896,503.8689,438.2533,511.0172,437.3037,512.89,430.34" style="stroke:#181818;stroke-width:1.0;"/><text fill="#000000" font-family="sans-serif" font-size="13" lengthAdjust="spacing" textLength="22" x="477.5" y="473.077">1..2</text></g><!--MD5=[e7797469b9ef051d7072e2d6eb6bf6b8]
link Artículo to Estado--><g id="link_Artículo_Estado"><path codeLine="53" d="M542.7218,443.3164 C542.7218,443.3164 546.97,510 549.06,543.3 " fill="none" id="Artículo-Estado" style="stroke:#181818;stroke-width:1.0;"/><polygon fill="#181818" points="549.93,556.22,553.3583,546.9871,549.6167,551.2298,545.374,547.4883,549.93,556.22" style="stroke:#181818;stroke-width:1.0;"/><line style="stroke:#181818;stroke-width:1.0;" x1="549.6167" x2="549.12" y1="551.2298" y2="543.245"/><polygon fill="#181818" points="541.97,431.34,538.3538,437.5788,542.7218,443.3164,546.3381,437.0776,541.97,431.34" style="stroke:#181818;stroke-width:1.0;"/><text fill="#000000" font-family="sans-serif" font-size="13" lengthAdjust="spacing" textLength="22" x="545.5" y="473.077">1..1</text></g><!--MD5=[b7338ed88110996caf5bdfd740f55988]
link Artículo to TipoArtículo--><g id="link_Artículo_TipoArtículo"><path codeLine="54" d="M487.1053,408.4265 C487.1053,408.4265 245.6,432.33 137.5,507 C117.49,520.82 101.23,541.94 89.09,561.77 " fill="none" id="Artículo-TipoArtículo" style="stroke:#181818;stroke-width:1.0;"/><polygon fill="#181818" points="82.08,572.88,90.0586,567.1057,84.5908,568.5561,83.1404,563.0884,82.08,572.88" style="stroke:#181818;stroke-width:1.0;"/><line style="stroke:#181818;stroke-width:1.0;" x1="84.5908" x2="88.595" y1="568.5561" y2="561.635"/><polygon fill="#181818" points="499.09,407.82,492.8955,404.1284,487.1053,408.4265,493.2998,412.1181,499.09,407.82" style="stroke:#181818;stroke-width:1.0;"/><text fill="#000000" font-family="sans-serif" font-size="13" lengthAdjust="spacing" textLength="22" x="228.5" y="473.077">1..1</text></g><!--MD5=[49e7ab4f4a23cdb627760dca90e86520]
reverse link Artículo to ArtículoPropuesto--><g id="link_Artículo_ArtículoPropuesto"><path codeLine="55" d="M578.04,445.42 C595.74,463.81 616.98,486.29 635.5,507 C660.74,535.23 688.64,568.79 706.58,590.7 " fill="none" id="Artículo-backto-ArtículoPropuesto" style="stroke:#181818;stroke-width:1.0;"/><polygon fill="none" points="573.44,450.7,564.56,431.46,583.5,440.97,573.44,450.7" style="stroke:#181818;stroke-width:1.0;"/><text fill="#000000" font-family="sans-serif" font-size="13" lengthAdjust="spacing" textLength="4" x="607.5" y="473.077"> </text></g><!--MD5=[d094678081c39f02f1c621b065ac89aa]
link Publicación to ArtículoPropuesto--><g id="link_Publicación_ArtículoPropuesto"><path codeLine="56" d="M650.3607,317.9816 C650.3607,317.9816 700.1,513.62 716.24,577.41 " fill="none" id="Publicación-ArtículoPropuesto" style="stroke:#181818;stroke-width:1.0;"/><polygon fill="#181818" points="719.6,589.68,721.2719,579.9741,718.3744,584.8325,713.5159,581.9351,719.6,589.68" style="stroke:#181818;stroke-width:1.0;"/><line style="stroke:#181818;stroke-width:1.0;" x1="718.3744" x2="716.41" y1="584.8325" y2="577.075"/><polygon fill="none" points="647.41,306.35,645.0082,313.1494,650.3607,317.9816,652.7625,311.1822,647.41,306.35" style="stroke:#181818;stroke-width:1.0;"/><text fill="#000000" font-family="sans-serif" font-size="13" lengthAdjust="spacing" textLength="24" x="678.5" y="410.577">0..N</text></g><!--MD5=[384e143e0a332e9a548623d4dc868bef]
link Publicación to Artículo--><g id="link_Publicación_Artículo"><path codeLine="57" d="M614.6389,315.6992 C614.6389,315.6992 582.46,353.9 568.41,371.01 " fill="none" id="Publicación-Artículo" style="stroke:#181818;stroke-width:1.0;"/><polygon fill="#181818" points="559.66,380.66,568.4618,376.2409,562.8322,376.7951,562.278,371.1655,559.66,380.66" style="stroke:#181818;stroke-width:1.0;"/><line style="stroke:#181818;stroke-width:1.0;" x1="562.8322" x2="567.915" y1="376.7951" y2="370.615"/><polygon fill="#181818" points="622.26,306.43,615.3597,308.5243,614.6389,315.6992,621.5392,313.605,622.26,306.43" style="stroke:#181818;stroke-width:1.0;"/><text fill="#000000" font-family="sans-serif" font-size="13" lengthAdjust="spacing" textLength="22" x="597.5" y="348.077">1..1</text></g><!--MD5=[77d51ff7f227627bc74fbd5fcfc2ee45]
@startuml domain-model
!define ZERO_TO_ONE 0..1
!define ZERO_TO_MANY 0..N
!define ONE_TO_ONE 1..1
!define ONE_TO_TWO 1..2
!define ONE_TO_MANY 1..N
!define EMPTY ""

!define compositionRelation(all, part, cardinality) all *- -> part: cardinality

!define associationRelation(client, server, cardinality) client - -> server: cardinality

!define aggregationRelation(whole, part, cardinality) whole o- -> part: cardinality

!define useRelation(user, used, cardinality) user ..> used: cardinality

!define inheritanceRelation(child, parent, cardinality) child <|- - parent: cardinality

enum Categoría {
    + LIBROS_TEXTO_MATERIAL_EDUCATIVO
    + MATERIAL_DE_OFICINA
    + ELECTRÓNICA
    + MOBILIARIO_Y_DECORACIÓN
    + INDUMENTARIA
    + MATERIAL_DE_LABORATORIO
    + INSTRUMENTOS_MUSICALES
    + ARTÍCULOS_DEPORTIVOS
    + ARTES_MANUALES
    + JUEGOS_JUGUETES
}

enum Estado {
    + NUEVO
    + SEMI_NUEVO
    + USADO
    + BAJA_CALIDAD
}

enum TipoArtículo {
    + PUBLICADO
    + PROPUESTO
}

compositionRelation(Unimart, Usuario, ONE_TO_MANY)
compositionRelation(Unimart, Artículo, ONE_TO_MANY)
aggregationRelation(Usuario, Calificación,  ZERO_TO_MANY)
aggregationRelation(Usuario, Artículo, ZERO_TO_MANY)
aggregationRelation(Usuario, Publicación, ZERO_TO_MANY)
aggregationRelation(Usuario, ArtículoPropuesto, ONE_TO_ONE)
associationRelation(Intercambio, Usuario, ONE_TO_MANY)
useRelation(Intercambio, Calificación, ONE_TO_ONE)
useRelation(Calificación, Artículo, ONE_TO_ONE)
compositionRelation(Artículo, Categoría, ONE_TO_TWO)
compositionRelation(Artículo, Estado, ONE_TO_ONE)
compositionRelation(Artículo, TipoArtículo, ONE_TO_ONE)
inheritanceRelation(Artículo, ArtículoPropuesto, EMPTY)
aggregationRelation(Publicación, ArtículoPropuesto, ZERO_TO_MANY)
compositionRelation(Publicación, Artículo, ONE_TO_ONE)
@enduml

@startuml domain-model






enum Categoría {
    + LIBROS_TEXTO_MATERIAL_EDUCATIVO
    + MATERIAL_DE_OFICINA
    + ELECTRÓNICA
    + MOBILIARIO_Y_DECORACIÓN
    + INDUMENTARIA
    + MATERIAL_DE_LABORATORIO
    + INSTRUMENTOS_MUSICALES
    + ARTÍCULOS_DEPORTIVOS
    + ARTES_MANUALES
    + JUEGOS_JUGUETES
}

enum Estado {
    + NUEVO
    + SEMI_NUEVO
    + USADO
    + BAJA_CALIDAD
}

enum TipoArtículo {
    + PUBLICADO
    + PROPUESTO
}

Unimart *- -> Usuario: 1..N
Unimart *- -> Artículo: 1..N
Usuario o- -> Calificación: 0..N
Usuario o- -> Artículo: 0..N
Usuario o- -> Publicación: 0..N
Usuario o- -> ArtículoPropuesto: 1..1
Intercambio - -> Usuario: 1..N
Intercambio ..> Calificación: 1..1
Calificación ..> Artículo: 1..1
Artículo *- -> Categoría: 1..2
Artículo *- -> Estado: 1..1
Artículo *- -> TipoArtículo: 1..1
Artículo <|- - ArtículoPropuesto: ""
Publicación o- -> ArtículoPropuesto: 0..N
Publicación *- -> Artículo: 1..1
@enduml

PlantUML version 1.2022.7(Mon Aug 22 12:01:30 ECT 2022)
(GPL source distribution)
Java Runtime: OpenJDK Runtime Environment
JVM: OpenJDK 64-Bit Server VM
Default Encoding: UTF-8
Language: en
Country: null
--></g></svg>