<?xml version="1.0" encoding="UTF-8" standalone="no"?><svg xmlns="http://www.w3.org/2000/svg" xmlns:xlink="http://www.w3.org/1999/xlink" contentStyleType="text/css" height="951px" preserveAspectRatio="none" style="width:416px;height:951px;background:#FFFFFF;" version="1.1" viewBox="0 0 416 951" width="416px" zoomAndPan="magnify"><defs/><g><g id="AUTHENTICATION"><rect fill="#F1F1F1" height="50" rx="12.5" ry="12.5" style="stroke:#181818;stroke-width:0.5;" width="143" x="133.5" y="87"/><line style="stroke:#181818;stroke-width:0.5;" x1="133.5" x2="276.5" y1="113.7999" y2="113.7999"/><text fill="#000000" font-family="sans-serif" font-size="14" lengthAdjust="spacing" textLength="123" x="143.5" y="105.0059">AUTHENTICATION</text></g><g id="OPENED_UNIMART"><rect fill="#F1F1F1" height="50" rx="12.5" ry="12.5" style="stroke:#181818;stroke-width:0.5;" width="150" x="130" y="814.8"/><line style="stroke:#181818;stroke-width:0.5;" x1="130" x2="280" y1="841.5999" y2="841.5999"/><text fill="#000000" font-family="sans-serif" font-size="14" lengthAdjust="spacing" textLength="130" x="140" y="832.8059">OPENED_UNIMART</text></g><ellipse cx="205" cy="16" fill="#222222" rx="10" ry="10" style="stroke:none;stroke-width:1.0;"/><ellipse cx="205" cy="935.8" fill="none" rx="10" ry="10" style="stroke:#222222;stroke-width:1.0;"/><ellipse cx="205.5" cy="936.3" fill="#222222" rx="6" ry="6" style="stroke:none;stroke-width:1.0;"/><path d="M19.5,248 L390.5,248 A12.5,12.5 0 0 1 403,260.5 L403,274.7999 L7,274.7999 L7,260.5 A12.5,12.5 0 0 1 19.5,248 " fill="#F1F1F1" style="stroke:#F1F1F1;stroke-width:1.0;"/><rect fill="none" height="505.7999" rx="12.5" ry="12.5" style="stroke:#181818;stroke-width:0.5;" width="396" x="7" y="248"/><line style="stroke:#181818;stroke-width:0.5;" x1="7" x2="403" y1="274.7999" y2="274.7999"/><text fill="#000000" font-family="sans-serif" font-size="14" lengthAdjust="spacing" textLength="44" x="183" y="266.0059">LOGIN</text><g id="LOGIN.1"><rect fill="#F1F1F1" height="50" rx="12.5" ry="12.5" style="stroke:#181818;stroke-width:0.5;" width="50" x="88" y="342.7999"/><line style="stroke:#181818;stroke-width:0.5;" x1="88" x2="138" y1="369.5999" y2="369.5999"/><text fill="#000000" font-family="sans-serif" font-size="14" lengthAdjust="spacing" textLength="4" x="111" y="360.8059"> </text></g><g id="elem_conditional"><polygon fill="#F1F1F1" points="117,662.7999,129,674.7999,117,686.7999,105,674.7999,117,662.7999" style="stroke:#181818;stroke-width:0.5;"/></g><g id="LOGIN.2"><rect fill="#F1F1F1" height="50" rx="12.5" ry="12.5" style="stroke:#181818;stroke-width:0.5;" width="50" x="19" y="502.7999"/><line style="stroke:#181818;stroke-width:0.5;" x1="19" x2="69" y1="529.5999" y2="529.5999"/><text fill="#000000" font-family="sans-serif" font-size="14" lengthAdjust="spacing" textLength="4" x="42" y="520.8059"> </text></g><ellipse cx="113" cy="295.7999" fill="#222222" rx="10" ry="10" style="stroke:none;stroke-width:1.0;"/><ellipse cx="117" cy="733.7999" fill="none" rx="10" ry="10" style="stroke:#222222;stroke-width:1.0;"/><ellipse cx="117.5" cy="734.2999" fill="#222222" rx="6" ry="6" style="stroke:none;stroke-width:1.0;"/><!--MD5=[2eb380738061f5df672d71745b6aee88]
link *start*LOGIN to 1--><g id="link_*start*LOGIN_1"><path d="M113,306.2399 C113,314.0499 113,325.5899 113,336.5099 " fill="none" id="*start*LOGIN-to-1" style="stroke:#181818;stroke-width:1.0;"/><polygon fill="#181818" points="113,341.4799,117,332.4799,113,336.4799,109,332.4799,113,341.4799" style="stroke:#181818;stroke-width:1.0;"/></g><!--MD5=[0ba0d8a0fd0e641c23f69743a446dfe6]
link 1 to 2--><g id="link_1_2"><path d="M87.55,376.3099 C71.09,382.6299 50.95,393.4799 41,410.7999 C26.04,436.8399 29.52,471.8799 35.04,496.6099 " fill="none" id="1-to-2" style="stroke:#181818;stroke-width:1.0;"/><polygon fill="#181818" points="36.39,501.3499,38.2018,491.6691,35.2345,496.4853,30.4183,493.518,36.39,501.3499" style="stroke:#181818;stroke-width:1.0;"/><path d="M46,415.7999 L46,471.7999 L168,471.7999 L168,425.7999 L158,415.7999 L46,415.7999 " fill="#FEFFDD" style="stroke:#181818;stroke-width:0.5;"/><path d="M158,415.7999 L158,425.7999 L168,425.7999 L158,415.7999 " fill="#FEFFDD" style="stroke:#181818;stroke-width:0.5;"/><text fill="#000000" font-family="sans-serif" font-size="13" font-weight="bold" lengthAdjust="spacing" textLength="101" x="52" y="432.8769">System requires</text><ellipse cx="57.5" cy="444.5" fill="#000000" rx="2.5" ry="2.5" style="stroke:#000000;stroke-width:0.0;"/><text fill="#000000" font-family="sans-serif" font-size="13" lengthAdjust="spacing" textLength="59" x="64" y="448.477">Username</text><ellipse cx="57.5" cy="460.1" fill="#000000" rx="2.5" ry="2.5" style="stroke:#000000;stroke-width:0.0;"/><text fill="#000000" font-family="sans-serif" font-size="13" lengthAdjust="spacing" textLength="57" x="64" y="464.077">Password</text></g><!--MD5=[67cc5fa11e614c2e37a5a979af3caf7f]
link 2 to conditional--><g id="link_2_conditional"><path d="M40.06,552.9299 C37.3,578.1899 36.96,617.8499 56,644.7999 C66.66,659.8799 87.29,667.3799 101.59,670.9199 " fill="none" id="2-to-conditional" style="stroke:#181818;stroke-width:1.0;"/><polygon fill="#181818" points="106.28,672.2099,98.3821,666.3258,101.4028,671.1086,96.62,674.1293,106.28,672.2099" style="stroke:#181818;stroke-width:1.0;"/><path d="M61,583.7999 L61,639.7999 L168,639.7999 L168,593.7999 L158,583.7999 L61,583.7999 " fill="#FEFFDD" style="stroke:#181818;stroke-width:0.5;"/><path d="M158,583.7999 L158,593.7999 L168,593.7999 L158,583.7999 " fill="#FEFFDD" style="stroke:#181818;stroke-width:0.5;"/><text fill="#000000" font-family="sans-serif" font-size="13" font-weight="bold" lengthAdjust="spacing" textLength="86" x="67" y="600.8769">User provides</text><ellipse cx="72.5" cy="612.5" fill="#000000" rx="2.5" ry="2.5" style="stroke:#000000;stroke-width:0.0;"/><text fill="#000000" font-family="sans-serif" font-size="13" lengthAdjust="spacing" textLength="59" x="79" y="616.477">Username</text><ellipse cx="72.5" cy="628.1" fill="#000000" rx="2.5" ry="2.5" style="stroke:#000000;stroke-width:0.0;"/><text fill="#000000" font-family="sans-serif" font-size="13" lengthAdjust="spacing" textLength="57" x="79" y="632.077">Password</text></g><!--MD5=[5bea8c8e80e703b94ef9f48923061f5a]
link conditional to 1--><g id="link_conditional_1"><path d="M126.61,671.9999 C139.75,668.9699 162.87,661.4499 173,644.7999 C227.05,555.9499 221.03,503.0499 173,410.7999 C166.63,398.5699 154.9,389.1699 143.49,382.3899 " fill="none" id="conditional-to-1" style="stroke:#FF0000;stroke-width:1.0;"/><polygon fill="#FF0000" points="139.29,379.4599,145.1842,387.3503,143.6513,381.9051,149.0965,380.3722,139.29,379.4599" style="stroke:#FF0000;stroke-width:1.0;"/><path d="M216,499.7999 L216,555.7999 L394,555.7999 L394,509.7999 L384,499.7999 L216,499.7999 " fill="#FEFFDD" style="stroke:#181818;stroke-width:0.5;"/><path d="M384,499.7999 L384,509.7999 L394,509.7999 L384,499.7999 " fill="#FEFFDD" style="stroke:#181818;stroke-width:0.5;"/><text fill="#000000" font-family="sans-serif" font-size="13" font-weight="bold" lengthAdjust="spacing" textLength="39" x="226" y="516.8769">Errors</text><ellipse cx="227.5" cy="528.5" fill="#000000" rx="2.5" ry="2.5" style="stroke:#000000;stroke-width:0.0;"/><text fill="#000000" font-family="sans-serif" font-size="13" lengthAdjust="spacing" textLength="145" x="234" y="532.477">Username does not exist</text><ellipse cx="227.5" cy="544.1" fill="#000000" rx="2.5" ry="2.5" style="stroke:#000000;stroke-width:0.0;"/><text fill="#000000" font-family="sans-serif" font-size="13" lengthAdjust="spacing" textLength="125" x="234" y="548.077">Password is incorrect</text></g><!--MD5=[bce1b80964191b315637d5cd752e454d]
link conditional to *end*LOGIN--><g id="link_conditional_*end*LOGIN"><path d="M117,687.3299 C117,696.0899 117,708.1999 117,717.7199 " fill="none" id="conditional-to-*end*LOGIN" style="stroke:#181818;stroke-width:1.0;"/><polygon fill="#181818" points="117,722.5399,121,713.5399,117,717.5399,113,713.5399,117,722.5399" style="stroke:#181818;stroke-width:1.0;"/></g><!--MD5=[1e3bdf202a25adfebfa2664c5c686ea2]
link *start to AUTHENTICATION--><g id="link_*start_AUTHENTICATION"><path d="M205,26.36 C205,38.98 205,62.07 205,80.94 " fill="none" id="*start-to-AUTHENTICATION" style="stroke:#181818;stroke-width:1.0;"/><polygon fill="#181818" points="205,85.65,209,76.65,205,80.65,201,76.65,205,85.65" style="stroke:#181818;stroke-width:1.0;"/></g><!--MD5=[1e60cc3bf63213b115e6f34322870c90]
link AUTHENTICATION to LOGIN--><g id="link_AUTHENTICATION_LOGIN"><path d="M205,137.5 C205,160.94 205,199.01 205,241.85 " fill="none" id="AUTHENTICATION-to-LOGIN" style="stroke:#181818;stroke-width:1.0;"/><polygon fill="#181818" points="205,246.65,209,237.65,205,241.65,201,237.65,205,246.65" style="stroke:#181818;stroke-width:1.0;"/><path d="M210,172 L210,213 L332,213 L332,182 L322,172 L210,172 " fill="#FEFFDD" style="stroke:#181818;stroke-width:0.5;"/><path d="M322,172 L322,182 L332,182 L322,172 " fill="#FEFFDD" style="stroke:#181818;stroke-width:0.5;"/><text fill="#000000" font-family="sans-serif" font-size="13" font-weight="bold" lengthAdjust="spacing" textLength="101" x="216" y="189.077">User requests to</text><ellipse cx="221.5" cy="200.7" fill="#000000" rx="2.5" ry="2.5" style="stroke:#000000;stroke-width:0.0;"/><text fill="#000000" font-family="sans-serif" font-size="13" lengthAdjust="spacing" textLength="31" x="228" y="204.677">Login</text></g><!--MD5=[2380e3aa49e89b85145b0002e1f3715d]
link LOGIN to OPENED_UNIMART--><g id="link_LOGIN_OPENED_UNIMART"><path d="M205,754.22 C205,775.28 205,794 205,808.43 " fill="none" id="LOGIN-to-OPENED_UNIMART" style="stroke:#181818;stroke-width:1.0;"/><polygon fill="#181818" points="205,813.35,209,804.35,205,808.35,201,804.35,205,813.35" style="stroke:#181818;stroke-width:1.0;"/></g><!--MD5=[67794f8d2a7008093eb4e44cdb1e8f18]
link OPENED_UNIMART to *end--><g id="link_OPENED_UNIMART_*end"><path d="M205,865.01 C205,882.33 205,905.11 205,919.85 " fill="none" id="OPENED_UNIMART-to-*end" style="stroke:#181818;stroke-width:1.0;"/><polygon fill="#181818" points="205,924.64,209,915.64,205,919.64,201,915.64,205,924.64" style="stroke:#181818;stroke-width:1.0;"/></g><!--MD5=[f94cf106082dec294d057a4a48ae3a22]
@startuml authentication
state AUTHENTICATION
state LOGIN
state OPENED_UNIMART

[*] - -> AUTHENTICATION
AUTHENTICATION - -> LOGIN
note on link
<b>User requests to</b>
* Login
end note

state LOGIN {

    state 1 as " "
    state conditional <<choice>>
    state 2 as " "

    [*] - -> 1

    1 - -> 2
    note on link
    <b>System requires</b>
    * Username
    * Password
    end note

    2 - -> conditional
    note on link
    <b>User provides</b>
    * Username
    * Password
    end note

    conditional -[#red]-> 1
    note on link
    <b> Errors </b>
    * Username does not exist
    * Password is incorrect
    end note              

    conditional - -> [*]
}

LOGIN - -> OPENED_UNIMART
OPENED_UNIMART - -> [*]
@enduml

PlantUML version 1.2022.7(Mon Aug 22 12:01:30 ECT 2022)
(GPL source distribution)
Java Runtime: OpenJDK Runtime Environment
JVM: OpenJDK 64-Bit Server VM
Default Encoding: UTF-8
Language: en
Country: null
--></g></svg>