<?xml version="1.0" encoding="UTF-8" standalone="no"?><svg xmlns="http://www.w3.org/2000/svg" xmlns:xlink="http://www.w3.org/1999/xlink" contentStyleType="text/css" height="1544px" preserveAspectRatio="none" style="width:664px;height:1544px;background:#FFFFFF;" version="1.1" viewBox="0 0 664 1544" width="664px" zoomAndPan="magnify"><defs/><g><ellipse cx="373" cy="16" fill="#222222" rx="10" ry="10" style="stroke:none;stroke-width:1.0;"/><g id="CONTENT_INTERACTION"><rect fill="#F1F1F1" height="50" rx="12.5" ry="12.5" style="stroke:#181818;stroke-width:0.5;" width="191" x="277.5" y="86"/><line style="stroke:#181818;stroke-width:0.5;" x1="277.5" x2="468.5" y1="112.7999" y2="112.7999"/><text fill="#000000" font-family="sans-serif" font-size="14" lengthAdjust="spacing" textLength="171" x="287.5" y="104.0059">CONTENT_INTERACTION</text></g><g id="elem_union"><polygon fill="#F1F1F1" points="293,619.8,305,631.8,293,643.8,281,631.8,293,619.8" style="stroke:#181818;stroke-width:0.5;"/></g><g id="elem_finished"><polygon fill="#F1F1F1" points="413,1434.6,425,1446.6,413,1458.6,401,1446.6,413,1434.6" style="stroke:#181818;stroke-width:0.5;"/></g><ellipse cx="413" cy="1528.6" fill="none" rx="10" ry="10" style="stroke:#222222;stroke-width:1.0;"/><ellipse cx="413.5" cy="1529.1" fill="#222222" rx="6" ry="6" style="stroke:none;stroke-width:1.0;"/><path d="M19.5,196 L218.5,196 A12.5,12.5 0 0 1 231,208.5 L231,222.7999 L7,222.7999 L7,208.5 A12.5,12.5 0 0 1 19.5,196 " fill="#F1F1F1" style="stroke:#F1F1F1;stroke-width:1.0;"/><rect fill="none" height="363.7999" rx="12.5" ry="12.5" style="stroke:#181818;stroke-width:0.5;" width="224" x="7" y="196"/><line style="stroke:#181818;stroke-width:0.5;" x1="7" x2="231" y1="222.7999" y2="222.7999"/><text fill="#000000" font-family="sans-serif" font-size="14" lengthAdjust="spacing" textLength="125" x="56.5" y="214.0059">FILTER_CONTENT</text><g id="FILTER_CONTENT.R1"><rect fill="#F1F1F1" height="50" rx="12.5" ry="12.5" style="stroke:#181818;stroke-width:0.5;" width="50" x="19" y="290.7999"/><line style="stroke:#181818;stroke-width:0.5;" x1="19" x2="69" y1="317.5999" y2="317.5999"/><text fill="#000000" font-family="sans-serif" font-size="14" lengthAdjust="spacing" textLength="4" x="42" y="308.8059"> </text></g><g id="FILTER_CONTENT.R2"><rect fill="#F1F1F1" height="50" rx="12.5" ry="12.5" style="stroke:#181818;stroke-width:0.5;" width="50" x="19" y="442.7999"/><line style="stroke:#181818;stroke-width:0.5;" x1="19" x2="69" y1="469.5999" y2="469.5999"/><text fill="#000000" font-family="sans-serif" font-size="14" lengthAdjust="spacing" textLength="4" x="42" y="460.8059"> </text></g><ellipse cx="44" cy="243.7999" fill="#222222" rx="10" ry="10" style="stroke:none;stroke-width:1.0;"/><ellipse cx="44" cy="539.7999" fill="none" rx="10" ry="10" style="stroke:#222222;stroke-width:1.0;"/><ellipse cx="44.5" cy="540.2999" fill="#222222" rx="6" ry="6" style="stroke:none;stroke-width:1.0;"/><!--MD5=[7e795fb84e9f6624e71b53be248ce0e3]
link *start*FILTER_CONTENT to R1--><g id="link_*start*FILTER_CONTENT_R1"><path d="M44,254.2399 C44,262.0499 44,273.5899 44,284.5099 " fill="none" id="*start*FILTER_CONTENT-to-R1" style="stroke:#181818;stroke-width:1.0;"/><polygon fill="#181818" points="44,289.4799,48,280.4799,44,284.4799,40,280.4799,44,289.4799" style="stroke:#181818;stroke-width:1.0;"/></g><!--MD5=[b7be0192252c14f6eacc4f5d1427df6a]
link R1 to R2--><g id="link_R1_R2"><path d="M44,341.2299 C44,367.2799 44,408.5399 44,436.5999 " fill="none" id="R1-to-R2" style="stroke:#181818;stroke-width:1.0;"/><polygon fill="#181818" points="44,441.3799,48,432.3799,44,436.3799,40,432.3799,44,441.3799" style="stroke:#181818;stroke-width:1.0;"/><path d="M49,363.7999 L49,419.7999 L222,419.7999 L222,373.7999 L212,363.7999 L49,363.7999 " fill="#FEFFDD" style="stroke:#181818;stroke-width:0.5;"/><path d="M212,363.7999 L212,373.7999 L222,373.7999 L212,363.7999 " fill="#FEFFDD" style="stroke:#181818;stroke-width:0.5;"/><text fill="#000000" font-family="sans-serif" font-size="13" font-weight="bold" lengthAdjust="spacing" textLength="110" x="59" y="380.8769">System allows to:</text><ellipse cx="60.5" cy="392.5" fill="#000000" rx="2.5" ry="2.5" style="stroke:#000000;stroke-width:0.0;"/><text fill="#000000" font-family="sans-serif" font-size="13" lengthAdjust="spacing" textLength="140" x="67" y="396.477">Filter article by category</text><ellipse cx="60.5" cy="408.1" fill="#000000" rx="2.5" ry="2.5" style="stroke:#000000;stroke-width:0.0;"/><text fill="#000000" font-family="sans-serif" font-size="13" lengthAdjust="spacing" textLength="119" x="67" y="412.077">Filter article by state</text></g><!--MD5=[a22517879afaecb64765d6bc13596620]
link R2 to *end*FILTER_CONTENT--><g id="link_R2_*end*FILTER_CONTENT"><path d="M44,493.2799 C44,503.3099 44,514.5999 44,523.4299 " fill="none" id="R2-to-*end*FILTER_CONTENT" style="stroke:#181818;stroke-width:1.0;"/><polygon fill="#181818" points="44,528.3699,48,519.3699,44,523.3699,40,519.3699,44,528.3699" style="stroke:#181818;stroke-width:1.0;"/></g><path d="M278,203.5 L468,203.5 A12.5,12.5 0 0 1 480.5,216 L480.5,230.2999 L265.5,230.2999 L265.5,216 A12.5,12.5 0 0 1 278,203.5 " fill="#F1F1F1" style="stroke:#F1F1F1;stroke-width:1.0;"/><rect fill="none" height="348.7999" rx="12.5" ry="12.5" style="stroke:#181818;stroke-width:0.5;" width="215" x="265.5" y="203.5"/><line style="stroke:#181818;stroke-width:0.5;" x1="265.5" x2="480.5" y1="230.2999" y2="230.2999"/><text fill="#000000" font-family="sans-serif" font-size="14" lengthAdjust="spacing" textLength="133" x="306.5" y="221.5059">SEARCH_CONTENT</text><g id="SEARCH_CONTENT.S1"><rect fill="#F1F1F1" height="50" rx="12.5" ry="12.5" style="stroke:#181818;stroke-width:0.5;" width="50" x="277.5" y="298.2999"/><line style="stroke:#181818;stroke-width:0.5;" x1="277.5" x2="327.5" y1="325.0999" y2="325.0999"/><text fill="#000000" font-family="sans-serif" font-size="14" lengthAdjust="spacing" textLength="4" x="300.5" y="316.3059"> </text></g><g id="SEARCH_CONTENT.S2"><rect fill="#F1F1F1" height="50" rx="12.5" ry="12.5" style="stroke:#181818;stroke-width:0.5;" width="50" x="277.5" y="435.2999"/><line style="stroke:#181818;stroke-width:0.5;" x1="277.5" x2="327.5" y1="462.0999" y2="462.0999"/><text fill="#000000" font-family="sans-serif" font-size="14" lengthAdjust="spacing" textLength="4" x="300.5" y="453.3059"> </text></g><ellipse cx="302.5" cy="251.2999" fill="#222222" rx="10" ry="10" style="stroke:none;stroke-width:1.0;"/><ellipse cx="302.5" cy="532.2999" fill="none" rx="10" ry="10" style="stroke:#222222;stroke-width:1.0;"/><ellipse cx="303" cy="532.7999" fill="#222222" rx="6" ry="6" style="stroke:none;stroke-width:1.0;"/><!--MD5=[a897231bc0907ce1ddc138af1230a98b]
link *start*SEARCH_CONTENT to S1--><g id="link_*start*SEARCH_CONTENT_S1"><path d="M302.5,261.7399 C302.5,269.5499 302.5,281.0899 302.5,292.0099 " fill="none" id="*start*SEARCH_CONTENT-to-S1" style="stroke:#181818;stroke-width:1.0;"/><polygon fill="#181818" points="302.5,296.9799,306.5,287.9799,302.5,291.9799,298.5,287.9799,302.5,296.9799" style="stroke:#181818;stroke-width:1.0;"/></g><!--MD5=[15cb110786dd224ca6a510a3d2a24e20]
link S1 to S2--><g id="link_S1_S2"><path d="M302.5,348.7499 C302.5,371.2999 302.5,404.8599 302.5,429.0899 " fill="none" id="S1-to-S2" style="stroke:#181818;stroke-width:1.0;"/><polygon fill="#181818" points="302.5,434.0299,306.5,425.0299,302.5,429.0299,298.5,425.0299,302.5,434.0299" style="stroke:#181818;stroke-width:1.0;"/><path d="M307.5,371.2999 L307.5,412.2999 L471.5,412.2999 L471.5,381.2999 L461.5,371.2999 L307.5,371.2999 " fill="#FEFFDD" style="stroke:#181818;stroke-width:0.5;"/><path d="M461.5,371.2999 L461.5,381.2999 L471.5,381.2999 L461.5,371.2999 " fill="#FEFFDD" style="stroke:#181818;stroke-width:0.5;"/><text fill="#000000" font-family="sans-serif" font-size="13" font-weight="bold" lengthAdjust="spacing" textLength="110" x="317.5" y="388.3769">System allows to:</text><ellipse cx="319" cy="400" fill="#000000" rx="2.5" ry="2.5" style="stroke:#000000;stroke-width:0.0;"/><text fill="#000000" font-family="sans-serif" font-size="13" lengthAdjust="spacing" textLength="131" x="325.5" y="403.977">Search content by title</text></g><!--MD5=[83d324ed90b4ebaefc82b45e5360f0dc]
link S2 to *end*SEARCH_CONTENT--><g id="link_S2_*end*SEARCH_CONTENT"><path d="M302.5,485.7799 C302.5,495.8099 302.5,507.0999 302.5,515.9299 " fill="none" id="S2-to-*end*SEARCH_CONTENT" style="stroke:#181818;stroke-width:1.0;"/><polygon fill="#181818" points="302.5,520.8699,306.5,511.8699,302.5,515.8699,298.5,511.8699,302.5,520.8699" style="stroke:#181818;stroke-width:1.0;"/></g><path d="M118.82,703.8 L467.18,703.8 A12.5,12.5 0 0 1 479.68,716.3 L479.68,730.5999 L106.32,730.5999 L106.32,716.3 A12.5,12.5 0 0 1 118.82,703.8 " fill="#F1F1F1" style="stroke:#F1F1F1;stroke-width:1.0;"/><rect fill="none" height="670.7999" rx="12.5" ry="12.5" style="stroke:#181818;stroke-width:0.5;" width="373.36" x="106.32" y="703.8"/><line style="stroke:#181818;stroke-width:0.5;" x1="106.32" x2="479.68" y1="730.5999" y2="730.5999"/><text fill="#000000" font-family="sans-serif" font-size="14" lengthAdjust="spacing" textLength="102" x="242" y="721.8059">VIEW_ARTICLE</text><g id="VIEW_ARTICLE.V1"><rect fill="#F1F1F1" height="50" rx="12.5" ry="12.5" style="stroke:#181818;stroke-width:0.5;" width="50" x="190.68" y="798.5999"/><line style="stroke:#181818;stroke-width:0.5;" x1="190.68" x2="240.68" y1="825.3999" y2="825.3999"/><text fill="#000000" font-family="sans-serif" font-size="14" lengthAdjust="spacing" textLength="4" x="213.68" y="816.6059"> </text></g><g id="VIEW_ARTICLE.V2"><rect fill="#F1F1F1" height="50" rx="12.5" ry="12.5" style="stroke:#181818;stroke-width:0.5;" width="50" x="190.68" y="1028.5999"/><line style="stroke:#181818;stroke-width:0.5;" x1="190.68" x2="240.68" y1="1055.3999" y2="1055.3999"/><text fill="#000000" font-family="sans-serif" font-size="14" lengthAdjust="spacing" textLength="4" x="213.68" y="1046.6059"> </text></g><g id="VIEW_ARTICLE.V3"><rect fill="#F1F1F1" height="50" rx="12.5" ry="12.5" style="stroke:#181818;stroke-width:0.5;" width="50" x="160.68" y="1188.5999"/><line style="stroke:#181818;stroke-width:0.5;" x1="160.68" x2="210.68" y1="1215.3999" y2="1215.3999"/><text fill="#000000" font-family="sans-serif" font-size="14" lengthAdjust="spacing" textLength="4" x="183.68" y="1206.6059"> </text></g><ellipse cx="215.68" cy="751.5999" fill="#222222" rx="10" ry="10" style="stroke:none;stroke-width:1.0;"/><g id="elem_addProposedOrNot"><polygon fill="#F1F1F1" points="269.68,1283.5999,281.68,1295.5999,269.68,1307.5999,257.68,1295.5999,269.68,1283.5999" style="stroke:#181818;stroke-width:0.5;"/></g><ellipse cx="269.68" cy="1354.5999" fill="none" rx="10" ry="10" style="stroke:#222222;stroke-width:1.0;"/><ellipse cx="270.18" cy="1355.0999" fill="#222222" rx="6" ry="6" style="stroke:none;stroke-width:1.0;"/><!--MD5=[1e5d1a129b5eb4c8ae957b0b24a44517]
link *start*VIEW_ARTICLE to V1--><g id="link_*start*VIEW_ARTICLE_V1"><path d="M215.68,762.0399 C215.68,769.8499 215.68,781.3899 215.68,792.3099 " fill="none" id="*start*VIEW_ARTICLE-to-V1" style="stroke:#181818;stroke-width:1.0;"/><polygon fill="#181818" points="215.68,797.2799,219.68,788.2799,215.68,792.2799,211.68,788.2799,215.68,797.2799" style="stroke:#181818;stroke-width:1.0;"/></g><!--MD5=[282fef474e7a1288045d8da5e3fed262]
link V1 to V2--><g id="link_V1_V2"><path d="M215.68,848.9999 C215.68,890.9999 215.68,976.8199 215.68,1022.4799 " fill="none" id="V1-to-V2" style="stroke:#181818;stroke-width:1.0;"/><polygon fill="#181818" points="215.68,1027.3799,219.68,1018.3799,215.68,1022.3799,211.68,1018.3799,215.68,1027.3799" style="stroke:#181818;stroke-width:1.0;"/><path d="M220.68,871.5999 L220.68,1005.5999 L387.68,1005.5999 L387.68,881.5999 L377.68,871.5999 L220.68,871.5999 " fill="#FEFFDD" style="stroke:#181818;stroke-width:0.5;"/><path d="M377.68,871.5999 L377.68,881.5999 L387.68,881.5999 L377.68,871.5999 " fill="#FEFFDD" style="stroke:#181818;stroke-width:0.5;"/><text fill="#000000" font-family="sans-serif" font-size="13" font-weight="bold" lengthAdjust="spacing" textLength="87" x="230.68" y="888.6769">System show:</text><ellipse cx="232.18" cy="900.3" fill="#000000" rx="2.5" ry="2.5" style="stroke:#000000;stroke-width:0.0;"/><text fill="#000000" font-family="sans-serif" font-size="13" lengthAdjust="spacing" textLength="117" x="238.68" y="904.277">View content details</text><text fill="#000000" font-family="sans-serif" font-size="13" lengthAdjust="spacing" textLength="30" x="242.68" y="919.877">* title</text><text fill="#000000" font-family="sans-serif" font-size="13" lengthAdjust="spacing" textLength="72" x="242.68" y="935.477">* description</text><text fill="#000000" font-family="sans-serif" font-size="13" lengthAdjust="spacing" textLength="115" x="242.68" y="951.077">* date of publication</text><text fill="#000000" font-family="sans-serif" font-size="13" lengthAdjust="spacing" textLength="130" x="242.68" y="966.677">* quantity of proposals</text><text fill="#000000" font-family="sans-serif" font-size="13" lengthAdjust="spacing" textLength="120" x="242.68" y="982.277">* user who published</text><text fill="#000000" font-family="sans-serif" font-size="13" lengthAdjust="spacing" textLength="47" x="242.68" y="997.877">* gallery</text></g><!--MD5=[26c2c4d6ec2874ab79cdeb310502f363]
link V2 to V3--><g id="link_V2_V3"><path d="M190.51,1059.8499 C170.98,1065.3799 145.2,1076.2399 132.68,1096.5999 C117.32,1121.5899 121.06,1135.6699 132.68,1162.5999 C137.63,1174.0799 146.66,1184.1499 155.88,1192.1799 " fill="none" id="V2-to-V3" style="stroke:#181818;stroke-width:1.0;"/><polygon fill="#181818" points="159.4,1195.9599,155.0629,1187.1174,155.5647,1192.752,149.9302,1193.2539,159.4,1195.9599" style="stroke:#181818;stroke-width:1.0;"/><path d="M137.68,1101.5999 L137.68,1157.5999 L281.68,1157.5999 L281.68,1111.5999 L271.68,1101.5999 L137.68,1101.5999 " fill="#FEFFDD" style="stroke:#181818;stroke-width:0.5;"/><path d="M271.68,1101.5999 L271.68,1111.5999 L281.68,1111.5999 L271.68,1101.5999 " fill="#FEFFDD" style="stroke:#181818;stroke-width:0.5;"/><text fill="#000000" font-family="sans-serif" font-size="13" font-weight="bold" lengthAdjust="spacing" textLength="110" x="147.68" y="1118.6769">System allows to:</text><ellipse cx="149.18" cy="1130.3" fill="#000000" rx="2.5" ry="2.5" style="stroke:#000000;stroke-width:0.0;"/><text fill="#000000" font-family="sans-serif" font-size="13" lengthAdjust="spacing" textLength="107" x="155.68" y="1134.277">Select a published</text><text fill="#000000" font-family="sans-serif" font-size="13" lengthAdjust="spacing" textLength="107" x="159.68" y="1149.877">article to proposed</text></g><!--MD5=[a12f909cdcfd9bbb898cf541e0b5cc1a]
link V3 to addProposedOrNot--><g id="link_V3_addProposedOrNot"><path d="M210.88,1238.5999 C227.27,1254.1999 247.73,1273.6899 259.69,1285.0799 " fill="none" id="V3-to-addProposedOrNot" style="stroke:#181818;stroke-width:1.0;"/><polygon fill="#181818" points="262.97,1288.1599,259.2123,1279.0561,259.3497,1284.7113,253.6945,1284.8487,262.97,1288.1599" style="stroke:#181818;stroke-width:1.0;"/></g><!--MD5=[1e6607fcb98500e47762a7e1735e9eba]
link addProposedOrNot to V2--><g id="link_addProposedOrNot_V2"><path d="M273.33,1286.7399 C285.77,1258.6799 323.77,1161.6299 286.68,1096.5999 C278.02,1081.4199 261.49,1071.1699 246.56,1064.5999 " fill="none" id="addProposedOrNot-to-V2" style="stroke:#FF0000;stroke-width:1.0;"/><polygon fill="#FF0000" points="242.14,1062.3399,248.9014,1069.5012,246.7533,1064.2681,251.9864,1062.12,242.14,1062.3399" style="stroke:#FF0000;stroke-width:1.0;"/><path d="M306.68,1185.5999 L306.68,1241.5999 L470.68,1241.5999 L470.68,1195.5999 L460.68,1185.5999 L306.68,1185.5999 " fill="#FEFFDD" style="stroke:#181818;stroke-width:0.5;"/><path d="M460.68,1185.5999 L460.68,1195.5999 L470.68,1195.5999 L460.68,1185.5999 " fill="#FEFFDD" style="stroke:#181818;stroke-width:0.5;"/><text fill="#000000" font-family="sans-serif" font-size="13" font-weight="bold" lengthAdjust="spacing" textLength="105" x="316.68" y="1202.6769">System requires:</text><ellipse cx="318.18" cy="1214.3" fill="#000000" rx="2.5" ry="2.5" style="stroke:#000000;stroke-width:0.0;"/><text fill="#000000" font-family="sans-serif" font-size="13" lengthAdjust="spacing" textLength="131" x="324.68" y="1218.277">Must have a published</text><text fill="#000000" font-family="sans-serif" font-size="13" lengthAdjust="spacing" textLength="107" x="328.68" y="1233.877">article to proposed</text></g><!--MD5=[dc7fd993e24ef42a8b47b321aab7a30f]
link addProposedOrNot to *end*VIEW_ARTICLE--><g id="link_addProposedOrNot_*end*VIEW_ARTICLE"><path d="M269.68,1308.1299 C269.68,1316.8899 269.68,1328.9999 269.68,1338.5199 " fill="none" id="addProposedOrNot-to-*end*VIEW_ARTICLE" style="stroke:#181818;stroke-width:1.0;"/><polygon fill="#181818" points="269.68,1343.3399,273.68,1334.3399,269.68,1338.3399,265.68,1334.3399,269.68,1343.3399" style="stroke:#181818;stroke-width:1.0;"/></g><!--MD5=[bba2e5db2dc4ffd682c048af9a9c9281]
link *start to CONTENT_INTERACTION--><g id="link_*start_CONTENT_INTERACTION"><path d="M373,26.26 C373,38.67 373,61.28 373,79.89 " fill="none" id="*start-to-CONTENT_INTERACTION" style="stroke:#181818;stroke-width:1.0;"/><polygon fill="#181818" points="373,84.52,377,75.52,373,79.52,369,75.52,373,84.52" style="stroke:#181818;stroke-width:1.0;"/></g><!--MD5=[bf9c2affa9c43d95d8ba1f7f8be098f9]
link CONTENT_INTERACTION to FILTER_CONTENT--><g id="link_CONTENT_INTERACTION_FILTER_CONTENT"><path d="M328.49,136.5 C303.24,151.67 271.99,172.67 248,196 C243.66,200.22 239.37,204.6 235.13,209.11 " fill="none" id="CONTENT_INTERACTION-to-FILTER_CONTENT" style="stroke:#181818;stroke-width:1.0;"/><polygon fill="#181818" points="232.26,212.29,241.3094,208.4031,235.6568,208.6209,235.4389,202.9683,232.26,212.29" style="stroke:#181818;stroke-width:1.0;"/></g><!--MD5=[470b76d28f1492118ac594ff92fe18f4]
link CONTENT_INTERACTION to SEARCH_CONTENT--><g id="link_CONTENT_INTERACTION_SEARCH_CONTENT"><path d="M373,136.45 C373,151.92 373,173.48 373,197.39 " fill="none" id="CONTENT_INTERACTION-to-SEARCH_CONTENT" style="stroke:#181818;stroke-width:1.0;"/><polygon fill="#181818" points="373,202.19,377,193.19,373,197.19,369,193.19,373,202.19" style="stroke:#181818;stroke-width:1.0;"/></g><!--MD5=[327f6b834159a181394d78f893533106]
link FILTER_CONTENT to union--><g id="link_FILTER_CONTENT_union"><path d="M231.41,541.64 C254.26,574.71 274.54,604.08 285.17,619.46 " fill="none" id="FILTER_CONTENT-to-union" style="stroke:#181818;stroke-width:1.0;"/><polygon fill="#181818" points="288.39,623.12,286.5646,613.4418,285.5477,619.0065,279.983,617.9895,288.39,623.12" style="stroke:#181818;stroke-width:1.0;"/></g><!--MD5=[6f10e93327f78c8478d151f0771329c0]
link SEARCH_CONTENT to union--><g id="link_SEARCH_CONTENT_union"><path d="M317.87,552.48 C309.35,579.32 301.9,602.78 297.43,616.86 " fill="none" id="SEARCH_CONTENT-to-union" style="stroke:#181818;stroke-width:1.0;"/><polygon fill="#181818" points="295.7,621.3,302.2351,613.9316,297.2125,616.5342,294.6099,611.5117,295.7,621.3" style="stroke:#181818;stroke-width:1.0;"/></g><!--MD5=[c46c9df3742579e9dbefb44c511a1541]
link union to VIEW_ARTICLE--><g id="link_union_VIEW_ARTICLE"><path d="M293,644.5 C293,655.69 293,674.27 293,697.43 " fill="none" id="union-to-VIEW_ARTICLE" style="stroke:#181818;stroke-width:1.0;"/><polygon fill="#181818" points="293,702.42,297,693.42,293,697.42,289,693.42,293,702.42" style="stroke:#181818;stroke-width:1.0;"/></g><!--MD5=[85a5d0b90753817459dcfd4dbb1cd7d9]
link VIEW_ARTICLE to finished--><g id="link_VIEW_ARTICLE_finished"><path d="M392.1,1374.98 C399.28,1399.24 405.13,1419.03 408.8,1431.42 " fill="none" id="VIEW_ARTICLE-to-finished" style="stroke:#181818;stroke-width:1.0;"/><polygon fill="#181818" points="410.42,1435.9,411.7053,1426.1354,409.003,1431.105,404.0333,1428.4026,410.42,1435.9" style="stroke:#181818;stroke-width:1.0;"/></g><!--MD5=[f20ab7065c26ebabf49f7b8c32a28769]
link finished to *end--><g id="link_finished_*end"><path d="M413,1459.06 C413,1473.1 413,1496.92 413,1512.45 " fill="none" id="finished-to-*end" style="stroke:#181818;stroke-width:1.0;"/><polygon fill="#181818" points="413,1517.16,417,1508.16,413,1512.16,409,1508.16,413,1517.16" style="stroke:#181818;stroke-width:1.0;"/></g><!--MD5=[ded07fe7f9d655820b85ebd7833c263d]
link finished to CONTENT_INTERACTION--><g id="link_finished_CONTENT_INTERACTION"><path d="M420.73,1442 C438.26,1433.32 480.82,1409.4 497,1374.6 C657.5,1029.33 570.35,331.78 498,196 C484.86,171.33 460.9,152.62 437.44,139.19 " fill="none" id="finished-to-CONTENT_INTERACTION" style="stroke:#181818;stroke-width:1.0;"/><polygon fill="#181818" points="433.45,136.4,439.3552,144.2822,437.8147,138.8391,443.2578,137.2986,433.45,136.4" style="stroke:#181818;stroke-width:1.0;"/></g><!--MD5=[cf5ab43047c031037b19b2e317b580f4]
@startuml content-interaction
[*] - -> CONTENT_INTERACTION

state FILTER_CONTENT {
    state R1 as " "    
    state R2 as " "
    [*] - -> R1
    R1 - -> R2    
    note on link
        <b> System allows to:</b>
        * Filter article by category        
        * Filter article by state        
    end note
    R2 - -> [*]
}

state SEARCH_CONTENT {
    state S1 as " "    
    state S2 as " "
    [*] - -> S1
    S1 - -> S2    
    note on link
        <b> System allows to:</b>
        * Search content by title         
    end note
    S2 - -> [*]
}

state VIEW_ARTICLE {
    state V1 as " "    
    state V2 as " "
    state V3 as " "    
    [*] - -> V1
    V1 - -> V2 

    state addProposedOrNot <<choice>>
           
    note on link
        <b> System show:</b>
        * View content details
            * title
            * description
            * date of publication
            * quantity of proposals
            * user who published
            * gallery
    end note
    V2 - -> V3    
    note on link
        <b> System allows to:</b>
        * Select a published 
            article to proposed
    end note 

    V3 - -> addProposedOrNot    
    addProposedOrNot -[#red]-> V2
    note on link
        <b> System requires:</b>
        * Must have a published 
            article to proposed
    end note 
    addProposedOrNot - -> [*]
}

CONTENT_INTERACTION - -> FILTER_CONTENT
CONTENT_INTERACTION - -> SEARCH_CONTENT

state union <<choice>> 

FILTER_CONTENT - -> union
SEARCH_CONTENT - -> union
union - -> VIEW_ARTICLE

state finished <<choice>>

VIEW_ARTICLE - -> finished
finished - -> [*]
finished - -> CONTENT_INTERACTION

@enduml

PlantUML version 1.2022.7(Mon Aug 22 12:01:30 ECT 2022)
(GPL source distribution)
Java Runtime: OpenJDK Runtime Environment
JVM: OpenJDK 64-Bit Server VM
Default Encoding: UTF-8
Language: en
Country: null
--></g></svg>