<?xml version="1.0" encoding="UTF-8" standalone="no"?><svg xmlns="http://www.w3.org/2000/svg" xmlns:xlink="http://www.w3.org/1999/xlink" contentStyleType="text/css" height="258px" preserveAspectRatio="none" style="width:371px;height:258px;background:#FFFFFF;" version="1.1" viewBox="0 0 371 258" width="371px" zoomAndPan="magnify"><defs/><g><!--MD5=[840380a0cefa0ad7e9ba9ec8fa891756]
cluster Calificaciones--><g id="cluster_Calificaciones"><rect fill="none" height="245" rx="2.5" ry="2.5" style="stroke:#181818;stroke-width:1.0;" width="266.96" x="99" y="7"/><text fill="#000000" font-family="sans-serif" font-size="14" font-weight="bold" lengthAdjust="spacing" textLength="97" x="183.98" y="22.0059">Calificaciones</text></g><g id="elem_Ver calificaciones"><ellipse cx="232.4773" cy="60.0035" fill="#F1F1F1" rx="78.1173" ry="18.0235" style="stroke:#181818;stroke-width:0.5;"/><text fill="#000000" font-family="sans-serif" font-size="14" lengthAdjust="spacing" textLength="110" x="174.4773" y="63.7564">Ver calificaciones</text></g><g id="elem_Añadir calificación"><ellipse cx="232.4821" cy="131.0044" fill="#F1F1F1" rx="79.6721" ry="18.3344" style="stroke:#181818;stroke-width:0.5;"/><text fill="#000000" font-family="sans-serif" font-size="14" lengthAdjust="spacing" textLength="114" x="172.4821" y="134.7574">Añadir calificación</text></g><g id="elem_Filtrar calificaciones por puntaje"><ellipse cx="232.4825" cy="209.9965" fill="#F1F1F1" rx="117.4825" ry="25.8965" style="stroke:#181818;stroke-width:0.5;"/><text fill="#000000" font-family="sans-serif" font-size="14" lengthAdjust="spacing" textLength="201" x="131.9825" y="212.6025">Filtrar calificaciones por puntaje</text></g><!--MD5=[128f0757cf0ea77f14e95a88885fd9f7]
entity Usuario--><g id="elem_Usuario"><ellipse cx="30.5" cy="101.1" fill="#F1F1F1" rx="8" ry="8" style="stroke:#181818;stroke-width:0.5;"/><path d="M30.5,109.1 L30.5,136.1 M17.5,117.1 L43.5,117.1 M30.5,136.1 L17.5,151.1 M30.5,136.1 L43.5,151.1 " fill="none" style="stroke:#181818;stroke-width:0.5;"/><text fill="#000000" font-family="sans-serif" font-size="14" lengthAdjust="spacing" textLength="49" x="6" y="165.6059">Usuario</text></g><!--MD5=[111f88798fe2aca740f3e27ddf3a9b4d]
link Usuario to Ver calificaciones--><g id="link_Usuario_Ver calificaciones"><path d="M55.23,114.39 C65.8,107.6 78.63,100.15 91,95 C114.2,85.35 140.71,77.9 164.4,72.4 " fill="none" id="Usuario-to-Ver calificaciones" style="stroke:#181818;stroke-width:1.0;"/><polygon fill="#181818" points="169.04,71.12,159.3747,69.2275,164.1659,72.2349,161.1585,77.0261,169.04,71.12" style="stroke:#181818;stroke-width:1.0;"/></g><!--MD5=[84fbe033ee0ad03c93ed2fd8216aa58a]
link Usuario to Añadir calificación--><g id="link_Usuario_Añadir calificación"><path d="M55.23,131 C77.92,131 113.51,131 146.78,131 " fill="none" id="Usuario-to-Añadir calificación" style="stroke:#181818;stroke-width:1.0;"/><polygon fill="#181818" points="151.53,131,142.53,127,146.53,131,142.53,135,151.53,131" style="stroke:#181818;stroke-width:1.0;"/></g><!--MD5=[1e9a03dfedf87cb51a2ee1bc90e9d75e]
link Usuario to Filtrar calificaciones por puntaje--><g id="link_Usuario_Filtrar calificaciones por puntaje"><path d="M55.37,147.3 C65.96,154.03 78.77,161.53 91,167 C109.41,175.23 129.85,182.48 149.31,188.57 " fill="none" id="Usuario-to-Filtrar calificaciones por puntaje" style="stroke:#181818;stroke-width:1.0;"/><polygon fill="#181818" points="153.77,190.26,146.3484,183.7854,148.992,188.7866,143.9909,191.4302,153.77,190.26" style="stroke:#181818;stroke-width:1.0;"/></g><!--MD5=[18c45c70c6fc0e2b75b5e636d0641517]
@startuml ratings
left to right direction
actor Usuario
rectangle "Calificaciones" {        
    Usuario - -> (Ver calificaciones)
    Usuario - -> (Añadir calificación)
    Usuario - -> (Filtrar calificaciones por puntaje)
}
@enduml

PlantUML version 1.2022.7(Mon Aug 22 12:01:30 ECT 2022)
(GPL source distribution)
Java Runtime: OpenJDK Runtime Environment
JVM: OpenJDK 64-Bit Server VM
Default Encoding: UTF-8
Language: en
Country: null
--></g></svg>