<?xml version="1.0" encoding="UTF-8" standalone="no"?><svg xmlns="http://www.w3.org/2000/svg" xmlns:xlink="http://www.w3.org/1999/xlink" contentStyleType="text/css" height="333px" preserveAspectRatio="none" style="width:346px;height:333px;background:#FFFFFF;" version="1.1" viewBox="0 0 346 333" width="346px" zoomAndPan="magnify"><defs/><g><!--MD5=[e41349fae9481f5e87c30f597dafc648]
cluster Ver, buscar y filtrar--><g id="cluster_Ver, buscar y filtrar"><rect fill="none" height="320" rx="2.5" ry="2.5" style="stroke:#181818;stroke-width:1.0;" width="241.18" x="99" y="7"/><text fill="#000000" font-family="sans-serif" font-size="14" font-weight="bold" lengthAdjust="spacing" textLength="129" x="155.09" y="22.0059">Ver, buscar y filtrar</text></g><g id="elem_Ver detalles del artículo"><ellipse cx="219.5913" cy="63.0043" fill="#F1F1F1" rx="94.0213" ry="21.2043" style="stroke:#181818;stroke-width:0.5;"/><text fill="#000000" font-family="sans-serif" font-size="14" lengthAdjust="spacing" textLength="149" x="142.1427" y="66.7405">Ver detalles del artículo</text></g><g id="elem_Buscar artículo por nombre"><ellipse cx="219.5918" cy="142.9984" fill="#F1F1F1" rx="104.5918" ry="23.3184" style="stroke:#181818;stroke-width:0.5;"/><text fill="#000000" font-family="sans-serif" font-size="14" lengthAdjust="spacing" textLength="173" x="132.7555" y="145.7525">Buscar artículo por nombre</text></g><g id="elem_Filtrar por categoría"><ellipse cx="219.5931" cy="221.0006" fill="#F1F1F1" rx="84.4531" ry="19.2906" style="stroke:#181818;stroke-width:0.5;"/><text fill="#000000" font-family="sans-serif" font-size="14" lengthAdjust="spacing" textLength="126" x="153.5931" y="224.7536">Filtrar por categoría</text></g><g id="elem_Filtrar por estado"><ellipse cx="219.5919" cy="292.9964" fill="#F1F1F1" rx="77.7319" ry="17.9464" style="stroke:#181818;stroke-width:0.5;"/><text fill="#000000" font-family="sans-serif" font-size="14" lengthAdjust="spacing" textLength="109" x="162.0919" y="296.7494">Filtrar por estado</text></g><!--MD5=[128f0757cf0ea77f14e95a88885fd9f7]
entity Usuario--><g id="elem_Usuario"><ellipse cx="30.5" cy="152.1" fill="#F1F1F1" rx="8" ry="8" style="stroke:#181818;stroke-width:0.5;"/><path d="M30.5,160.1 L30.5,187.1 M17.5,168.1 L43.5,168.1 M30.5,187.1 L17.5,202.1 M30.5,187.1 L43.5,202.1 " fill="none" style="stroke:#181818;stroke-width:0.5;"/><text fill="#000000" font-family="sans-serif" font-size="14" lengthAdjust="spacing" textLength="49" x="6" y="216.6059">Usuario</text></g><!--MD5=[0f3c2aa01e1c2f10a2ce09734ff3d078]
link Usuario to Ver detalles del artículo--><g id="link_Usuario_Ver detalles del artículo"><path d="M52.85,143.5 C62.74,128.69 75.72,112.77 91,102 C105.76,91.6 123.35,83.92 140.69,78.26 " fill="none" id="Usuario-to-Ver detalles del artículo" style="stroke:#181818;stroke-width:1.0;"/><polygon fill="#181818" points="145.06,76.57,135.2747,75.4532,140.2901,78.0695,137.6739,83.085,145.06,76.57" style="stroke:#181818;stroke-width:1.0;"/></g><!--MD5=[5ce9f2e2755237f3c1d7df534a9a5370]
link Usuario to Buscar artículo por nombre--><g id="link_Usuario_Buscar artículo por nombre"><path d="M55.2,177.06 C75.84,172.76 107.02,166.26 136.63,160.08 " fill="none" id="Usuario-to-Buscar artículo por nombre" style="stroke:#181818;stroke-width:1.0;"/><polygon fill="#181818" points="141.14,158.94,131.516,156.8473,136.2438,159.9535,133.1376,164.6813,141.14,158.94" style="stroke:#181818;stroke-width:1.0;"/></g><!--MD5=[a792a567bff71f4775a7a0fa9d25e90e]
link Usuario to Filtrar por categoría--><g id="link_Usuario_Filtrar por categoría"><path d="M55.2,186.94 C79.08,191.92 117.09,199.84 150.44,206.79 " fill="none" id="Usuario-to-Filtrar por categoría" style="stroke:#181818;stroke-width:1.0;"/><polygon fill="#181818" points="155.18,207.99,147.181,202.2441,150.2844,206.9737,145.5548,210.0771,155.18,207.99" style="stroke:#181818;stroke-width:1.0;"/></g><!--MD5=[7f68672c98b38aa93093e9b682e55041]
link Usuario to Filtrar por estado--><g id="link_Usuario_Filtrar por estado"><path d="M54.46,220.75 C64.19,234.27 76.63,248.44 91,258 C107.78,269.17 128.05,276.79 147.44,281.99 " fill="none" id="Usuario-to-Filtrar por estado" style="stroke:#181818;stroke-width:1.0;"/><polygon fill="#181818" points="151.88,283.39,144.1568,277.2783,147.0369,282.1471,142.1682,285.0272,151.88,283.39" style="stroke:#181818;stroke-width:1.0;"/></g><!--MD5=[0aa02f520b301cf13b7e4de2bf52c251]
@startuml view-search-filter
left to right direction
actor Usuario

rectangle "Ver, buscar y filtrar" {   
    Usuario - -> (Ver detalles del artículo)
    Usuario - -> (Buscar artículo por nombre)
    Usuario - -> (Filtrar por categoría)
    Usuario - -> (Filtrar por estado)
}
@enduml

PlantUML version 1.2022.7(Mon Aug 22 12:01:30 ECT 2022)
(GPL source distribution)
Java Runtime: OpenJDK Runtime Environment
JVM: OpenJDK 64-Bit Server VM
Default Encoding: UTF-8
Language: en
Country: null
--></g></svg>